<svg width="318" height="238" viewBox="0 0 318 238" fill="none" xmlns="http://www.w3.org/2000/svg">
<path d="M317.783 208.682H0V208.841H317.783V208.682Z" fill="#EBEBEB"/>
<path d="M285.941 218.912H264.891V219.071H285.941V218.912Z" fill="#EBEBEB"/>
<path d="M210.512 220.642H204.989V220.801H210.512V220.642Z" fill="#EBEBEB"/>
<path d="M264.255 213.012H252.059V213.171H264.255V213.012Z" fill="#EBEBEB"/>
<path d="M60.7917 214.08H33.3417V214.239H60.7917V214.08Z" fill="#EBEBEB"/>
<path d="M70.4778 214.08H66.4547V214.239H70.4778V214.08Z" fill="#EBEBEB"/>
<path d="M143.098 216.763H83.5578V216.922H143.098V216.763Z" fill="#EBEBEB"/>
<path d="M150.629 180.326H27.9076C26.9462 180.324 26.0248 179.941 25.3456 179.26C24.6664 178.579 24.2849 177.657 24.2849 176.695V4.12035C24.2933 3.16412 24.6785 2.24982 25.3568 1.57602C26.0351 0.902228 26.9517 0.523367 27.9076 0.521729H150.629C151.591 0.521729 152.514 0.904217 153.195 1.58505C153.876 2.26589 154.258 3.1893 154.258 4.15214V176.695C154.258 177.658 153.876 178.582 153.195 179.262C152.514 179.943 151.591 180.326 150.629 180.326ZM27.9076 0.648889C26.9884 0.650573 26.1074 1.01706 25.458 1.6679C24.8085 2.31874 24.4438 3.20076 24.4438 4.12035V176.695C24.4438 177.615 24.8085 178.497 25.458 179.148C26.1074 179.799 26.9884 180.165 27.9076 180.167H150.629C151.549 180.165 152.43 179.799 153.081 179.148C153.731 178.497 154.097 177.615 154.099 176.695V4.12035C154.097 3.20018 153.731 2.31817 153.081 1.66751C152.43 1.01685 151.549 0.650569 150.629 0.648889H27.9076Z" fill="#EBEBEB"/>
<path d="M288.108 180.326H165.38C164.418 180.324 163.496 179.941 162.816 179.261C162.136 178.58 161.753 177.658 161.751 176.695V4.12035C161.761 3.16355 162.148 2.24924 162.827 1.57562C163.507 0.902005 164.424 0.523349 165.38 0.521729H288.108C289.063 0.525038 289.978 0.904638 290.655 1.57825C291.332 2.25187 291.716 3.16522 291.724 4.12035V176.695C291.724 177.656 291.344 178.577 290.666 179.258C289.988 179.938 289.068 180.322 288.108 180.326ZM165.38 0.648889C164.461 0.650569 163.579 1.01685 162.928 1.66751C162.278 2.31817 161.912 3.20018 161.91 4.12035V176.695C161.912 177.615 162.278 178.497 162.928 179.148C163.579 179.799 164.461 180.165 165.38 180.167H288.108C289.028 180.165 289.91 179.799 290.56 179.148C291.21 178.497 291.577 177.615 291.578 176.695V4.12035C291.577 3.20018 291.21 2.31817 290.56 1.66751C289.91 1.01685 289.028 0.650569 288.108 0.648889H165.38Z" fill="#EBEBEB"/>
<path d="M62.2981 155.93H38.8458V208.682H62.2981V155.93Z" fill="#EBEBEB"/>
<path d="M97.0952 130.485H73.6429V208.682H97.0952V130.485Z" fill="#EBEBEB"/>
<path d="M131.892 111.399H108.44V208.682H131.892V111.399Z" fill="#EBEBEB"/>
<path d="M166.69 155.93H143.237V208.682H166.69V155.93Z" fill="#EBEBEB"/>
<path d="M201.481 136.85H178.028V208.682H201.481V136.85Z" fill="#EBEBEB"/>
<path d="M236.278 105.041H212.825V208.682H236.278V105.041Z" fill="#EBEBEB"/>
<path d="M271.075 47.7806H247.622V208.682H271.075V47.7806Z" fill="#EBEBEB"/>
<path d="M154.563 141.987L119.734 97.5955L85.6996 115.62L51.5252 141.192L49.6249 138.649L83.9899 112.931L84.1043 112.867L120.592 93.5455L155.357 137.854L188.134 118.977L223.674 88.014L259.717 30.0927L262.418 31.7713L226.121 90.0994L189.856 121.654L154.563 141.987Z" fill="#E0E0E0"/>
<path d="M54.7667 139.921C54.7667 140.751 54.5206 141.562 54.0597 142.252C53.5988 142.942 52.9437 143.48 52.1772 143.797C51.4107 144.115 50.5673 144.198 49.7536 144.036C48.9399 143.874 48.1924 143.475 47.6058 142.888C47.0192 142.301 46.6197 141.553 46.4578 140.739C46.2959 139.925 46.379 139.082 46.6965 138.315C47.014 137.548 47.5516 136.893 48.2415 136.432C48.9313 135.97 49.7423 135.724 50.5719 135.724C51.1228 135.724 51.6683 135.833 52.1772 136.044C52.6861 136.255 53.1485 136.564 53.5381 136.953C53.9276 137.343 54.2365 137.806 54.4474 138.315C54.6582 138.824 54.7667 139.37 54.7667 139.921Z" fill="#FAFAFA"/>
<path d="M50.5719 145.706C49.428 145.706 48.3098 145.367 47.3586 144.731C46.4075 144.096 45.6662 143.192 45.2285 142.135C44.7907 141.078 44.6762 139.914 44.8993 138.792C45.1225 137.67 45.6733 136.639 46.4822 135.829C47.2911 135.02 48.3216 134.469 49.4435 134.246C50.5654 134.023 51.7283 134.137 52.7852 134.575C53.842 135.013 54.7453 135.755 55.3808 136.706C56.0163 137.658 56.3555 138.776 56.3555 139.921C56.3538 141.455 55.7439 142.925 54.6596 144.01C53.5754 145.095 52.1053 145.705 50.5719 145.706ZM50.5719 137.314C50.0565 137.314 49.5527 137.467 49.1241 137.753C48.6956 138.04 48.3616 138.447 48.1644 138.923C47.9672 139.399 47.9156 139.924 48.0161 140.429C48.1167 140.935 48.3648 141.399 48.7293 141.764C49.0937 142.128 49.558 142.377 50.0635 142.477C50.569 142.578 51.0929 142.526 51.5691 142.329C52.0452 142.132 52.4522 141.798 52.7385 141.369C53.0248 140.94 53.1777 140.436 53.1777 139.921C53.1777 139.229 52.9031 138.566 52.4144 138.077C51.9258 137.588 51.263 137.314 50.5719 137.314Z" fill="#E0E0E0"/>
<path d="M84.8479 118.469C87.1646 118.469 89.0427 116.59 89.0427 114.273C89.0427 111.955 87.1646 110.076 84.8479 110.076C82.5312 110.076 80.6532 111.955 80.6532 114.273C80.6532 116.59 82.5312 118.469 84.8479 118.469Z" fill="#FAFAFA"/>
<path d="M84.848 120.052C83.7038 120.053 82.585 119.715 81.633 119.08C80.6811 118.445 79.9388 117.542 79.5001 116.485C79.0613 115.428 78.9459 114.264 79.1683 113.141C79.3908 112.019 79.9411 110.987 80.7497 110.177C81.5583 109.367 82.5889 108.816 83.711 108.592C84.833 108.368 85.9963 108.482 87.0535 108.92C88.1107 109.358 89.0143 110.099 89.6501 111.051C90.2859 112.003 90.6253 113.122 90.6253 114.266C90.6236 115.799 90.0146 117.269 88.9317 118.353C87.8488 119.438 86.3803 120.049 84.848 120.052ZM84.848 111.666C84.3321 111.664 83.8274 111.816 83.3979 112.102C82.9684 112.388 82.6334 112.795 82.4354 113.272C82.2374 113.749 82.1852 114.273 82.2856 114.78C82.3859 115.286 82.6342 115.751 82.9991 116.116C83.3639 116.481 83.8288 116.729 84.3348 116.829C84.8409 116.93 85.3654 116.878 85.8418 116.68C86.3182 116.482 86.7251 116.146 87.0109 115.717C87.2968 115.287 87.4487 114.782 87.4474 114.266C87.4441 113.578 87.1689 112.919 86.682 112.433C86.195 111.947 85.5358 111.674 84.848 111.672V111.666Z" fill="#E0E0E0"/>
<path d="M124.355 95.5927C124.355 96.423 124.108 97.2345 123.647 97.9247C123.186 98.6149 122.531 99.1528 121.764 99.4702C120.997 99.7876 120.153 99.8703 119.339 99.7079C118.525 99.5455 117.778 99.1452 117.192 98.5577C116.605 97.9702 116.206 97.2219 116.045 96.4075C115.884 95.5931 115.968 94.7491 116.286 93.9825C116.605 93.2158 117.143 92.5609 117.834 92.1006C118.525 91.6402 119.336 91.3952 120.166 91.3965C121.278 91.3981 122.343 91.841 123.128 92.6278C123.914 93.4145 124.355 94.4809 124.355 95.5927Z" fill="#FAFAFA"/>
<path d="M120.166 101.379C119.022 101.38 117.903 101.042 116.951 100.407C115.999 99.7715 115.257 98.8684 114.818 97.8113C114.38 96.7542 114.264 95.5907 114.487 94.4679C114.709 93.3452 115.259 92.3136 116.068 91.5038C116.877 90.6941 117.907 90.1424 119.029 89.9186C120.151 89.6949 121.315 89.8091 122.372 90.2468C123.429 90.6845 124.333 91.4261 124.968 92.3777C125.604 93.3293 125.944 94.4482 125.944 95.5927C125.942 97.1256 125.333 98.5953 124.25 99.6798C123.167 100.764 121.699 101.375 120.166 101.379ZM120.166 92.986C119.651 92.9847 119.146 93.1365 118.717 93.4222C118.288 93.7079 117.953 94.1145 117.754 94.5908C117.556 95.067 117.504 95.5913 117.603 96.0974C117.703 96.6035 117.951 97.0686 118.315 97.4338C118.679 97.799 119.144 98.0479 119.649 98.149C120.155 98.2501 120.679 98.1988 121.156 98.0017C121.632 97.8046 122.04 97.4705 122.326 97.0416C122.613 96.6128 122.766 96.1086 122.766 95.5927C122.764 94.903 122.49 94.2419 122.003 93.7536C121.516 93.2652 120.856 92.9893 120.166 92.986Z" fill="#E0E0E0"/>
<path d="M159.152 139.183C159.152 140.013 158.906 140.825 158.445 141.515C157.983 142.205 157.328 142.743 156.561 143.061C155.794 143.378 154.95 143.461 154.136 143.298C153.323 143.136 152.575 142.736 151.989 142.148C151.402 141.561 151.003 140.812 150.842 139.998C150.681 139.183 150.765 138.34 151.084 137.573C151.402 136.806 151.941 136.151 152.631 135.691C153.322 135.231 154.134 134.986 154.964 134.987C156.075 134.989 157.14 135.431 157.926 136.218C158.711 137.005 159.152 138.071 159.152 139.183Z" fill="#FAFAFA"/>
<path d="M154.963 144.969C153.819 144.97 152.7 144.632 151.749 143.997C150.797 143.362 150.054 142.459 149.616 141.402C149.177 140.345 149.061 139.181 149.284 138.058C149.506 136.936 150.057 135.904 150.865 135.094C151.674 134.284 152.704 133.733 153.826 133.509C154.949 133.285 156.112 133.399 157.169 133.837C158.226 134.275 159.13 135.016 159.766 135.968C160.401 136.92 160.741 138.039 160.741 139.183C160.739 140.716 160.13 142.186 159.047 143.27C157.964 144.355 156.496 144.966 154.963 144.969ZM154.963 136.576C154.448 136.575 153.943 136.727 153.514 137.013C153.085 137.298 152.75 137.705 152.551 138.181C152.353 138.657 152.301 139.182 152.401 139.688C152.5 140.194 152.748 140.659 153.112 141.024C153.476 141.389 153.941 141.638 154.446 141.739C154.952 141.84 155.476 141.789 155.953 141.592C156.429 141.395 156.837 141.061 157.123 140.632C157.41 140.203 157.563 139.699 157.563 139.183C157.56 138.494 157.285 137.835 156.798 137.348C156.311 136.861 155.652 136.586 154.963 136.583V136.576Z" fill="#E0E0E0"/>
<path d="M189.754 124.064C192.071 124.064 193.949 122.185 193.949 119.868C193.949 117.55 192.071 115.671 189.754 115.671C187.438 115.671 185.56 117.55 185.56 119.868C185.56 122.185 187.438 124.064 189.754 124.064Z" fill="#FAFAFA"/>
<path d="M189.754 125.653C188.61 125.653 187.492 125.314 186.541 124.678C185.59 124.042 184.849 123.139 184.411 122.082C183.973 121.024 183.859 119.861 184.082 118.739C184.305 117.616 184.856 116.586 185.665 115.776C186.474 114.967 187.504 114.416 188.626 114.193C189.748 113.97 190.911 114.084 191.968 114.522C193.024 114.96 193.928 115.702 194.563 116.653C195.199 117.605 195.538 118.723 195.538 119.868C195.536 121.401 194.926 122.872 193.842 123.957C192.758 125.042 191.288 125.652 189.754 125.653ZM189.754 117.261C189.239 117.261 188.735 117.414 188.307 117.7C187.878 117.987 187.544 118.394 187.347 118.87C187.15 119.346 187.098 119.87 187.199 120.376C187.299 120.882 187.547 121.346 187.912 121.711C188.276 122.075 188.74 122.324 189.246 122.424C189.751 122.525 190.275 122.473 190.752 122.276C191.228 122.079 191.635 121.744 191.921 121.316C192.207 120.887 192.36 120.383 192.36 119.868C192.36 119.176 192.086 118.513 191.597 118.024C191.108 117.535 190.445 117.261 189.754 117.261Z" fill="#E0E0E0"/>
<path d="M224.857 92.827C227.173 92.827 229.051 90.9482 229.051 88.6307C229.051 86.3132 227.173 84.4344 224.857 84.4344C222.54 84.4344 220.662 86.3132 220.662 88.6307C220.662 90.9482 222.54 92.827 224.857 92.827Z" fill="#FAFAFA"/>
<path d="M224.857 94.4102C223.712 94.4102 222.594 94.0707 221.643 93.4346C220.691 92.7986 219.95 91.8946 219.513 90.837C219.075 89.7795 218.961 88.6158 219.185 87.4933C219.408 86.3708 219.96 85.3399 220.769 84.531C221.579 83.7221 222.61 83.1715 223.732 82.949C224.854 82.7265 226.018 82.842 227.074 83.2809C228.131 83.7198 229.034 84.4623 229.669 85.4146C230.303 86.3669 230.641 87.4862 230.64 88.6308C230.639 90.1641 230.028 91.6341 228.944 92.7178C227.86 93.8015 226.389 94.4102 224.857 94.4102ZM224.857 86.024C224.341 86.024 223.837 86.1769 223.409 86.4633C222.98 86.7497 222.646 87.1569 222.449 87.6332C222.252 88.1095 222.2 88.6336 222.301 89.1393C222.401 89.645 222.65 90.1095 223.014 90.474C223.378 90.8386 223.843 91.0869 224.348 91.1874C224.854 91.288 225.378 91.2364 225.854 91.0391C226.33 90.8418 226.737 90.5077 227.023 90.079C227.31 89.6503 227.462 89.1463 227.462 88.6308C227.462 88.2884 227.395 87.9495 227.264 87.6332C227.133 87.3169 226.941 87.0295 226.699 86.7875C226.457 86.5454 226.17 86.3534 225.854 86.2224C225.538 86.0914 225.199 86.024 224.857 86.024Z" fill="#E0E0E0"/>
<path d="M260.315 36.2028C262.631 36.2028 264.51 34.324 264.51 32.0065C264.51 29.6889 262.631 27.8102 260.315 27.8102C257.998 27.8102 256.12 29.6889 256.12 32.0065C256.12 34.324 257.998 36.2028 260.315 36.2028Z" fill="#FAFAFA"/>
<path d="M260.315 37.7923C259.171 37.7923 258.053 37.4529 257.102 36.8172C256.15 36.1814 255.409 35.2778 254.971 34.2206C254.534 33.1634 254.419 32.0001 254.642 30.8778C254.865 29.7554 255.416 28.7245 256.225 27.9153C257.034 27.1062 258.065 26.5552 259.186 26.3319C260.308 26.1087 261.471 26.2232 262.528 26.6611C263.585 27.0991 264.488 27.8406 265.124 28.7921C265.759 29.7436 266.098 30.8622 266.098 32.0065C266.097 33.5405 265.487 35.0111 264.403 36.0958C263.318 37.1805 261.848 37.7906 260.315 37.7923ZM260.315 29.4061C259.799 29.4061 259.295 29.5591 258.866 29.8459C258.438 30.1326 258.104 30.5401 257.907 31.0168C257.71 31.4935 257.658 32.0179 257.76 32.5238C257.861 33.0296 258.109 33.4941 258.474 33.8584C258.84 34.2227 259.304 34.4705 259.81 34.5703C260.316 34.6702 260.84 34.6177 261.316 34.4194C261.792 34.2211 262.199 33.886 262.485 33.4565C262.77 33.027 262.922 32.5223 262.921 32.0065C262.919 31.3162 262.644 30.6548 262.155 30.1673C261.667 29.6799 261.005 29.4061 260.315 29.4061Z" fill="#E0E0E0"/>
<path d="M158.891 237.395C226.949 237.395 282.121 234.173 282.121 230.198C282.121 226.223 226.949 223.001 158.891 223.001C90.8334 223.001 35.6616 226.223 35.6616 230.198C35.6616 234.173 90.8334 237.395 158.891 237.395Z" fill="#F5F5F5"/>
<path d="M242.786 210.704H242.188C242.188 209.808 242.932 188.801 246.58 185.272C250.343 181.623 254.754 185.221 254.798 185.272L254.417 185.736C254.251 185.596 250.368 182.443 247 185.736C243.504 189.049 242.786 210.488 242.786 210.704Z" fill="#407BFF"/>
<path d="M242.468 214.919L241.871 214.862C241.871 214.608 244.229 189.354 235.083 178.857L235.54 178.463C244.852 189.157 242.494 214.665 242.468 214.919Z" fill="#407BFF"/>
<path d="M242.786 212.243C242.703 211.047 240.943 182.996 247.972 176.511L248.379 176.956C241.559 183.231 243.364 211.925 243.383 212.205L242.786 212.243Z" fill="#407BFF"/>
<path d="M241.871 212.205C241.871 212.014 241.648 193.131 236.653 190.289C236.227 190.009 235.74 189.836 235.234 189.784C234.727 189.732 234.215 189.803 233.742 189.99C230.812 191.198 229.248 196.799 229.236 196.856L228.657 196.697C228.721 196.456 230.31 190.759 233.513 189.43C234.071 189.208 234.675 189.122 235.273 189.181C235.871 189.239 236.447 189.44 236.951 189.767C242.246 192.8 242.462 211.384 242.468 212.198L241.871 212.205Z" fill="#407BFF"/>
<path d="M243.924 212.243C243.892 211.639 243.116 197.34 247.171 192.043C248.245 190.645 249.44 189.971 250.743 190.066C253.616 190.27 255.828 194.173 255.949 194.339L255.427 194.631C255.427 194.593 253.254 190.816 250.699 190.664C249.618 190.594 248.595 191.179 247.648 192.412C243.727 197.53 244.515 212.065 244.527 212.211L243.924 212.243Z" fill="#407BFF"/>
<path d="M243.123 214.201L242.519 214.15C242.519 213.807 245.061 179.741 240.873 174.063L241.356 173.701C245.684 179.563 243.225 212.79 243.123 214.201Z" fill="#407BFF"/>
<path d="M232.344 192.825C232.344 192.825 234.943 193.779 234.168 196.043C233.392 198.306 225.194 202.019 225.194 202.019C225.194 202.019 221.755 198.84 224.914 193.754C228.073 188.667 232.274 191.204 232.344 192.825Z" fill="#407BFF"/>
<path opacity="0.4" d="M232.344 192.825C232.344 192.825 234.943 193.779 234.168 196.043C233.392 198.306 225.194 202.019 225.194 202.019C225.194 202.019 221.755 198.84 224.914 193.754C228.073 188.667 232.274 191.204 232.344 192.825Z" fill="white"/>
<path d="M243.625 188.521C243.625 188.521 240.867 188.407 240.708 190.791C240.549 193.175 246.695 199.762 246.695 199.762C246.695 199.762 251.08 198.179 250.133 192.234C249.186 186.289 244.311 187.059 243.625 188.521Z" fill="#407BFF"/>
<path opacity="0.4" d="M243.625 188.521C243.625 188.521 240.867 188.407 240.708 190.791C240.549 193.175 246.695 199.762 246.695 199.762C246.695 199.762 251.08 198.179 250.133 192.234C249.186 186.289 244.311 187.059 243.625 188.521Z" fill="white"/>
<path d="M245.964 177.121C245.964 177.121 244.127 176.918 244.273 175.799C244.419 174.68 251.436 171.787 255.574 176.435C255.574 176.435 252.923 180.987 249.091 181.044C245.258 181.101 245.964 177.121 245.964 177.121Z" fill="#407BFF"/>
<path opacity="0.4" d="M245.964 177.121C245.964 177.121 244.127 176.918 244.273 175.799C244.419 174.68 251.436 171.787 255.574 176.435C255.574 176.435 252.923 180.987 249.091 181.044C245.258 181.101 245.964 177.121 245.964 177.121Z" fill="white"/>
<path d="M242.532 174.394C242.532 174.394 244.203 175.201 244.667 174.165C245.131 173.128 240.714 166.974 234.733 168.748C234.733 168.748 234.574 174.012 237.79 176.091C241.006 178.17 242.532 174.394 242.532 174.394Z" fill="#407BFF"/>
<path opacity="0.4" d="M242.532 174.394C242.532 174.394 244.203 175.201 244.667 174.165C245.131 173.128 240.714 166.974 234.733 168.748C234.733 168.748 234.574 174.012 237.79 176.091C241.006 178.17 242.532 174.394 242.532 174.394Z" fill="white"/>
<path d="M251.258 191.897C251.258 191.897 249.987 190.867 251.36 190.365C252.733 189.863 259.463 190.009 259.533 196.678C259.533 196.678 251.69 197.982 250.718 195.445C249.745 192.908 251.258 191.897 251.258 191.897Z" fill="#407BFF"/>
<path opacity="0.4" d="M251.258 191.897C251.258 191.897 249.987 190.867 251.36 190.365C252.733 189.863 259.463 190.009 259.533 196.678C259.533 196.678 251.69 197.982 250.718 195.445C249.745 192.908 251.258 191.897 251.258 191.897Z" fill="white"/>
<path d="M235.267 176.95C235.267 176.95 236.538 175.926 235.165 175.424C233.793 174.921 227.062 175.061 226.992 181.737C226.992 181.737 234.829 183.041 235.801 180.497C236.773 177.954 235.267 176.95 235.267 176.95Z" fill="#407BFF"/>
<path opacity="0.4" d="M235.267 176.95C235.267 176.95 236.538 175.926 235.165 175.424C233.793 174.921 227.062 175.061 226.992 181.737C226.992 181.737 234.829 183.041 235.801 180.497C236.773 177.954 235.267 176.95 235.267 176.95Z" fill="white"/>
<path d="M239.411 182.36C239.411 182.36 239.526 181.089 238.515 181.597C237.504 182.106 233.996 185.876 237.638 189.468C237.638 189.468 242.532 185.844 241.655 183.95C240.778 182.055 239.411 182.36 239.411 182.36Z" fill="#407BFF"/>
<path opacity="0.4" d="M239.411 182.36C239.411 182.36 239.526 181.089 238.515 181.597C237.504 182.106 233.996 185.876 237.638 189.468C237.638 189.468 242.532 185.844 241.655 183.95C240.778 182.055 239.411 182.36 239.411 182.36Z" fill="white"/>
<path d="M252.396 184.102C252.396 184.102 251.633 183.11 252.745 182.983C253.857 182.856 258.847 184.191 257.684 189.176C257.684 189.176 251.608 188.718 251.328 186.633C251.048 184.547 252.396 184.102 252.396 184.102Z" fill="#407BFF"/>
<path opacity="0.4" d="M252.396 184.102C252.396 184.102 251.633 183.11 252.745 182.983C253.857 182.856 258.847 184.191 257.684 189.176C257.684 189.176 251.608 188.718 251.328 186.633C251.048 184.547 252.396 184.102 252.396 184.102Z" fill="white"/>
<path d="M232.801 230.7H252.447L255.059 211.581H230.189L232.801 230.7Z" fill="#263238"/>
<path opacity="0.2" d="M232.801 230.7H252.447L255.059 211.581H230.189L232.801 230.7Z" fill="white"/>
<path d="M257.525 210.037V211.849C257.525 212.432 257.293 212.992 256.881 213.404C256.468 213.817 255.909 214.048 255.326 214.048H229.681C229.097 214.048 228.538 213.817 228.126 213.404C227.713 212.992 227.482 212.432 227.482 211.849V210.037H257.525Z" fill="#263238"/>
<path d="M255.497 71.846H250.317C249.968 84.3839 245.868 151.054 198.163 188.464C155.79 221.704 111.459 225.538 85.3755 225.538C80.8057 225.538 76.8017 225.423 73.4586 225.321C71.1833 225.258 69.213 225.201 67.7385 225.201V199.769C69.6452 199.769 71.7617 199.832 74.2404 199.902C95.5699 200.538 139.951 201.81 182.509 168.449C220.217 138.866 224.456 82.9788 224.901 71.846H219.817L237.682 47.6856L255.497 71.846Z" fill="#407BFF"/>
<path opacity="0.2" d="M255.497 71.8456H250.317C249.968 84.3836 245.868 151.053 198.163 188.464C155.79 221.703 111.459 225.537 85.3755 225.537C80.8057 225.537 76.8017 225.423 73.4586 225.321C71.1833 225.258 69.213 225.2 67.7385 225.2V215.841C125.244 215.206 163.88 203.615 194.794 177.058C237.244 140.601 239.754 72.4179 239.754 72.4179L248.894 69.8747L237.67 47.6535L255.497 71.8456Z" fill="black"/>
<path d="M250.279 73.3844H224.857C224.604 73.3844 224.361 73.2839 224.183 73.105C224.004 72.9262 223.903 72.6836 223.903 72.4307C223.903 72.1777 224.004 71.9351 224.183 71.7563C224.361 71.5774 224.604 71.477 224.857 71.477H250.279C250.532 71.477 250.775 71.5774 250.953 71.7563C251.132 71.9351 251.233 72.1777 251.233 72.4307C251.233 72.6836 251.132 72.9262 250.953 73.105C250.775 73.2839 250.532 73.3844 250.279 73.3844Z" fill="#407BFF"/>
<path opacity="0.4" d="M250.279 73.3844H224.857C224.604 73.3844 224.361 73.2839 224.183 73.105C224.004 72.9262 223.903 72.6836 223.903 72.4307C223.903 72.1777 224.004 71.9351 224.183 71.7563C224.361 71.5774 224.604 71.477 224.857 71.477H250.279C250.532 71.477 250.775 71.5774 250.953 71.7563C251.132 71.9351 251.233 72.1777 251.233 72.4307C251.233 72.6836 251.132 72.9262 250.953 73.105C250.775 73.2839 250.532 73.3844 250.279 73.3844Z" fill="white"/>
<path d="M86.761 53.0196H68.5012C67.0094 53.0196 65.5788 53.6125 64.5239 54.6677C63.4691 55.7229 62.8765 57.1541 62.8765 58.6465V74.5414C62.8765 76.0338 63.4691 77.465 64.5239 78.5202C65.5788 79.5754 67.0094 80.1683 68.5012 80.1683H73.8336V86.4563L77.647 80.1683H86.7928C88.2835 80.1666 89.7125 79.573 90.766 78.5179C91.8194 77.4629 92.4112 76.0327 92.4112 74.5414V58.6465C92.412 57.9051 92.2663 57.171 91.9823 56.4863C91.6984 55.8016 91.2818 55.1798 90.7566 54.6568C90.2315 54.1338 89.6081 53.7199 88.9223 53.4389C88.2366 53.1579 87.502 53.0154 86.761 53.0196Z" fill="#407BFF"/>
<path opacity="0.7" d="M86.761 53.0196H68.5012C67.0094 53.0196 65.5788 53.6125 64.5239 54.6677C63.4691 55.7229 62.8765 57.1541 62.8765 58.6465V74.5414C62.8765 76.0338 63.4691 77.465 64.5239 78.5202C65.5788 79.5754 67.0094 80.1683 68.5012 80.1683H73.8336V86.4563L77.647 80.1683H86.7928C88.2835 80.1666 89.7125 79.573 90.766 78.5179C91.8194 77.4629 92.4112 76.0327 92.4112 74.5414V58.6465C92.412 57.9051 92.2663 57.171 91.9823 56.4863C91.6984 55.8016 91.2818 55.1798 90.7566 54.6568C90.2315 54.1338 89.6081 53.7199 88.9223 53.4389C88.2366 53.1579 87.502 53.0154 86.761 53.0196Z" fill="white"/>
<path d="M86.4487 68.6044C87.5985 63.731 84.5814 58.8479 79.7098 57.6977C74.8382 56.5475 69.9569 59.5657 68.8071 64.4391C67.6573 69.3125 70.6744 74.1956 75.546 75.3458C80.4176 76.496 85.2989 73.4778 86.4487 68.6044Z" fill="#407BFF"/>
<path d="M76.6809 70.5741C76.5601 70.5744 76.4407 70.5484 76.3309 70.4979C76.2212 70.4474 76.1237 70.3736 76.0453 70.2816L72.4862 66.0917C72.4152 66.0082 72.3614 65.9115 72.3278 65.8072C72.2942 65.703 72.2815 65.5931 72.2903 65.4838C72.2992 65.3746 72.3295 65.2682 72.3794 65.1707C72.4294 65.0732 72.498 64.9864 72.5815 64.9155C72.7501 64.7721 72.9686 64.7017 73.1892 64.7195C73.2983 64.7284 73.4047 64.7587 73.5022 64.8087C73.5997 64.8586 73.6864 64.9273 73.7573 65.0108L76.6809 68.4505L81.4985 62.7665C81.6418 62.5978 81.8461 62.4931 82.0666 62.4752C82.2871 62.4573 82.5057 62.5278 82.6743 62.6711C82.8428 62.8144 82.9476 63.0189 82.9655 63.2395C82.9833 63.46 82.9129 63.6787 82.7696 63.8473L77.3101 70.2816C77.233 70.3734 77.1367 70.4472 77.028 70.4977C76.9192 70.5482 76.8008 70.5743 76.6809 70.5741Z" fill="white"/>
<path d="M107.499 87.9822L106.978 89.0694C106.978 89.0694 104.436 91.3265 105.485 92.8143L107.557 93.8824L110.315 92.3629C110.525 92.2469 110.707 92.0859 110.848 91.8913C110.988 91.6968 111.084 91.4735 111.128 91.2375L111.497 89.2284C111.57 88.827 111.49 88.4127 111.272 88.0677C111.054 87.7227 110.715 87.472 110.321 87.3655L109.374 87.1175C109.01 87.0224 108.624 87.0566 108.282 87.2143C107.94 87.372 107.664 87.6433 107.499 87.9822Z" fill="#E4897B"/>
<path d="M104.531 93.8316L105.116 92.1912L107.995 93.6727L107.322 95.1731L104.531 93.8316Z" fill="#407BFF"/>
<path opacity="0.7" d="M104.531 93.8316L105.116 92.1912L107.995 93.6727L107.322 95.1731L104.531 93.8316Z" fill="white"/>
<path d="M107.754 94.7535C106.68 97.4874 105.497 100.145 104.188 102.771C103.553 104.081 102.853 105.397 102.097 106.694C101.913 107.018 101.716 107.33 101.512 107.673C101.309 108.016 101.118 108.309 100.877 108.658L100.54 109.161L100.146 109.682L99.949 109.943C99.86 110.051 99.7392 110.172 99.6312 110.286C99.4353 110.498 99.2228 110.693 98.9956 110.871C98.2573 111.449 97.453 111.938 96.5995 112.327C95.8618 112.673 95.1066 112.981 94.3369 113.249C92.8777 113.752 91.3926 114.177 89.888 114.52C88.7439 114.794 87.6126 115.029 86.475 115.239C85.2038 115.474 83.9327 115.671 82.6298 115.83C82.1023 115.9 81.5748 115.964 81.0409 116.021L80.4053 110.191C83.1256 109.828 85.9475 109.383 88.6677 108.836C90.0151 108.569 91.3434 108.251 92.6018 107.895C93.2374 107.711 93.8348 107.508 94.3878 107.26C94.8649 107.085 95.3229 106.861 95.7542 106.592L95.9258 106.478L95.9894 106.433L96.1292 106.274L96.4152 105.95L96.7139 105.575C96.9173 105.327 97.1271 105.066 97.3495 104.793C97.5719 104.519 97.7563 104.252 97.9851 103.966C98.7922 102.834 99.6058 101.671 100.4 100.488C102.002 98.1296 104.697 93.1958 104.697 93.1958L107.754 94.7535Z" fill="#263238"/>
<path opacity="0.3" d="M86.494 115.245C85.2229 115.481 83.9517 115.678 82.6488 115.837L81.8035 112.537C83.5715 113.027 85.1857 113.959 86.494 115.245Z" fill="black"/>
<path d="M61.1349 121.095C63.4108 124.442 65.4252 127.96 67.1601 131.617C68.4821 134.319 69.6325 136.958 70.6239 139.374C72.9438 145.045 74.3801 149.508 75.0729 150.945L94.1398 142.292C89.1379 119.276 79.9795 110.362 79.9795 110.362C78.3346 110.768 76.717 111.278 75.1364 111.888C74.7996 112.015 74.5009 112.155 74.1323 112.302C71.465 113.56 68.8738 114.974 66.372 116.536C65.9017 116.822 65.4314 117.121 64.9801 117.426C63.5154 118.441 62.218 119.679 61.1349 121.095Z" fill="#407BFF"/>
<path opacity="0.7" d="M61.1349 121.095C63.4108 124.442 65.4252 127.96 67.1601 131.617C68.4821 134.319 69.6325 136.958 70.6239 139.374C72.9438 145.045 74.3801 149.508 75.0729 150.945L94.1398 142.292C89.1379 119.276 79.9795 110.362 79.9795 110.362C78.3346 110.768 76.717 111.278 75.1364 111.888C74.7996 112.015 74.5009 112.155 74.1323 112.302C71.465 113.56 68.8738 114.974 66.372 116.536C65.9017 116.822 65.4314 117.121 64.9801 117.426C63.5154 118.441 62.218 119.679 61.1349 121.095Z" fill="white"/>
<path d="M61.8723 227.12L65.5395 228.348L69.4164 220.197L65.7492 218.97L61.8723 227.12Z" fill="#E4897B"/>
<path d="M127.304 228.322L130.99 227.14L129.306 218.276L125.626 219.453L127.304 228.322Z" fill="#E4897B"/>
<path d="M89.068 139.546C89.068 139.546 89.7035 179.086 88.3307 188.063C86.9579 197.041 69.1049 224.628 69.1049 224.628L62.6348 221.379C62.6348 221.379 76.9287 191.808 77.3227 187.968C77.7168 184.128 73.9987 152.694 73.9987 152.694L89.068 139.546Z" fill="#263238"/>
<path opacity="0.1" d="M73.9987 152.694C73.9987 152.694 74.1322 153.876 74.361 155.816C74.6597 158.422 75.111 162.396 75.5686 166.688C76.5283 175.589 77.5388 185.87 77.3227 187.962C76.9287 191.776 62.6348 221.379 62.6348 221.379L69.1049 224.622C69.1049 224.622 86.996 197.034 88.3434 188.082C89.6908 179.13 89.0807 139.565 89.0807 139.565L73.9987 152.694Z" fill="white"/>
<path d="M91.5213 137.81C91.5213 137.81 109.52 162.517 115.399 172.219C121.844 182.85 131.104 220.762 131.104 220.762L125.003 224.361C125.003 224.361 114.383 190.028 107.321 179.855C99.4277 168.525 79.6489 146.609 79.6489 146.609L91.5213 137.81Z" fill="#263238"/>
<g opacity="0.1">
<path opacity="0.1" d="M91.5213 137.81C91.5213 137.81 109.52 162.517 115.399 172.219C121.844 182.85 131.104 220.762 131.104 220.762L125.003 224.361C125.003 224.361 114.383 190.028 107.321 179.855C99.4277 168.525 79.6489 146.609 79.6489 146.609L91.5213 137.81Z" fill="white"/>
</g>
<path d="M131.371 226.23H126.655C126.579 226.232 126.505 226.26 126.445 226.308C126.385 226.356 126.343 226.423 126.325 226.497L125.53 229.937C125.512 230.021 125.513 230.108 125.533 230.191C125.553 230.274 125.592 230.352 125.647 230.418C125.701 230.484 125.77 230.537 125.848 230.573C125.926 230.608 126.01 230.626 126.096 230.624C127.609 230.624 128.715 230.503 130.628 230.497C131.803 230.497 135.344 230.611 136.983 230.605C138.623 230.598 138.826 228.996 138.166 228.856C135.191 228.22 132.954 227.318 132.007 226.459C131.831 226.307 131.604 226.225 131.371 226.23Z" fill="#263238"/>
<path d="M75.289 117.509C77.5633 119.888 79.63 122.458 81.4667 125.189C81.5683 126.06 82.1785 127.961 82.2103 128.87C81.4412 128.305 79.954 127.078 79.1278 126.543C77.3418 123.097 75.8165 119.461 74.539 117.871L75.289 117.509Z" fill="#407BFF"/>
<path d="M75.7403 118.666L75.6195 116.593L74.0941 116.606L73.395 117.617L75.7403 118.666Z" fill="#407BFF"/>
<path d="M74.037 116.631C72.9178 117.201 71.6889 117.523 70.4341 117.575C69.1794 117.626 67.9282 117.406 66.7661 116.93C67.4017 115.341 66.6708 112.976 65.603 110.846C65.0211 109.684 64.3585 108.564 63.6201 107.495L70.3888 109.517C70.6113 110.839 70.9608 112.06 71.768 112.766C72.1042 113.038 72.4996 113.228 72.9223 113.319C73.3451 113.411 73.7835 113.402 74.2022 113.293C75.0729 113.936 76.2678 115.601 74.037 116.631Z" fill="#E4897B"/>
<path d="M74.0941 116.606C74.0941 116.606 73.7318 118.056 73.2233 119.562C71.412 119.454 67.0584 118.927 66.3211 116.962C66.3346 116.474 66.5191 116.006 66.8423 115.639C69.1921 116.349 71.6406 116.675 74.0941 116.606Z" fill="white"/>
<path d="M74.0942 116.606C75.1004 116.894 76.061 117.322 76.9478 117.878C77.666 116.663 75.0411 113.427 74.4755 113.217C73.6609 112.929 72.7898 112.838 71.9332 112.95C73.0735 113.866 73.8417 115.165 74.0942 116.606Z" fill="white"/>
<path opacity="0.2" d="M71.768 112.766C69.5765 112.71 67.443 112.05 65.603 110.858C65.0211 109.696 64.3585 108.577 63.6201 107.508L70.3888 109.529C70.6113 110.839 70.9608 112.073 71.768 112.766Z" fill="black"/>
<path d="M100.712 149.133L94.1272 150.945L88.3054 144.072L88.0512 153.381L73.395 157.907C73.5648 153.992 73.2338 150.072 72.4099 146.24C72.3781 146.107 72.3463 145.973 72.3019 145.827C71.5773 143.17 69.3083 138.287 66.944 133.563C63.7662 127.205 60.4359 121.145 60.4359 121.145C61.9043 119.495 63.6405 118.105 65.5712 117.032C65.5712 117.032 74.0878 122.621 82.2103 128.864C82.2103 128.864 80.3036 115.245 73.8781 112.403C75.9217 111.302 78.1339 110.548 80.4244 110.172C80.4244 110.172 89.9579 120.789 93.0975 137.956L100.712 149.133Z" fill="#263238"/>
<path opacity="0.1" d="M71.7807 122.512L71.2659 127.682C71.2659 127.682 80.5324 128.146 87.2504 134.485L83.7484 130.511L84.2505 119.823L79.9223 118.367L81.4095 114.412C81.4095 114.412 76.325 111.869 73.8781 112.403C80.2909 115.245 82.2103 128.864 82.2103 128.864C74.0878 122.621 65.5649 117.032 65.5649 117.032C64.7875 119.397 64.6885 121.932 65.2789 124.35L71.7807 122.512Z" fill="white"/>
<path d="M71.412 98.0279C72.4162 99.2105 73.3632 102.103 71.0752 102.002C68.7872 101.9 69.6897 95.9997 71.412 98.0279Z" fill="#263238"/>
<path d="M62.3806 104.011C63.6518 107.603 64.2047 109.733 66.5881 111.1C70.1663 113.096 74.2148 110.089 74.0178 106.179C73.8653 102.663 71.8124 97.3857 67.8274 96.9915C66.9441 96.9032 66.0529 97.0406 65.2372 97.3909C64.4215 97.7412 63.7081 98.2929 63.1637 98.9944C62.6194 99.6959 62.262 100.524 62.1251 101.401C61.9881 102.279 62.076 103.177 62.3806 104.011Z" fill="#E4897B"/>
<path d="M64.0268 101.073L62.3807 97.1632C62.3807 97.1632 58.0842 98.6128 59.1711 100.66C57.347 102.777 59.9528 105.905 63.7916 106.382C64.9166 104.31 63.3404 101.118 63.3404 101.118C63.5565 101.099 63.7916 101.086 64.0268 101.073Z" fill="#263238"/>
<path d="M61.8404 107.463C62.1034 107.856 62.4416 108.192 62.8354 108.453C63.2293 108.714 63.6709 108.894 64.1348 108.983C65.4059 109.212 65.8953 108.067 65.4631 106.942C65.0754 105.937 63.9568 104.602 62.7492 104.875C62.4862 104.942 62.2438 105.073 62.0436 105.256C61.8433 105.44 61.6915 105.669 61.6015 105.926C61.5115 106.182 61.4863 106.456 61.528 106.724C61.5696 106.993 61.677 107.246 61.8404 107.463Z" fill="#E4897B"/>
<path d="M68.2025 103.394C68.2915 103.686 68.514 103.884 68.7111 103.826C68.9082 103.769 68.9908 103.483 68.9082 103.191C68.8255 102.898 68.5967 102.695 68.4059 102.752C68.2152 102.809 68.1198 103.095 68.2025 103.394Z" fill="#263238"/>
<path d="M71.5646 102.396C71.6473 102.695 71.8762 102.885 72.0669 102.828C72.2576 102.771 72.353 102.485 72.264 102.192C72.175 101.9 71.9525 101.703 71.7617 101.76C71.571 101.817 71.4756 102.097 71.5646 102.396Z" fill="#263238"/>
<path d="M70.5477 102.885C71.1638 103.658 71.8847 104.341 72.6895 104.914C72.5228 105.107 72.3173 105.264 72.0863 105.374C71.8553 105.483 71.604 105.543 71.3485 105.549L70.5477 102.885Z" fill="#DE5753"/>
<path d="M70.0392 107.215C70.1741 107.209 70.3082 107.189 70.4396 107.158C70.4638 107.153 70.4853 107.139 70.4995 107.119C70.5137 107.099 70.5196 107.074 70.5158 107.05C70.5087 107.027 70.494 107.008 70.4743 106.996C70.4546 106.983 70.4311 106.977 70.4078 106.98C70.0336 107.07 69.6433 107.069 69.2696 106.977C68.8958 106.885 68.5495 106.705 68.2596 106.452C68.2421 106.437 68.2195 106.428 68.196 106.428C68.1726 106.428 68.15 106.437 68.1325 106.452C68.123 106.461 68.1154 106.471 68.1102 106.482C68.105 106.494 68.1024 106.506 68.1024 106.519C68.1024 106.532 68.105 106.544 68.1102 106.556C68.1154 106.567 68.123 106.577 68.1325 106.586C68.3909 106.815 68.6933 106.988 69.0211 107.097C69.3489 107.205 69.6953 107.245 70.0392 107.215Z" fill="#263238"/>
<path d="M66.5435 102.154C66.5713 102.171 66.6032 102.18 66.6357 102.18C66.6682 102.18 66.7001 102.171 66.7279 102.154C66.9196 102.03 67.1379 101.951 67.3652 101.926C67.5925 101.901 67.8226 101.929 68.0371 102.008C68.0588 102.019 68.0824 102.025 68.1067 102.027C68.1309 102.029 68.1552 102.026 68.1782 102.018C68.2013 102.011 68.2225 101.998 68.2409 101.982C68.2592 101.966 68.2742 101.947 68.285 101.925C68.303 101.881 68.3039 101.832 68.2874 101.787C68.2709 101.743 68.2383 101.706 68.196 101.684C67.9265 101.576 67.6351 101.535 67.3465 101.564C67.0578 101.593 66.7802 101.691 66.5372 101.849C66.5164 101.861 66.4983 101.877 66.4838 101.896C66.4693 101.915 66.4588 101.936 66.4528 101.96C66.4469 101.983 66.4457 102.007 66.4493 102.03C66.4528 102.054 66.4611 102.077 66.4736 102.097C66.4928 102.121 66.5166 102.14 66.5435 102.154Z" fill="#263238"/>
<path d="M72.7531 100.043C72.7657 100.008 72.7657 99.9701 72.7531 99.9352C72.7468 99.8886 72.7228 99.8461 72.6862 99.8166C72.6496 99.787 72.603 99.7726 72.5561 99.7763C72.2691 99.8026 71.9924 99.8972 71.7492 100.052C71.5061 100.207 71.3033 100.417 71.1579 100.666C71.1471 100.688 71.1407 100.711 71.139 100.735C71.1373 100.758 71.1404 100.782 71.1481 100.805C71.1558 100.827 71.168 100.848 71.1838 100.866C71.1997 100.883 71.219 100.898 71.2405 100.908C71.2613 100.919 71.2841 100.926 71.3076 100.928C71.3311 100.93 71.3547 100.927 71.3772 100.92C71.3996 100.913 71.4205 100.902 71.4385 100.887C71.4565 100.871 71.4713 100.853 71.482 100.832C71.5979 100.635 71.7596 100.47 71.9532 100.349C72.1469 100.228 72.3668 100.156 72.5942 100.139C72.6271 100.14 72.6595 100.131 72.6877 100.114C72.7158 100.097 72.7385 100.073 72.7531 100.043Z" fill="#263238"/>
<path d="M62.7938 103.305C62.7938 103.305 64.8594 101.398 65.3869 99.4902C65.3869 99.4902 67.8593 99.1341 68.6982 99.8462C68.8365 99.578 68.8688 99.2676 68.7887 98.9766C68.7086 98.6856 68.5221 98.4355 68.2661 98.2758C68.2661 98.2758 70.0774 97.9261 70.8909 98.9116C71.1112 98.6654 71.2453 98.3541 71.2728 98.0248C71.3003 97.6955 71.2198 97.3663 71.0435 97.0869C71.3797 97.1207 71.7024 97.2371 71.9829 97.4256C72.2634 97.6142 72.4931 97.8691 72.6514 98.1677C72.6514 98.1677 72.8739 93.5518 66.3339 94.9887C66.724 94.6377 67.1683 94.3521 67.6496 94.1431C67.6496 94.1431 62.6921 94.2258 60.0228 97.214C57.3534 100.202 59.1711 102.981 62.7938 103.305Z" fill="#263238"/>
<path d="M66.4991 226.23H61.7896C61.7128 226.232 61.6388 226.26 61.5791 226.308C61.5194 226.356 61.4772 226.423 61.4591 226.497L60.6646 229.937C60.6464 230.02 60.6472 230.106 60.667 230.189C60.6868 230.272 60.7249 230.349 60.7787 230.415C60.8324 230.481 60.9004 230.534 60.9775 230.57C61.0546 230.607 61.1388 230.625 61.2239 230.624C62.7429 230.624 63.8488 230.503 65.7618 230.497C66.9376 230.497 70.4777 230.611 72.1175 230.605C73.7572 230.598 73.9606 228.996 73.2996 228.856C70.3252 228.22 68.088 227.318 67.141 226.459C66.9632 226.305 66.7341 226.224 66.4991 226.23Z" fill="#263238"/>
<path d="M55.1415 231.654C54.2899 231.654 53.4255 231.654 52.5421 231.571C52.4169 231.564 52.2944 231.531 52.1816 231.477C52.0688 231.422 51.9679 231.345 51.8847 231.251C51.8015 231.157 51.7376 231.048 51.6966 230.929C51.6556 230.811 51.6384 230.685 51.6459 230.56C51.6535 230.435 51.6855 230.312 51.7404 230.2C51.7952 230.087 51.8718 229.986 51.9656 229.903C52.0595 229.819 52.1688 229.755 52.2873 229.714C52.4058 229.673 52.5313 229.656 52.6565 229.664C61.5544 230.204 68.6346 227.883 73.7001 222.759C83.6975 212.643 83.2335 194.281 82.8141 188.89C80.6023 158.219 88.013 131.929 88.0893 131.668L88.1401 131.541L130.443 37.8113C131.748 34.9201 133.859 32.4669 136.523 30.7459C139.187 29.025 142.291 28.1094 145.462 28.109H171.329C175.183 28.1028 178.941 29.3108 182.07 31.5614L237.206 71.0954C237.411 71.2429 237.55 71.4662 237.591 71.716C237.632 71.9658 237.572 72.2217 237.425 72.4274C237.277 72.6331 237.054 72.7718 236.805 72.8129C236.555 72.8541 236.299 72.7943 236.093 72.6468L180.958 33.1318C178.153 31.1137 174.784 30.0304 171.329 30.0355H145.462C142.662 30.0339 139.921 30.8406 137.569 32.3585C135.216 33.8765 133.351 36.0414 132.197 38.5934L89.907 132.253C89.5002 133.715 82.5852 159.166 84.7144 188.756C85.2356 195.922 85.35 213.705 75.0538 224.1C70.0964 229.117 63.4103 231.654 55.1415 231.654Z" fill="#407BFF"/>
<path opacity="0.4" d="M55.1415 231.654C54.2899 231.654 53.4255 231.654 52.5421 231.571C52.4169 231.564 52.2944 231.531 52.1816 231.477C52.0688 231.422 51.9679 231.345 51.8847 231.251C51.8015 231.157 51.7376 231.048 51.6966 230.929C51.6556 230.811 51.6384 230.685 51.6459 230.56C51.6535 230.435 51.6855 230.312 51.7404 230.2C51.7952 230.087 51.8718 229.986 51.9656 229.903C52.0595 229.819 52.1688 229.755 52.2873 229.714C52.4058 229.673 52.5313 229.656 52.6565 229.664C61.5544 230.204 68.6346 227.883 73.7001 222.759C83.6975 212.643 83.2335 194.281 82.8141 188.89C80.6023 158.219 88.013 131.929 88.0893 131.668L88.1401 131.541L130.443 37.8113C131.748 34.9201 133.859 32.4669 136.523 30.7459C139.187 29.025 142.291 28.1094 145.462 28.109H171.329C175.183 28.1028 178.941 29.3108 182.07 31.5614L237.206 71.0954C237.411 71.2429 237.55 71.4662 237.591 71.716C237.632 71.9658 237.572 72.2217 237.425 72.4274C237.277 72.6331 237.054 72.7718 236.805 72.8129C236.555 72.8541 236.299 72.7943 236.093 72.6468L180.958 33.1318C178.153 31.1137 174.784 30.0304 171.329 30.0355H145.462C142.662 30.0339 139.921 30.8406 137.569 32.3585C135.216 33.8765 133.351 36.0414 132.197 38.5934L89.907 132.253C89.5002 133.715 82.5852 159.166 84.7144 188.756C85.2356 195.922 85.35 213.705 75.0538 224.1C70.0964 229.117 63.4103 231.654 55.1415 231.654Z" fill="white"/>
<path opacity="0.3" d="M87.6253 131.929C87.6253 131.929 79.4455 142.197 72.3018 145.827C71.5772 143.17 69.3083 138.287 66.944 133.563C67.9037 130.873 68.8507 128.864 68.8507 128.864C70.3008 130.107 71.596 131.52 72.7085 133.073C77.2815 132.725 81.7896 131.783 86.119 130.269L87.6253 131.929Z" fill="black"/>
<path d="M88.5724 129.303C88.5724 129.303 85.1085 128.667 84.848 130.441L85.6106 132.622L89.0046 133.48C89.2784 133.551 89.5684 133.524 89.8244 133.404L91.3117 132.704C91.5016 132.615 91.6652 132.477 91.7866 132.306C91.9079 132.134 91.983 131.934 92.0044 131.725L92.157 130.225C92.1783 130.035 92.1547 129.842 92.088 129.663C92.0213 129.483 91.9134 129.322 91.773 129.192C91.6326 129.062 91.4636 128.967 91.2797 128.915C91.0958 128.862 90.9021 128.853 90.7142 128.89L88.5724 129.303Z" fill="#E4897B"/>
<path d="M85.4961 133.588L86.4686 133.092L84.6445 130.269L83.6721 130.93L85.4961 133.588Z" fill="#407BFF"/>
<path opacity="0.7" d="M85.4961 133.588L86.4686 133.092L84.6445 130.269L83.6721 130.93L85.4961 133.588Z" fill="white"/>
<path d="M60.4295 121.146C59.3872 123.053 65.6157 139.546 68.0563 141.536C71.1388 144.002 86.4368 134.04 86.4368 134.04L83.723 130.511C83.723 130.511 71.6472 134.847 71.1324 134.485C70.6176 134.122 68.533 128.127 68.533 128.127C68.533 128.127 66.4165 124.871 64.1666 123.186C63.0587 122.279 61.7913 121.587 60.4295 121.146Z" fill="#263238"/>
<path d="M144.553 28.6558C142.004 28.6558 139.512 29.412 137.392 30.8289C135.272 32.2457 133.62 34.2594 132.645 36.6155C131.669 38.9716 131.414 41.5641 131.911 44.0653C132.409 46.5665 133.636 48.864 135.439 50.6673C137.241 52.4705 139.538 53.6985 142.038 54.1961C144.539 54.6936 147.13 54.4382 149.485 53.4623C151.841 52.4864 153.854 50.8338 155.27 48.7133C156.686 46.5929 157.442 44.1 157.442 41.5498C157.44 38.1306 156.082 34.852 153.665 32.4342C151.248 30.0165 147.971 28.6575 144.553 28.6558ZM136.926 43.8133C136.479 43.8133 136.041 43.6805 135.669 43.4318C135.297 43.1831 135.007 42.8296 134.836 42.416C134.664 42.0024 134.62 41.5473 134.707 41.1082C134.794 40.6692 135.01 40.2659 135.326 39.9493C135.643 39.6328 136.046 39.4172 136.485 39.3299C136.924 39.2425 137.379 39.2874 137.792 39.4587C138.205 39.63 138.559 39.9201 138.807 40.2923C139.056 40.6645 139.189 41.1022 139.189 41.5498C139.189 42.1501 138.95 42.7258 138.526 43.1503C138.102 43.5748 137.526 43.8133 136.926 43.8133ZM144.553 51.4429C144.105 51.4429 143.668 51.3101 143.296 51.0614C142.924 50.8127 142.634 50.4592 142.463 50.0456C142.291 49.632 142.246 49.1769 142.334 48.7378C142.421 48.2988 142.637 47.8955 142.953 47.5789C143.269 47.2624 143.673 47.0468 144.111 46.9595C144.55 46.8721 145.005 46.9169 145.419 47.0883C145.832 47.2596 146.186 47.5497 146.434 47.9219C146.683 48.2941 146.816 48.7317 146.816 49.1794C146.816 49.7797 146.577 50.3554 146.153 50.7799C145.728 51.2044 145.153 51.4429 144.553 51.4429ZM144.553 36.1837C144.105 36.1837 143.668 36.0509 143.296 35.8022C142.924 35.5535 142.634 35.2 142.463 34.7864C142.291 34.3728 142.246 33.9177 142.334 33.4787C142.421 33.0396 142.637 32.6363 142.953 32.3197C143.269 32.0032 143.673 31.7876 144.111 31.7003C144.55 31.613 145.005 31.6578 145.419 31.8291C145.832 32.0004 146.186 32.2905 146.434 32.6627C146.683 33.035 146.816 33.4726 146.816 33.9202C146.816 34.218 146.758 34.513 146.645 34.7884C146.532 35.0637 146.365 35.314 146.155 35.5248C145.945 35.7357 145.695 35.903 145.42 36.0171C145.145 36.1313 144.851 36.19 144.553 36.19V36.1837ZM152.18 43.8133C151.732 43.8133 151.295 43.6805 150.923 43.4318C150.551 43.1831 150.261 42.8296 150.089 42.416C149.918 42.0024 149.873 41.5473 149.961 41.1082C150.048 40.6692 150.263 40.2659 150.58 39.9493C150.896 39.6328 151.299 39.4172 151.738 39.3299C152.177 39.2425 152.632 39.2874 153.046 39.4587C153.459 39.63 153.812 39.9201 154.061 40.2923C154.31 40.6645 154.442 41.1022 154.442 41.5498C154.442 41.8476 154.384 42.1424 154.269 42.4175C154.155 42.6925 153.988 42.9423 153.777 43.1526C153.567 43.3628 153.316 43.5294 153.041 43.6428C152.766 43.7562 152.471 43.8141 152.173 43.8133H152.18Z" fill="#263238"/>
<path opacity="0.4" d="M144.553 28.6558C142.004 28.6558 139.512 29.412 137.392 30.8289C135.272 32.2457 133.62 34.2594 132.645 36.6155C131.669 38.9716 131.414 41.5641 131.911 44.0653C132.409 46.5665 133.636 48.864 135.439 50.6673C137.241 52.4705 139.538 53.6985 142.038 54.1961C144.539 54.6936 147.13 54.4382 149.485 53.4623C151.841 52.4864 153.854 50.8338 155.27 48.7133C156.686 46.5929 157.442 44.1 157.442 41.5498C157.44 38.1306 156.082 34.852 153.665 32.4342C151.248 30.0165 147.971 28.6575 144.553 28.6558ZM136.926 43.8133C136.479 43.8133 136.041 43.6805 135.669 43.4318C135.297 43.1831 135.007 42.8296 134.836 42.416C134.664 42.0024 134.62 41.5473 134.707 41.1082C134.794 40.6692 135.01 40.2659 135.326 39.9493C135.643 39.6328 136.046 39.4172 136.485 39.3299C136.924 39.2425 137.379 39.2874 137.792 39.4587C138.205 39.63 138.559 39.9201 138.807 40.2923C139.056 40.6645 139.189 41.1022 139.189 41.5498C139.189 42.1501 138.95 42.7258 138.526 43.1503C138.102 43.5748 137.526 43.8133 136.926 43.8133ZM144.553 51.4429C144.105 51.4429 143.668 51.3101 143.296 51.0614C142.924 50.8127 142.634 50.4592 142.463 50.0456C142.291 49.632 142.246 49.1769 142.334 48.7378C142.421 48.2988 142.637 47.8955 142.953 47.5789C143.269 47.2624 143.673 47.0468 144.111 46.9595C144.55 46.8721 145.005 46.9169 145.419 47.0883C145.832 47.2596 146.186 47.5497 146.434 47.9219C146.683 48.2941 146.816 48.7317 146.816 49.1794C146.816 49.7797 146.577 50.3554 146.153 50.7799C145.728 51.2044 145.153 51.4429 144.553 51.4429ZM144.553 36.1837C144.105 36.1837 143.668 36.0509 143.296 35.8022C142.924 35.5535 142.634 35.2 142.463 34.7864C142.291 34.3728 142.246 33.9177 142.334 33.4787C142.421 33.0396 142.637 32.6363 142.953 32.3197C143.269 32.0032 143.673 31.7876 144.111 31.7003C144.55 31.613 145.005 31.6578 145.419 31.8291C145.832 32.0004 146.186 32.2905 146.434 32.6627C146.683 33.035 146.816 33.4726 146.816 33.9202C146.816 34.218 146.758 34.513 146.645 34.7884C146.532 35.0637 146.365 35.314 146.155 35.5248C145.945 35.7357 145.695 35.903 145.42 36.0171C145.145 36.1313 144.851 36.19 144.553 36.19V36.1837ZM152.18 43.8133C151.732 43.8133 151.295 43.6805 150.923 43.4318C150.551 43.1831 150.261 42.8296 150.089 42.416C149.918 42.0024 149.873 41.5473 149.961 41.1082C150.048 40.6692 150.263 40.2659 150.58 39.9493C150.896 39.6328 151.299 39.4172 151.738 39.3299C152.177 39.2425 152.632 39.2874 153.046 39.4587C153.459 39.63 153.812 39.9201 154.061 40.2923C154.31 40.6645 154.442 41.1022 154.442 41.5498C154.442 41.8476 154.384 42.1424 154.269 42.4175C154.155 42.6925 153.988 42.9423 153.777 43.1526C153.567 43.3628 153.316 43.5294 153.041 43.6428C152.766 43.7562 152.471 43.8141 152.173 43.8133H152.18Z" fill="white"/>
<path opacity="0.2" d="M144.553 45.8161C146.908 45.8161 148.818 43.906 148.818 41.5498C148.818 39.1937 146.908 37.2836 144.553 37.2836C142.198 37.2836 140.288 39.1937 140.288 41.5498C140.288 43.906 142.198 45.8161 144.553 45.8161Z" fill="black"/>
<g opacity="0.2">
<path opacity="0.2" d="M144.553 53.541C142.182 53.541 139.865 52.8377 137.893 51.5201C135.922 50.2025 134.386 48.3297 133.479 46.1386C132.571 43.9475 132.334 41.5365 132.796 39.2105C133.259 36.8844 134.401 34.7478 136.077 33.0708C137.753 31.3938 139.889 30.2517 142.214 29.7891C144.54 29.3264 146.95 29.5639 149.14 30.4714C151.33 31.379 153.202 32.916 154.52 34.8879C155.837 36.8598 156.54 39.1782 156.54 41.5498C156.536 44.7291 155.272 47.7771 153.025 50.0251C150.778 52.2732 147.731 53.5376 144.553 53.541ZM144.553 30.328C142.334 30.3267 140.165 30.9838 138.319 32.2161C136.473 33.4484 135.035 35.2006 134.185 37.251C133.335 39.3014 133.111 41.558 133.544 43.7352C133.976 45.9124 135.044 47.9126 136.612 49.4826C138.181 51.0527 140.18 52.1221 142.356 52.5556C144.532 52.9891 146.788 52.7672 148.838 51.9181C150.888 51.0689 152.64 49.6306 153.873 47.785C155.106 45.9395 155.764 43.7696 155.764 41.5498C155.761 38.5757 154.579 35.7243 152.477 33.6207C150.376 31.5171 147.526 30.333 144.553 30.328Z" fill="black"/>
</g>
<path d="M144.553 45.0976C146.512 45.0976 148.099 43.5092 148.099 41.5499C148.099 39.5905 146.512 38.0021 144.553 38.0021C142.594 38.0021 141.006 39.5905 141.006 41.5499C141.006 43.5092 142.594 45.0976 144.553 45.0976Z" fill="#263238"/>
<path d="M171.406 28.6558C168.857 28.6596 166.367 29.419 164.25 30.8381C162.133 32.2572 160.484 34.2723 159.511 36.6287C158.538 38.9851 158.286 41.5771 158.785 44.077C159.285 46.5769 160.514 48.8726 162.317 50.674C164.121 52.4753 166.417 53.7015 168.917 54.1975C171.417 54.6934 174.007 54.437 176.362 53.4605C178.716 52.484 180.728 50.8314 182.143 48.7114C183.558 46.5914 184.314 44.0992 184.314 41.5498C184.314 39.855 183.98 38.1767 183.331 36.6111C182.682 35.0455 181.731 33.6232 180.532 32.4257C179.333 31.2281 177.91 30.2787 176.344 29.6319C174.778 28.985 173.1 28.6533 171.406 28.6558ZM163.779 43.8133C163.331 43.8133 162.894 43.6805 162.522 43.4318C162.15 43.1831 161.86 42.8296 161.688 42.416C161.517 42.0024 161.472 41.5473 161.56 41.1083C161.647 40.6692 161.862 40.2659 162.179 39.9493C162.495 39.6328 162.898 39.4172 163.337 39.3299C163.776 39.2426 164.231 39.2874 164.645 39.4587C165.058 39.63 165.411 39.9201 165.66 40.2923C165.909 40.6646 166.041 41.1022 166.041 41.5498C166.041 42.149 165.804 42.7238 165.381 43.1481C164.958 43.5724 164.384 43.8116 163.785 43.8133H163.779ZM171.406 51.4429C170.958 51.4429 170.521 51.3101 170.148 51.0614C169.776 50.8127 169.486 50.4592 169.315 50.0456C169.144 49.632 169.099 49.1769 169.186 48.7379C169.274 48.2988 169.489 47.8955 169.806 47.5789C170.122 47.2624 170.525 47.0468 170.964 46.9595C171.403 46.8721 171.858 46.917 172.271 47.0883C172.685 47.2596 173.038 47.5497 173.287 47.9219C173.535 48.2941 173.668 48.7318 173.668 49.1794C173.666 49.7792 173.428 50.354 173.004 50.7781C172.58 51.2022 172.005 51.4412 171.406 51.4429ZM171.406 36.1837C170.958 36.1837 170.521 36.0509 170.148 35.8022C169.776 35.5535 169.486 35.2 169.315 34.7864C169.144 34.3728 169.099 33.9177 169.186 33.4787C169.274 33.0396 169.489 32.6363 169.806 32.3198C170.122 32.0032 170.525 31.7876 170.964 31.7003C171.403 31.613 171.858 31.6578 172.271 31.8291C172.685 32.0004 173.038 32.2905 173.287 32.6627C173.535 33.035 173.668 33.4726 173.668 33.9203C173.668 34.5211 173.43 35.0975 173.006 35.523C172.582 35.9485 172.006 36.1884 171.406 36.1901V36.1837ZM179.032 43.8133C178.585 43.8133 178.147 43.6805 177.775 43.4318C177.403 43.1831 177.113 42.8296 176.942 42.416C176.771 42.0024 176.726 41.5473 176.813 41.1083C176.9 40.6692 177.116 40.2659 177.432 39.9493C177.749 39.6328 178.152 39.4172 178.591 39.3299C179.03 39.2426 179.485 39.2874 179.898 39.4587C180.312 39.63 180.665 39.9201 180.914 40.2923C181.162 40.6646 181.295 41.1022 181.295 41.5498C181.295 42.1501 181.057 42.7259 180.632 43.1503C180.208 43.5748 179.632 43.8133 179.032 43.8133Z" fill="#263238"/>
<path opacity="0.4" d="M171.406 28.6558C168.857 28.6596 166.367 29.419 164.25 30.8381C162.133 32.2572 160.484 34.2723 159.511 36.6287C158.538 38.9851 158.286 41.5771 158.785 44.077C159.285 46.5769 160.514 48.8726 162.317 50.674C164.121 52.4753 166.417 53.7015 168.917 54.1975C171.417 54.6934 174.007 54.437 176.362 53.4605C178.716 52.484 180.728 50.8314 182.143 48.7114C183.558 46.5914 184.314 44.0992 184.314 41.5498C184.314 39.855 183.98 38.1767 183.331 36.6111C182.682 35.0455 181.731 33.6232 180.532 32.4257C179.333 31.2281 177.91 30.2787 176.344 29.6319C174.778 28.985 173.1 28.6533 171.406 28.6558ZM163.779 43.8133C163.331 43.8133 162.894 43.6805 162.522 43.4318C162.15 43.1831 161.86 42.8296 161.688 42.416C161.517 42.0024 161.472 41.5473 161.56 41.1083C161.647 40.6692 161.862 40.2659 162.179 39.9493C162.495 39.6328 162.898 39.4172 163.337 39.3299C163.776 39.2426 164.231 39.2874 164.645 39.4587C165.058 39.63 165.411 39.9201 165.66 40.2923C165.909 40.6646 166.041 41.1022 166.041 41.5498C166.041 42.149 165.804 42.7238 165.381 43.1481C164.958 43.5724 164.384 43.8116 163.785 43.8133H163.779ZM171.406 51.4429C170.958 51.4429 170.521 51.3101 170.148 51.0614C169.776 50.8127 169.486 50.4592 169.315 50.0456C169.144 49.632 169.099 49.1769 169.186 48.7379C169.274 48.2988 169.489 47.8955 169.806 47.5789C170.122 47.2624 170.525 47.0468 170.964 46.9595C171.403 46.8721 171.858 46.917 172.271 47.0883C172.685 47.2596 173.038 47.5497 173.287 47.9219C173.535 48.2941 173.668 48.7318 173.668 49.1794C173.666 49.7792 173.428 50.354 173.004 50.7781C172.58 51.2022 172.005 51.4412 171.406 51.4429ZM171.406 36.1837C170.958 36.1837 170.521 36.0509 170.148 35.8022C169.776 35.5535 169.486 35.2 169.315 34.7864C169.144 34.3728 169.099 33.9177 169.186 33.4787C169.274 33.0396 169.489 32.6363 169.806 32.3198C170.122 32.0032 170.525 31.7876 170.964 31.7003C171.403 31.613 171.858 31.6578 172.271 31.8291C172.685 32.0004 173.038 32.2905 173.287 32.6627C173.535 33.035 173.668 33.4726 173.668 33.9203C173.668 34.5211 173.43 35.0975 173.006 35.523C172.582 35.9485 172.006 36.1884 171.406 36.1901V36.1837ZM179.032 43.8133C178.585 43.8133 178.147 43.6805 177.775 43.4318C177.403 43.1831 177.113 42.8296 176.942 42.416C176.771 42.0024 176.726 41.5473 176.813 41.1083C176.9 40.6692 177.116 40.2659 177.432 39.9493C177.749 39.6328 178.152 39.4172 178.591 39.3299C179.03 39.2426 179.485 39.2874 179.898 39.4587C180.312 39.63 180.665 39.9201 180.914 40.2923C181.162 40.6646 181.295 41.1022 181.295 41.5498C181.295 42.1501 181.057 42.7259 180.632 43.1503C180.208 43.5748 179.632 43.8133 179.032 43.8133Z" fill="white"/>
<path opacity="0.2" d="M175.67 41.5498C175.67 42.3936 175.42 43.2184 174.951 43.92C174.483 44.6216 173.817 45.1684 173.038 45.4913C172.258 45.8142 171.401 45.8987 170.574 45.7341C169.746 45.5695 168.986 45.1632 168.39 44.5665C167.794 43.9699 167.387 43.2097 167.223 42.3821C167.058 41.5546 167.143 40.6968 167.465 39.9172C167.788 39.1377 168.335 38.4714 169.036 38.0026C169.738 37.5338 170.562 37.2836 171.406 37.2836C171.966 37.2828 172.521 37.3926 173.039 37.6067C173.556 37.8208 174.027 38.135 174.423 38.5313C174.819 38.9276 175.133 39.3983 175.347 39.9162C175.561 40.4342 175.671 40.9894 175.67 41.5498Z" fill="black"/>
<g opacity="0.2">
<path opacity="0.2" d="M171.406 53.541C169.035 53.5397 166.718 52.8354 164.748 51.517C162.777 50.1987 161.242 48.3255 160.336 46.1342C159.43 43.943 159.193 41.5322 159.656 39.2066C160.12 36.8809 161.262 34.7449 162.938 33.0685C164.615 31.3922 166.751 30.2508 169.076 29.7886C171.401 29.3264 173.811 29.5643 176.001 30.472C178.19 31.3798 180.062 32.9168 181.379 34.8886C182.696 36.8604 183.399 39.1785 183.399 41.5498C183.395 44.7301 182.13 47.7792 179.882 50.0274C177.633 52.2756 174.585 53.5393 171.406 53.541ZM171.406 30.328C169.187 30.328 167.018 30.9861 165.173 32.2192C163.329 33.4523 161.891 35.2049 161.042 37.2554C160.193 39.3059 159.971 41.5623 160.403 43.7391C160.836 45.9159 161.905 47.9155 163.473 49.4849C165.042 51.0543 167.041 52.1231 169.217 52.5561C171.393 52.9891 173.649 52.7668 175.698 51.9175C177.748 51.0681 179.5 49.6298 180.733 47.7844C181.965 45.9389 182.623 43.7693 182.623 41.5498C182.622 38.5741 181.439 35.7208 179.336 33.6166C177.232 31.5125 174.38 30.3297 171.406 30.328Z" fill="black"/>
</g>
<path d="M171.406 45.0976C173.364 45.0976 174.952 43.5092 174.952 41.5499C174.952 39.5905 173.364 38.0021 171.406 38.0021C169.447 38.0021 167.859 39.5905 167.859 41.5499C167.859 43.5092 169.447 45.0976 171.406 45.0976Z" fill="#263238"/>
<path d="M171.386 34.9948C170.017 34.9977 168.691 34.5152 167.644 33.6329C166.597 32.7506 165.896 31.5256 165.666 30.1754L164.058 20.7402H151.9L150.286 30.1754C150.056 31.5256 149.355 32.7506 148.308 33.6329C147.261 34.5152 145.935 34.9977 144.566 34.9948C142.845 34.9754 141.185 35.6293 139.939 36.8171C138.694 38.0049 137.961 39.6325 137.899 41.3528C137.883 42.211 138.039 43.0636 138.357 43.8609C138.674 44.6583 139.148 45.3844 139.749 45.9969C140.35 46.6094 141.067 47.0961 141.858 47.4285C142.649 47.761 143.498 47.9326 144.356 47.9333H171.603C172.461 47.9326 173.31 47.761 174.101 47.4285C174.892 47.0961 175.609 46.6094 176.21 45.9969C176.811 45.3844 177.284 44.6583 177.602 43.8609C177.919 43.0636 178.075 42.211 178.06 41.3528C177.997 39.6314 177.264 38.0028 176.017 36.8149C174.77 35.6269 173.108 34.9737 171.386 34.9948Z" fill="#263238"/>
<path opacity="0.2" d="M171.386 34.9948C170.017 34.9977 168.691 34.5152 167.644 33.6329C166.597 32.7506 165.896 31.5256 165.666 30.1754L164.058 20.7402H151.9L150.286 30.1754C150.056 31.5256 149.355 32.7506 148.308 33.6329C147.261 34.5152 145.935 34.9977 144.566 34.9948C142.845 34.9754 141.185 35.6293 139.939 36.8171C138.694 38.0049 137.961 39.6325 137.899 41.3528C137.883 42.211 138.039 43.0636 138.357 43.8609C138.674 44.6583 139.148 45.3844 139.749 45.9969C140.35 46.6094 141.067 47.0961 141.858 47.4285C142.649 47.761 143.498 47.9326 144.356 47.9333H171.603C172.461 47.9326 173.31 47.761 174.101 47.4285C174.892 47.0961 175.609 46.6094 176.21 45.9969C176.811 45.3844 177.284 44.6583 177.602 43.8609C177.919 43.0636 178.075 42.211 178.06 41.3528C177.997 39.6314 177.264 38.0028 176.017 36.8149C174.77 35.6269 173.108 34.9737 171.386 34.9948Z" fill="white"/>
<path opacity="0.4" d="M144.553 45.0976C146.512 45.0976 148.099 43.5092 148.099 41.5499C148.099 39.5905 146.512 38.0021 144.553 38.0021C142.594 38.0021 141.006 39.5905 141.006 41.5499C141.006 43.5092 142.594 45.0976 144.553 45.0976Z" fill="white"/>
<path opacity="0.4" d="M171.406 45.0976C173.364 45.0976 174.952 43.5092 174.952 41.5499C174.952 39.5905 173.364 38.0021 171.406 38.0021C169.447 38.0021 167.859 39.5905 167.859 41.5499C167.859 43.5092 169.447 45.0976 171.406 45.0976Z" fill="white"/>
<path d="M148.087 19.8182H167.859V22.9972C167.849 23.2789 167.73 23.5457 167.528 23.7415C167.325 23.9372 167.054 24.0465 166.772 24.0463H149.186C148.9 24.0497 148.624 23.9402 148.418 23.7414C148.213 23.5426 148.093 23.2706 148.087 22.9845V19.8055V19.8182Z" fill="#263238"/>
<path opacity="0.4" d="M148.087 19.8182H167.859V22.9972C167.849 23.2789 167.73 23.5457 167.528 23.7415C167.325 23.9372 167.054 24.0465 166.772 24.0463H149.186C148.9 24.0497 148.624 23.9402 148.418 23.7414C148.213 23.5426 148.093 23.2706 148.087 22.9845V19.8055V19.8182Z" fill="white"/>
</svg>
