<svg width="318" height="237" viewBox="0 0 318 237" fill="none" xmlns="http://www.w3.org/2000/svg">
<path d="M317.783 208.161H0V208.32H317.783V208.161Z" fill="#EBEBEB"/>
<path d="M285.941 218.391H264.891V218.55H285.941V218.391Z" fill="#EBEBEB"/>
<path d="M210.512 220.12H204.989V220.279H210.512V220.12Z" fill="#EBEBEB"/>
<path d="M264.255 212.49H252.059V212.649H264.255V212.49Z" fill="#EBEBEB"/>
<path d="M60.7919 213.559H33.3418V213.718H60.7919V213.559Z" fill="#EBEBEB"/>
<path d="M70.4777 213.559H66.4546V213.718H70.4777V213.559Z" fill="#EBEBEB"/>
<path d="M143.097 216.242H83.5577V216.401H143.097V216.242Z" fill="#EBEBEB"/>
<path d="M150.629 179.804H27.9076C26.9462 179.802 26.0248 179.419 25.3456 178.738C24.6664 178.058 24.2849 177.135 24.2849 176.174V3.59868C24.2933 2.64246 24.6785 1.72815 25.3568 1.05435C26.0351 0.38056 26.9517 0.0016991 27.9076 6.10352e-05H150.629C151.591 6.10352e-05 152.514 0.38255 153.195 1.06338C153.876 1.74422 154.258 2.66763 154.258 3.63047V176.174C154.258 177.136 153.876 178.06 153.195 178.741C152.514 179.422 151.591 179.804 150.629 179.804ZM27.9076 0.127221C26.9884 0.128906 26.1074 0.49539 25.458 1.14623C24.8085 1.79708 24.4438 2.67909 24.4438 3.59868V176.174C24.4438 177.093 24.8085 177.975 25.458 178.626C26.1074 179.277 26.9884 179.643 27.9076 179.645H150.629C151.549 179.643 152.43 179.277 153.081 178.626C153.731 177.976 154.097 177.094 154.099 176.174V3.59868C154.097 2.67851 153.731 1.79651 153.081 1.14584C152.43 0.495183 151.549 0.128902 150.629 0.127221H27.9076Z" fill="#EBEBEB"/>
<path d="M288.108 179.804H165.38C164.418 179.802 163.496 179.419 162.816 178.739C162.136 178.058 161.753 177.136 161.751 176.174V3.59868C161.761 2.64188 162.148 1.72758 162.827 1.05396C163.507 0.380338 164.424 0.00168124 165.38 6.10352e-05H288.108C289.063 0.00337005 289.978 0.38297 290.655 1.05659C291.332 1.7302 291.716 2.64356 291.724 3.59868V176.174C291.724 177.134 291.344 178.056 290.666 178.736C289.988 179.417 289.068 179.801 288.108 179.804ZM165.38 0.127221C164.461 0.128902 163.579 0.495183 162.928 1.14584C162.278 1.79651 161.912 2.67851 161.91 3.59868V176.174C161.912 177.094 162.278 177.976 162.928 178.626C163.579 179.277 164.461 179.643 165.38 179.645H288.108C289.028 179.643 289.91 179.277 290.56 178.626C291.21 177.976 291.577 177.094 291.578 176.174V3.59868C291.577 2.67851 291.21 1.79651 290.56 1.14584C289.91 0.495183 289.028 0.128902 288.108 0.127221H165.38Z" fill="#EBEBEB"/>
<path d="M159.419 206.794H252.51L252.51 70.2558H159.419V206.794Z" fill="#F0F0F0"/>
<path d="M162.705 99.776L249.218 99.776V74.5602L162.705 74.5602V99.776Z" fill="#E0E0E0"/>
<path d="M244.305 99.776H249.218V78.642H244.305V99.776Z" fill="#EBEBEB"/>
<path d="M220.548 99.776H225.46V78.642H220.548V99.776Z" fill="#EBEBEB"/>
<path d="M189.982 98.9384L194.824 99.7733L198.412 78.9465L193.571 78.1116L189.982 98.9384Z" fill="#EBEBEB"/>
<path d="M238.216 99.776H243.129V81.4268H238.216V99.776Z" fill="#EBEBEB"/>
<path d="M226.922 99.776H231.835V81.4268H226.922V99.776Z" fill="#EBEBEB"/>
<path d="M198.411 99.776H203.324V81.4268H198.411V99.776Z" fill="#EBEBEB"/>
<path d="M210.117 98.7029L214.913 99.7691L218.892 81.857L214.096 80.7908L210.117 98.7029Z" fill="#EBEBEB"/>
<path d="M233.964 99.776H236.424V77.5929H233.964V99.776Z" fill="#EBEBEB"/>
<path d="M204.735 99.776H207.194V77.5929H204.735V99.776Z" fill="#EBEBEB"/>
<path d="M249.224 103.769H162.711V128.985H249.224V103.769Z" fill="#E0E0E0"/>
<path d="M167.624 107.851H162.711V128.985H167.624V107.851Z" fill="#EBEBEB"/>
<path d="M191.388 107.851H186.475V128.985H191.388V107.851Z" fill="#EBEBEB"/>
<path d="M218.362 107.311L213.52 108.146L217.109 128.973L221.95 128.138L218.362 107.311Z" fill="#EBEBEB"/>
<path d="M173.713 110.635H168.8V128.985H173.713V110.635Z" fill="#EBEBEB"/>
<path d="M185.007 110.635H180.094V128.985H185.007V110.635Z" fill="#EBEBEB"/>
<path d="M213.518 110.635H208.605V128.985H213.518V110.635Z" fill="#EBEBEB"/>
<path d="M197.843 109.997L193.047 111.064L197.027 128.976L201.823 127.909L197.843 109.997Z" fill="#EBEBEB"/>
<path d="M177.965 106.802H175.505V128.985H177.965V106.802Z" fill="#EBEBEB"/>
<path d="M207.194 106.802H204.734V128.985H207.194V106.802Z" fill="#EBEBEB"/>
<path d="M244.305 128.985H249.218V107.851H244.305V128.985Z" fill="#EBEBEB"/>
<path d="M238.216 128.985H243.129V110.635H238.216V128.985Z" fill="#EBEBEB"/>
<path d="M226.922 128.985H231.835V110.635H226.922V128.985Z" fill="#EBEBEB"/>
<path d="M233.964 128.985H236.424V106.802H233.964V128.985Z" fill="#EBEBEB"/>
<path d="M162.705 158.193H249.218V132.977H162.705V158.193Z" fill="#E0E0E0"/>
<path d="M194.655 158.193H199.568V137.059H194.655V158.193Z" fill="#EBEBEB"/>
<path d="M164.094 157.353L168.935 158.188L172.524 137.361L167.682 136.526L164.094 157.353Z" fill="#EBEBEB"/>
<path d="M212.33 158.193H217.243V139.844H212.33V158.193Z" fill="#EBEBEB"/>
<path d="M201.029 158.193H205.942V139.844H201.029V158.193Z" fill="#EBEBEB"/>
<path d="M172.518 158.193H177.431V139.844H172.518V158.193Z" fill="#EBEBEB"/>
<path d="M184.228 157.117L189.023 158.183L193.003 140.271L188.207 139.205L184.228 157.117Z" fill="#EBEBEB"/>
<path d="M208.071 158.193H210.531V136.01H208.071V158.193Z" fill="#EBEBEB"/>
<path d="M178.842 158.193H181.301V136.01H178.842V158.193Z" fill="#EBEBEB"/>
<path d="M220.635 157.352L225.477 158.187L229.065 137.36L224.224 136.525L220.635 157.352Z" fill="#EBEBEB"/>
<path d="M229.058 158.193H233.971V139.844H229.058V158.193Z" fill="#EBEBEB"/>
<path d="M240.773 157.118L245.569 158.185L249.548 140.272L244.752 139.206L240.773 157.118Z" fill="#EBEBEB"/>
<path d="M235.382 158.193H237.841V136.01H235.382V158.193Z" fill="#EBEBEB"/>
<path d="M268.571 70.2622H252.51V207.156H268.571V70.2622Z" fill="#E0E0E0"/>
<path d="M120.071 51.7731L95.7098 37.5948H76.9479L52.1863 51.0992V142.972H120.071V51.7731Z" fill="#E0E0E0"/>
<path d="M51.4808 51.7732L52.18 51.0992C61.2082 42.3999 73.2662 37.5566 85.8014 37.5949C98.3276 37.5639 110.375 42.4066 119.397 51.0992L120.096 51.7732V142.972H51.4808V51.7732ZM115.514 53.7251C107.398 46.2784 96.7856 42.1471 85.7728 42.1471C74.7599 42.1471 64.1475 46.2784 56.0315 53.7251V138.42H115.514V53.7251Z" fill="#FAFAFA"/>
<path d="M87.4856 138.967H84.0726V108.48H55.1735V105.066H84.0726V73.8799H55.1735V70.4657H84.0726V41.5559H87.4856V70.4657H116.385V73.8799H87.4856V105.066H116.385V108.48H87.4856V138.967Z" fill="#F0F0F0"/>
<path d="M49.2118 50.8639L49.8474 50.1964C59.3791 40.6842 72.2931 35.3422 85.7568 35.3422C99.2204 35.3422 112.134 40.6842 121.666 50.1964L122.346 50.8639V145.248H49.2118V50.8639ZM117.796 52.7713C109.18 44.5148 97.71 39.9055 85.779 39.9055C73.848 39.9055 62.378 44.5148 53.7624 52.7713V140.696H117.796V52.7713Z" fill="#F0F0F0"/>
<path d="M212.635 53.2849C218.63 52.5464 222.892 47.0854 222.154 41.0876C221.416 35.0897 215.957 30.8262 209.961 31.5648C203.965 32.3034 199.703 37.7643 200.442 43.7622C201.18 49.76 206.639 54.0235 212.635 53.2849Z" fill="#E0E0E0"/>
<path d="M212.203 51.7079C217.313 51.2021 221.046 46.6478 220.541 41.5356C220.035 36.4233 215.483 32.689 210.372 33.1948C205.262 33.7006 201.529 38.2549 202.034 43.3671C202.54 48.4794 207.093 52.2137 212.203 51.7079Z" fill="#F0F0F0"/>
<path d="M211.732 36.0499V42.5541L216.041 40.119" fill="#F0F0F0"/>
<path d="M211.732 43.1899C211.618 43.1919 211.505 43.161 211.408 43.1009C211.313 43.0446 211.235 42.9646 211.18 42.8687C211.125 42.7729 211.097 42.6644 211.097 42.5541V36.0499C211.097 35.8812 211.164 35.7195 211.283 35.6003C211.402 35.481 211.564 35.4141 211.732 35.4141C211.901 35.4141 212.062 35.481 212.182 35.6003C212.301 35.7195 212.368 35.8812 212.368 36.0499V41.4669L215.723 39.5595C215.796 39.5174 215.876 39.4902 215.959 39.4792C216.042 39.4683 216.127 39.474 216.208 39.4958C216.289 39.5177 216.365 39.5553 216.431 39.6066C216.497 39.6579 216.553 39.7219 216.594 39.7947C216.636 39.8677 216.663 39.9482 216.673 40.0316C216.684 40.115 216.678 40.1997 216.655 40.2807C216.633 40.3617 216.594 40.4374 216.542 40.5035C216.491 40.5696 216.426 40.6248 216.353 40.6658L212.044 43.1009C211.949 43.157 211.842 43.1876 211.732 43.1899Z" fill="#E0E0E0"/>
<path d="M158.891 236.873C226.949 236.873 282.121 233.651 282.121 229.676C282.121 225.701 226.949 222.479 158.891 222.479C90.8335 222.479 35.6616 225.701 35.6616 229.676C35.6616 233.651 90.8335 236.873 158.891 236.873Z" fill="#F5F5F5"/>
<path d="M49.9999 230.204H107.417V222.867H49.9999V230.204Z" fill="#263238"/>
<path opacity="0.2" d="M49.9937 230.204H85.3502V222.867H49.9937V230.204Z" fill="white"/>
<path d="M108.694 172.925H49.0657V227.088H108.694V172.925Z" fill="#407BFF"/>
<path opacity="0.4" d="M108.694 172.925H49.0657V227.088H108.694V172.925Z" fill="white"/>
<path opacity="0.2" d="M108.694 172.925H86.7548V227.088H108.694V172.925Z" fill="black"/>
<path d="M47.2988 172.937C47.2976 173.197 47.3482 173.455 47.4475 173.695C47.5468 173.935 47.6929 174.153 47.8772 174.336C48.0577 174.522 48.2743 174.669 48.5136 174.769C48.7529 174.868 49.01 174.918 49.2691 174.915H108.485C108.753 174.93 109.022 174.89 109.275 174.798C109.528 174.706 109.759 174.563 109.954 174.378C110.15 174.193 110.306 173.97 110.412 173.723C110.518 173.476 110.573 173.21 110.573 172.941C110.573 172.671 110.518 172.405 110.412 172.158C110.306 171.911 110.15 171.688 109.954 171.503C109.759 171.319 109.528 171.176 109.275 171.083C109.022 170.991 108.753 170.951 108.485 170.966H49.2691C48.7466 170.966 48.2454 171.174 47.8759 171.544C47.5064 171.913 47.2988 172.415 47.2988 172.937Z" fill="#407BFF"/>
<path opacity="0.2" d="M47.2988 172.937C47.2976 173.197 47.3482 173.455 47.4475 173.695C47.5468 173.935 47.6929 174.153 47.8772 174.336C48.0577 174.522 48.2743 174.669 48.5136 174.769C48.7529 174.868 49.01 174.918 49.2691 174.915H86.6785C86.9471 174.93 87.2159 174.89 87.4686 174.798C87.7213 174.706 87.9525 174.563 88.148 174.378C88.3435 174.193 88.4993 173.97 88.6057 173.723C88.7122 173.476 88.7671 173.21 88.7671 172.941C88.7671 172.671 88.7122 172.405 88.6057 172.158C88.4993 171.911 88.3435 171.688 88.148 171.503C87.9525 171.319 87.7213 171.176 87.4686 171.083C87.2159 170.991 86.9471 170.951 86.6785 170.966H49.2691C48.7466 170.966 48.2454 171.174 47.8759 171.544C47.5064 171.913 47.2988 172.415 47.2988 172.937Z" fill="white"/>
<path opacity="0.3" d="M51.8049 188.565H83.6277V177.719H51.8049V188.565Z" fill="white"/>
<path opacity="0.3" d="M51.8049 223.731H83.6277V190.721H51.8049V223.731Z" fill="white"/>
<path opacity="0.2" d="M66.6898 180.141C66.6898 180.343 66.7498 180.541 66.8623 180.71C66.9747 180.878 67.1345 181.009 67.3215 181.087C67.5085 181.164 67.7142 181.184 67.9127 181.145C68.1112 181.105 68.2935 181.008 68.4366 180.865C68.5797 180.722 68.6772 180.539 68.7167 180.341C68.7562 180.142 68.7359 179.936 68.6584 179.749C68.581 179.562 68.4498 179.402 68.2816 179.29C68.1133 179.177 67.9155 179.117 67.7131 179.117C67.4417 179.117 67.1814 179.225 66.9895 179.417C66.7976 179.609 66.6898 179.87 66.6898 180.141Z" fill="black"/>
<path opacity="0.2" d="M66.6898 194.154C66.6898 194.356 66.7498 194.554 66.8623 194.723C66.9747 194.891 67.1345 195.022 67.3215 195.1C67.5085 195.177 67.7142 195.197 67.9127 195.158C68.1112 195.118 68.2935 195.021 68.4366 194.878C68.5797 194.735 68.6772 194.552 68.7167 194.354C68.7562 194.155 68.7359 193.949 68.6584 193.762C68.581 193.575 68.4498 193.415 68.2816 193.303C68.1133 193.19 67.9155 193.13 67.7131 193.13C67.5787 193.13 67.4456 193.157 67.3215 193.208C67.1973 193.26 67.0845 193.335 66.9895 193.43C66.8945 193.525 66.8191 193.638 66.7677 193.762C66.7163 193.886 66.6898 194.02 66.6898 194.154Z" fill="black"/>
<path d="M56.5718 170.757H69.0161V167.819H56.5718V170.757Z" fill="#407BFF"/>
<path opacity="0.7" d="M56.5718 170.757H69.0161V167.819H56.5718V170.757Z" fill="white"/>
<path d="M55.9298 171.03H65.6794C66.1396 171.03 66.5809 170.847 66.9063 170.522C67.2317 170.196 67.4145 169.755 67.4145 169.294C67.4145 168.834 67.2317 168.392 66.9063 168.067C66.5809 167.741 66.1396 167.559 65.6794 167.559H55.9298V168.194H65.6794C65.971 168.194 66.2507 168.31 66.4569 168.516C66.6631 168.723 66.7789 169.003 66.7789 169.294C66.7789 169.586 66.6631 169.866 66.4569 170.072C66.2507 170.278 65.971 170.394 65.6794 170.394H55.9298V171.03Z" fill="#263238"/>
<path d="M64.1921 171.03H73.9354C74.1632 171.03 74.3888 170.985 74.5993 170.898C74.8099 170.811 75.0011 170.683 75.1622 170.522C75.3234 170.36 75.4512 170.169 75.5384 169.959C75.6256 169.748 75.6704 169.522 75.6704 169.294C75.6704 169.066 75.6256 168.841 75.5384 168.63C75.4512 168.419 75.3234 168.228 75.1622 168.067C75.0011 167.906 74.8099 167.778 74.5993 167.691C74.3888 167.603 74.1632 167.559 73.9354 167.559H64.1921V168.194H65.673C65.9646 168.194 66.2443 168.31 66.4505 168.516C66.6567 168.723 66.7725 169.003 66.7725 169.294C66.7725 169.586 66.6567 169.866 66.4505 170.072C66.2443 170.278 65.9646 170.394 65.673 170.394H64.1921V171.03Z" fill="#263238"/>
<g opacity="0.4">
<path opacity="0.4" d="M55.9298 171.03H65.6794C66.1396 171.03 66.5809 170.847 66.9063 170.522C67.2317 170.196 67.4145 169.755 67.4145 169.294C67.4145 168.834 67.2317 168.392 66.9063 168.067C66.5809 167.741 66.1396 167.559 65.6794 167.559H55.9298V168.194H65.6794C65.971 168.194 66.2507 168.31 66.4569 168.516C66.6631 168.723 66.7789 169.003 66.7789 169.294C66.7789 169.586 66.6631 169.866 66.4569 170.072C66.2507 170.278 65.971 170.394 65.6794 170.394H55.9298V171.03Z" fill="white"/>
</g>
<path d="M58.1797 167.279H70.624V164.341H58.1797V167.279Z" fill="#407BFF"/>
<path opacity="0.7" d="M58.1797 167.279H70.624V164.341H58.1797V167.279Z" fill="white"/>
<path d="M65.8129 167.552H75.5624C76.0053 167.525 76.4212 167.331 76.7253 167.007C77.0294 166.684 77.1987 166.257 77.1987 165.813C77.1987 165.369 77.0294 164.942 76.7253 164.619C76.4212 164.296 76.0053 164.101 75.5624 164.074H65.8129V164.71H67.2937C67.5717 164.731 67.8315 164.857 68.021 165.061C68.2105 165.266 68.3158 165.534 68.3158 165.813C68.3158 166.092 68.2105 166.361 68.021 166.565C67.8315 166.77 67.5717 166.895 67.2937 166.916H65.8129V167.552Z" fill="#407BFF"/>
<g opacity="0.4">
<path opacity="0.4" d="M65.8129 167.552H75.5624C76.0053 167.525 76.4212 167.331 76.7253 167.007C77.0294 166.684 77.1987 166.257 77.1987 165.813C77.1987 165.369 77.0294 164.942 76.7253 164.619C76.4212 164.296 76.0053 164.101 75.5624 164.074H65.8129V164.71H67.2937C67.5717 164.731 67.8315 164.857 68.021 165.061C68.2105 165.266 68.3158 165.534 68.3158 165.813C68.3158 166.092 68.2105 166.361 68.021 166.565C67.8315 166.77 67.5717 166.895 67.2937 166.916H65.8129V167.552Z" fill="white"/>
</g>
<path d="M57.5441 167.552H67.2936C67.7365 167.525 68.1524 167.331 68.4565 167.007C68.7606 166.684 68.9299 166.257 68.9299 165.813C68.9299 165.369 68.7606 164.942 68.4565 164.619C68.1524 164.296 67.7365 164.101 67.2936 164.074H57.5441V164.71H67.2936C67.5716 164.731 67.8314 164.857 68.0209 165.061C68.2104 165.266 68.3157 165.534 68.3157 165.813C68.3157 166.092 68.2104 166.361 68.0209 166.565C67.8314 166.77 67.5716 166.895 67.2936 166.916H57.5441V167.552Z" fill="#407BFF"/>
<g opacity="0.2">
<path opacity="0.2" d="M57.5441 167.552H67.2936C67.7365 167.525 68.1524 167.331 68.4565 167.007C68.7606 166.684 68.9299 166.257 68.9299 165.813C68.9299 165.369 68.7606 164.942 68.4565 164.619C68.1524 164.296 67.7365 164.101 67.2936 164.074H57.5441V164.71H67.2936C67.5716 164.731 67.8314 164.857 68.0209 165.061C68.2104 165.266 68.3157 165.534 68.3157 165.813C68.3157 166.092 68.2104 166.361 68.0209 166.565C67.8314 166.77 67.5716 166.895 67.2936 166.916H57.5441V167.552Z" fill="white"/>
</g>
<path d="M55.6247 163.807H68.0691V160.87H55.6247V163.807Z" fill="#407BFF"/>
<path opacity="0.7" d="M55.6247 163.807H68.0691V160.87H55.6247V163.807Z" fill="white"/>
<path d="M63.2578 164.074H73.001C73.4612 164.074 73.9025 163.892 74.2279 163.566C74.5533 163.24 74.7361 162.799 74.7361 162.339C74.7361 161.878 74.5533 161.437 74.2279 161.111C73.9025 160.786 73.4612 160.603 73.001 160.603H63.2578V161.239H64.7387C65.0303 161.239 65.31 161.355 65.5162 161.561C65.7224 161.767 65.8382 162.047 65.8382 162.339C65.8382 162.63 65.7224 162.91 65.5162 163.116C65.31 163.323 65.0303 163.439 64.7387 163.439H63.2578V164.074Z" fill="#263238"/>
<g opacity="0.2">
<path opacity="0.2" d="M63.2578 164.074H73.001C73.4612 164.074 73.9025 163.892 74.2279 163.566C74.5533 163.24 74.7361 162.799 74.7361 162.339C74.7361 161.878 74.5533 161.437 74.2279 161.111C73.9025 160.786 73.4612 160.603 73.001 160.603H63.2578V161.239H64.7387C65.0303 161.239 65.31 161.355 65.5162 161.561C65.7224 161.767 65.8382 162.047 65.8382 162.339C65.8382 162.63 65.7224 162.91 65.5162 163.116C65.31 163.323 65.0303 163.439 64.7387 163.439H63.2578V164.074Z" fill="white"/>
</g>
<path d="M54.989 164.074H64.7322C65.1924 164.074 65.6337 163.892 65.9591 163.566C66.2845 163.24 66.4673 162.799 66.4673 162.339C66.4673 161.878 66.2845 161.437 65.9591 161.111C65.6337 160.786 65.1924 160.603 64.7322 160.603H54.989V161.239H64.7322C65.0238 161.239 65.3035 161.355 65.5097 161.561C65.7159 161.767 65.8318 162.047 65.8318 162.339C65.8318 162.63 65.7159 162.91 65.5097 163.116C65.3035 163.323 65.0238 163.439 64.7322 163.439H54.989V164.074Z" fill="#263238"/>
<g opacity="0.4">
<path opacity="0.4" d="M54.989 164.074H64.7322C65.1924 164.074 65.6337 163.892 65.9591 163.566C66.2845 163.24 66.4673 162.799 66.4673 162.339C66.4673 161.878 66.2845 161.437 65.9591 161.111C65.6337 160.786 65.1924 160.603 64.7322 160.603H54.989V161.239H64.7322C65.0238 161.239 65.3035 161.355 65.5097 161.561C65.7159 161.767 65.8318 162.047 65.8318 162.339C65.8318 162.63 65.7159 162.91 65.5097 163.116C65.3035 163.323 65.0238 163.439 64.7322 163.439H54.989V164.074Z" fill="white"/>
</g>
<path d="M75.7149 157.398H63.2705V160.336H75.7149V157.398Z" fill="#407BFF"/>
<path opacity="0.7" d="M75.7149 157.398H63.2705V160.336H75.7149V157.398Z" fill="white"/>
<path d="M76.3505 160.603H66.6009C66.158 160.576 65.7421 160.381 65.438 160.058C65.1339 159.735 64.9646 159.308 64.9646 158.864C64.9646 158.42 65.1339 157.993 65.438 157.67C65.7421 157.347 66.158 157.152 66.6009 157.125H76.3505V157.761H66.6009C66.3229 157.782 66.0631 157.907 65.8736 158.112C65.6841 158.316 65.5788 158.585 65.5788 158.864C65.5788 159.143 65.6841 159.412 65.8736 159.616C66.0631 159.821 66.3229 159.946 66.6009 159.967H76.3505V160.603Z" fill="#407BFF"/>
<path d="M68.0818 160.603H58.3322C57.8894 160.576 57.4734 160.381 57.1693 160.058C56.8653 159.735 56.6959 159.308 56.6959 158.864C56.6959 158.42 56.8653 157.993 57.1693 157.67C57.4734 157.347 57.8894 157.152 58.3322 157.125H68.0818V157.761H66.6009C66.3229 157.782 66.0632 157.907 65.8736 158.112C65.6841 158.316 65.5788 158.585 65.5788 158.864C65.5788 159.143 65.6841 159.412 65.8736 159.616C66.0632 159.821 66.3229 159.946 66.6009 159.967H68.0818V160.603Z" fill="#407BFF"/>
<g opacity="0.4">
<path opacity="0.4" d="M76.3505 160.603H66.6009C66.158 160.576 65.7421 160.381 65.438 160.058C65.1339 159.735 64.9646 159.308 64.9646 158.864C64.9646 158.42 65.1339 157.993 65.438 157.67C65.7421 157.347 66.158 157.152 66.6009 157.125H76.3505V157.761H66.6009C66.3229 157.782 66.0631 157.907 65.8736 158.112C65.6841 158.316 65.5788 158.585 65.5788 158.864C65.5788 159.143 65.6841 159.412 65.8736 159.616C66.0631 159.821 66.3229 159.946 66.6009 159.967H76.3505V160.603Z" fill="white"/>
</g>
<path d="M85.4899 167.851C86.4878 167.953 89.7291 167.768 90.5744 167.851C90.7778 167.851 90.9494 167.908 91.1337 167.94C91.4274 167.886 91.725 167.856 92.0235 167.851C92.907 167.851 96.0276 167.851 97.108 167.851C99.4533 167.851 101.633 169.892 105.32 170.394L104.9 170.979H77.2975V169.886C79.9986 170.451 83.2209 167.597 85.4899 167.851Z" fill="#407BFF"/>
<path opacity="0.5" d="M85.4899 167.851C86.4878 167.953 89.7291 167.768 90.5744 167.851C90.7778 167.851 90.9494 167.908 91.1337 167.94C91.4274 167.886 91.725 167.856 92.0235 167.851C92.907 167.851 96.0276 167.851 97.108 167.851C99.4533 167.851 101.633 169.892 105.32 170.394L104.9 170.979H77.2975V169.886C79.9986 170.451 83.2209 167.597 85.4899 167.851Z" fill="white"/>
<path opacity="0.3" d="M105.326 170.394C101.64 169.886 99.4597 167.851 97.1145 167.851C96.477 167.827 95.8423 167.947 95.2571 168.201C94.6719 168.455 94.1512 168.837 93.7333 169.32C93.3304 168.873 92.8411 168.512 92.2948 168.26C91.7486 168.007 91.1569 167.868 90.5555 167.851C88.2929 167.628 85.0705 170.483 82.363 169.892V170.985H104.887L105.326 170.394Z" fill="white"/>
<path d="M93.7333 169.288C93.3646 169.288 93.2374 170.56 93.2374 170.56H94.2483C94.2483 170.56 94.1021 169.282 93.7333 169.288Z" fill="#407BFF"/>
<path d="M77.0241 171.024H105.326V170.534H77.0241V171.024Z" fill="#263238"/>
<path d="M124.844 228.417H127.863L127.863 109.103H124.844L124.844 228.417Z" fill="#263238"/>
<path opacity="0.2" d="M124.844 228.417H127.863L127.863 109.103H124.844L124.844 228.417Z" fill="white"/>
<path d="M130.628 229.212H122.08V223.706C122.08 222.898 122.4 222.124 122.971 221.552C123.542 220.981 124.317 220.66 125.124 220.66H127.59C128.397 220.66 129.172 220.981 129.743 221.552C130.314 222.124 130.634 222.898 130.634 223.706V229.212H130.628Z" fill="#263238"/>
<path d="M114.961 97.3215H137.753C138.255 116.548 145.379 126.784 145.379 126.784H107.328C107.328 126.784 114.459 116.548 114.961 97.3215Z" fill="#407BFF"/>
<path opacity="0.3" d="M130.628 229.212H122.08V223.706C122.08 222.898 122.4 222.124 122.971 221.552C123.542 220.981 124.317 220.66 125.124 220.66H127.59C128.397 220.66 129.172 220.981 129.743 221.552C130.314 222.124 130.634 222.898 130.634 223.706V229.212H130.628Z" fill="white"/>
<path d="M138.757 230.204H113.97C113.97 229.254 114.347 228.344 115.018 227.673C115.689 227.001 116.599 226.624 117.548 226.624H135.178C136.127 226.624 137.037 227.001 137.709 227.673C138.38 228.344 138.757 229.254 138.757 230.204Z" fill="#263238"/>
<path opacity="0.4" d="M138.757 230.204H113.97C113.97 229.254 114.347 228.344 115.018 227.673C115.689 227.001 116.599 226.624 117.548 226.624H135.178C136.127 226.624 137.037 227.001 137.709 227.673C138.38 228.344 138.757 229.254 138.757 230.204Z" fill="white"/>
<path opacity="0.5" d="M107.328 126.784H145.379C145.379 126.784 143.072 123.472 140.988 117.069C138.962 110.677 137.871 104.026 137.746 97.3215H114.955C114.829 104.023 113.739 110.672 111.72 117.063C109.635 123.466 107.328 126.784 107.328 126.784Z" fill="white"/>
<path opacity="0.2" d="M111.72 117.063C113.406 119.362 115.609 121.231 118.152 122.519C120.694 123.807 123.504 124.478 126.354 124.478C129.203 124.478 132.013 123.807 134.556 122.519C137.098 121.231 139.301 119.362 140.988 117.063C138.962 110.671 137.871 104.02 137.746 97.3154H114.955C114.83 104.019 113.74 110.67 111.72 117.063Z" fill="white"/>
<path d="M239.716 215.243C239.588 214.982 239.526 214.694 239.534 214.404C239.542 214.113 239.62 213.829 239.762 213.575C239.904 213.321 240.105 213.106 240.348 212.947C240.591 212.788 240.869 212.69 241.159 212.662C240.911 211.921 240.895 211.121 241.113 210.37C241.331 209.619 241.773 208.953 242.379 208.46C242.524 208.325 242.709 208.242 242.906 208.224C243.117 208.247 243.315 208.336 243.472 208.479C244.599 209.28 245.72 210.085 246.834 210.895C247.104 211.05 247.333 211.268 247.502 211.53C248.194 212.859 245.716 214.57 246.732 215.669C247.025 215.981 247.495 216.051 247.864 216.305C248.658 216.801 248.76 217.901 249.135 218.772C249.51 219.643 250.813 220.311 251.309 219.51C250.94 218.677 252.052 217.958 252.955 217.857C253.857 217.755 254.804 217.698 255.3 216.852C256.571 217.971 259.45 214.843 259.387 213.584C260.442 213.667 261.16 214.652 261.389 215.638C261.536 216.678 261.572 217.731 261.497 218.779C261.528 220.819 262.189 222.822 262.132 224.857C262.132 226.446 261.497 228.214 260.035 228.85C259.314 229.104 258.548 229.208 257.785 229.155L241.26 229.047C240.863 229.078 240.464 229.012 240.097 228.856C239.347 228.462 239.188 227.483 239.118 226.643C238.826 223.045 238.532 219.442 238.235 215.835L239.716 215.243Z" fill="#407BFF"/>
<path opacity="0.3" d="M239.716 215.243C239.588 214.982 239.526 214.694 239.534 214.404C239.542 214.113 239.62 213.829 239.762 213.575C239.904 213.321 240.105 213.106 240.348 212.947C240.591 212.788 240.869 212.69 241.159 212.662C240.911 211.921 240.895 211.121 241.113 210.37C241.331 209.619 241.773 208.953 242.379 208.46C242.524 208.325 242.709 208.242 242.906 208.224C243.117 208.247 243.315 208.336 243.472 208.479C244.599 209.28 245.72 210.085 246.834 210.895C247.104 211.05 247.333 211.268 247.502 211.53C248.194 212.859 245.716 214.57 246.732 215.669C247.025 215.981 247.495 216.051 247.864 216.305C248.658 216.801 248.76 217.901 249.135 218.772C249.51 219.643 250.813 220.311 251.309 219.51C250.94 218.677 252.052 217.958 252.955 217.857C253.857 217.755 254.804 217.698 255.3 216.852C256.571 217.971 259.45 214.843 259.387 213.584C260.442 213.667 261.16 214.652 261.389 215.638C261.536 216.678 261.572 217.731 261.497 218.779C261.528 220.819 262.189 222.822 262.132 224.857C262.132 226.446 261.497 228.214 260.035 228.85C259.314 229.104 258.548 229.208 257.785 229.155L241.26 229.047C240.863 229.078 240.464 229.012 240.097 228.856C239.347 228.462 239.188 227.483 239.118 226.643C238.826 223.045 238.532 219.442 238.235 215.835L239.716 215.243Z" fill="white"/>
<path d="M235.864 197.734L236.074 200.334L236.227 202.184L236.608 207.016L236.83 209.776L237.135 213.463L237.263 215.046L237.301 215.517L237.447 217.373L237.657 219.917L237.777 221.5L237.911 223.096L238.063 224.958L238.178 226.376L238.305 227.953L238.362 228.64H261.929L261.98 227.953L262.107 226.37L262.221 224.965L262.374 223.102L262.507 221.5L262.634 219.917L262.838 217.373L262.99 215.517L263.028 215.046L263.155 213.463L263.454 209.776L263.677 207.01L264.071 202.184L264.217 200.334L264.433 197.734H235.864ZM237.167 198.942H237.701L237.205 199.438L237.167 198.942ZM239.404 198.942H239.957L242.315 201.3L239.684 203.939L237.383 201.644L237.332 201.008L239.404 198.942ZM237.86 207.474L239.684 205.649L242.315 208.281L239.684 210.92L238 209.235L237.86 207.474ZM262.291 209.235L260.613 210.92L257.976 208.281L260.613 205.649L262.431 207.474L262.291 209.235ZM243.167 202.184L245.805 204.823L243.167 207.461L240.529 204.823L243.167 202.184ZM243.167 200.487L241.661 198.973H244.692L243.167 200.487ZM246.656 205.681L249.294 208.313L246.656 210.952L244.057 208.288L246.656 205.681ZM250.145 214.436L247.514 211.804L250.145 209.172L252.777 211.804L250.145 214.436ZM253.628 212.656L256.266 215.294L253.635 217.927L250.997 215.288L253.628 212.656ZM249.294 215.288L246.656 217.927L244.057 215.269L246.688 212.63L249.294 215.288ZM247.514 204.823L250.145 202.184L252.777 204.823L250.145 207.461L247.514 204.823ZM253.628 205.681L256.266 208.313L253.628 210.952L250.997 208.313L253.628 205.681ZM254.486 204.823L257.124 202.184L259.755 204.823L257.124 207.461L254.486 204.823ZM259.755 211.817L257.124 214.449L254.486 211.817L257.124 209.184L259.755 211.817ZM257.124 216.159L259.755 218.798L257.124 221.43L254.486 218.798L257.124 216.159ZM256.266 222.288L253.628 224.92L250.997 222.288L253.635 219.65L256.266 222.288ZM250.145 221.43L247.514 218.798L250.145 216.159L252.777 218.798L250.145 221.43ZM249.294 222.288L246.656 224.92L244.057 222.25L246.688 219.611L249.294 222.288ZM245.805 225.709L244.095 227.419H242.239L240.529 225.709L243.167 223.07L245.805 225.709ZM243.167 221.366L240.529 218.734L243.167 216.095L245.805 218.734L243.167 221.366ZM243.167 214.372L240.529 211.74L243.167 209.178L245.805 211.81L243.167 214.372ZM246.345 198.91H246.904L249.262 201.269L246.624 203.907L244.057 201.307L246.345 198.91ZM248.607 198.91H251.683L250.177 200.423L248.607 198.91ZM253.323 198.91H253.876L256.234 201.269L253.597 203.907L250.965 201.269L253.323 198.91ZM258.592 198.91L257.092 200.423L255.586 198.91H258.592ZM260.855 198.91L262.92 200.982L262.869 201.618L260.581 203.914L257.944 201.275L260.302 198.916L260.855 198.91ZM263.092 198.91L263.047 199.399L262.558 198.91H263.092ZM262.526 205.859L261.433 204.759L262.704 203.488L262.526 205.859ZM262.037 212.357L261.465 211.785L262.139 211.104L262.037 212.376V212.357ZM261.675 216.846L260.613 217.907L257.976 215.275L260.613 212.637L261.884 213.94L261.675 216.846ZM261.516 218.817L261.465 218.766L261.522 218.702V218.817H261.516ZM261.058 224.437L260.613 224.889L257.976 222.256L260.613 219.618L261.389 220.393L261.058 224.437ZM259.755 227.451L260.613 226.592L260.867 226.847L260.817 227.483L259.755 227.451ZM258.052 227.451H256.196L254.486 225.709L257.124 223.07L259.755 225.709L258.052 227.451ZM252.777 227.451L253.628 226.592L254.486 227.451H252.777ZM249.211 227.451L247.514 225.709L250.145 223.07L252.777 225.709L251.048 227.444L249.211 227.451ZM245.798 227.451L246.656 226.592L247.514 227.451H245.798ZM239.442 226.815L239.697 226.561L240.548 227.419H239.487L239.442 226.815ZM238.915 220.362L239.697 219.586L242.328 222.225L239.697 224.857L239.239 224.405L238.915 220.362ZM238.775 218.664L238.845 218.734L238.788 218.785V218.664H238.775ZM238.387 213.908L239.697 212.605L242.328 215.243L239.697 217.876L238.623 216.814L238.387 213.908ZM238.146 211.085L238.832 211.766L238.254 212.344L238.146 211.085ZM237.51 203.488L238.782 204.759L237.701 205.904L237.51 203.5V203.488Z" fill="#407BFF"/>
<g opacity="0.6">
<path opacity="0.6" d="M235.864 197.734L236.074 200.334L236.227 202.184L236.608 207.016L236.83 209.776L237.135 213.463L237.263 215.046L237.301 215.517L237.447 217.373L237.657 219.917L237.777 221.5L237.911 223.096L238.063 224.958L238.178 226.376L238.305 227.953L238.362 228.64H261.929L261.98 227.953L262.107 226.37L262.221 224.965L262.374 223.102L262.507 221.5L262.634 219.917L262.838 217.373L262.99 215.517L263.028 215.046L263.155 213.463L263.454 209.776L263.677 207.01L264.071 202.184L264.217 200.334L264.433 197.734H235.864ZM237.167 198.942H237.701L237.205 199.438L237.167 198.942ZM239.404 198.942H239.957L242.315 201.3L239.684 203.939L237.383 201.644L237.332 201.008L239.404 198.942ZM237.86 207.474L239.684 205.649L242.315 208.281L239.684 210.92L238 209.235L237.86 207.474ZM262.291 209.235L260.613 210.92L257.976 208.281L260.613 205.649L262.431 207.474L262.291 209.235ZM243.167 202.184L245.805 204.823L243.167 207.461L240.529 204.823L243.167 202.184ZM243.167 200.487L241.661 198.973H244.692L243.167 200.487ZM246.656 205.681L249.294 208.313L246.656 210.952L244.057 208.288L246.656 205.681ZM250.145 214.436L247.514 211.804L250.145 209.172L252.777 211.804L250.145 214.436ZM253.628 212.656L256.266 215.294L253.635 217.927L250.997 215.288L253.628 212.656ZM249.294 215.288L246.656 217.927L244.057 215.269L246.688 212.63L249.294 215.288ZM247.514 204.823L250.145 202.184L252.777 204.823L250.145 207.461L247.514 204.823ZM253.628 205.681L256.266 208.313L253.628 210.952L250.997 208.313L253.628 205.681ZM254.486 204.823L257.124 202.184L259.755 204.823L257.124 207.461L254.486 204.823ZM259.755 211.817L257.124 214.449L254.486 211.817L257.124 209.184L259.755 211.817ZM257.124 216.159L259.755 218.798L257.124 221.43L254.486 218.798L257.124 216.159ZM256.266 222.288L253.628 224.92L250.997 222.288L253.635 219.65L256.266 222.288ZM250.145 221.43L247.514 218.798L250.145 216.159L252.777 218.798L250.145 221.43ZM249.294 222.288L246.656 224.92L244.057 222.25L246.688 219.611L249.294 222.288ZM245.805 225.709L244.095 227.419H242.239L240.529 225.709L243.167 223.07L245.805 225.709ZM243.167 221.366L240.529 218.734L243.167 216.095L245.805 218.734L243.167 221.366ZM243.167 214.372L240.529 211.74L243.167 209.178L245.805 211.81L243.167 214.372ZM246.345 198.91H246.904L249.262 201.269L246.624 203.907L244.057 201.307L246.345 198.91ZM248.607 198.91H251.683L250.177 200.423L248.607 198.91ZM253.323 198.91H253.876L256.234 201.269L253.597 203.907L250.965 201.269L253.323 198.91ZM258.592 198.91L257.092 200.423L255.586 198.91H258.592ZM260.855 198.91L262.92 200.982L262.869 201.618L260.581 203.914L257.944 201.275L260.302 198.916L260.855 198.91ZM263.092 198.91L263.047 199.399L262.558 198.91H263.092ZM262.526 205.859L261.433 204.759L262.704 203.488L262.526 205.859ZM262.037 212.357L261.465 211.785L262.139 211.104L262.037 212.376V212.357ZM261.675 216.846L260.613 217.907L257.976 215.275L260.613 212.637L261.884 213.94L261.675 216.846ZM261.516 218.817L261.465 218.766L261.522 218.702V218.817H261.516ZM261.058 224.437L260.613 224.889L257.976 222.256L260.613 219.618L261.389 220.393L261.058 224.437ZM259.755 227.451L260.613 226.592L260.867 226.847L260.817 227.483L259.755 227.451ZM258.052 227.451H256.196L254.486 225.709L257.124 223.07L259.755 225.709L258.052 227.451ZM252.777 227.451L253.628 226.592L254.486 227.451H252.777ZM249.211 227.451L247.514 225.709L250.145 223.07L252.777 225.709L251.048 227.444L249.211 227.451ZM245.798 227.451L246.656 226.592L247.514 227.451H245.798ZM239.442 226.815L239.697 226.561L240.548 227.419H239.487L239.442 226.815ZM238.915 220.362L239.697 219.586L242.328 222.225L239.697 224.857L239.239 224.405L238.915 220.362ZM238.775 218.664L238.845 218.734L238.788 218.785V218.664H238.775ZM238.387 213.908L239.697 212.605L242.328 215.243L239.697 217.876L238.623 216.814L238.387 213.908ZM238.146 211.085L238.832 211.766L238.254 212.344L238.146 211.085ZM237.51 203.488L238.782 204.759L237.701 205.904L237.51 203.5V203.488Z" fill="white"/>
</g>
<path d="M265.037 196.665H235.261C234.685 196.665 234.218 197.132 234.218 197.708V198.98C234.218 199.556 234.685 200.022 235.261 200.022H265.037C265.613 200.022 266.079 199.556 266.079 198.98V197.708C266.079 197.132 265.613 196.665 265.037 196.665Z" fill="#407BFF"/>
<path d="M237.555 230.204H262.736C263.312 230.204 263.778 229.737 263.778 229.161V227.89C263.778 227.314 263.312 226.847 262.736 226.847H237.555C236.979 226.847 236.513 227.314 236.513 227.89V229.161C236.513 229.737 236.979 230.204 237.555 230.204Z" fill="#407BFF"/>
<path d="M240.028 122.124H171.761C170.396 122.157 169.087 122.674 168.066 123.582C167.045 124.49 166.38 125.731 166.188 127.084L158.256 191.846H236.43L244.381 127.084C244.478 126.461 244.437 125.826 244.262 125.221C244.086 124.616 243.78 124.058 243.364 123.585C242.949 123.112 242.435 122.736 241.858 122.483C241.282 122.231 240.657 122.108 240.028 122.124Z" fill="#263238"/>
<path opacity="0.6" d="M240.028 122.124H171.761C170.396 122.157 169.087 122.674 168.066 123.582C167.045 124.49 166.38 125.731 166.188 127.084L158.256 191.846H236.43L244.381 127.084C244.478 126.461 244.437 125.826 244.262 125.221C244.086 124.616 243.78 124.058 243.364 123.585C242.949 123.112 242.435 122.736 241.858 122.483C241.282 122.231 240.657 122.108 240.028 122.124Z" fill="white"/>
<path opacity="0.2" d="M221.31 191.846H236.43L244.381 127.084C244.478 126.461 244.437 125.826 244.262 125.221C244.086 124.616 243.78 124.058 243.364 123.585C242.949 123.112 242.435 122.736 241.858 122.483C241.282 122.231 240.657 122.108 240.028 122.124H234.835C233.47 122.157 232.16 122.674 231.139 123.582C230.119 124.49 229.453 125.731 229.261 127.084L221.31 191.846Z" fill="black"/>
<path d="M232.051 229.943H226.751L224.583 206.38H233.672L232.051 229.943Z" fill="#263238"/>
<path d="M208.79 229.943H203.489L201.328 206.38H210.41L208.79 229.943Z" fill="#263238"/>
<path d="M169.308 229.943H164.008L161.847 206.38H170.929L169.308 229.943Z" fill="#263238"/>
<path d="M146.047 229.943H140.752L138.585 206.38H147.667L146.047 229.943Z" fill="#263238"/>
<path opacity="0.2" d="M208.79 229.943H203.489L201.328 206.38H210.41L208.79 229.943Z" fill="white"/>
<path opacity="0.2" d="M146.047 229.943H140.752L138.585 206.38H147.667L146.047 229.943Z" fill="white"/>
<path d="M235.941 205.363L235.458 211.454C235.442 211.668 235.345 211.868 235.187 212.013C235.028 212.159 234.821 212.238 234.606 212.236H138.051C137.837 212.237 137.63 212.157 137.472 212.012C137.314 211.867 137.217 211.668 137.199 211.454L136.723 205.363H235.941Z" fill="#263238"/>
<path opacity="0.2" d="M212.946 205.363L212.463 211.454C212.447 211.668 212.35 211.868 212.192 212.013C212.034 212.159 211.826 212.238 211.611 212.236H138.051C137.837 212.237 137.63 212.157 137.472 212.012C137.314 211.867 137.217 211.668 137.199 211.454L136.723 205.363H212.946Z" fill="white"/>
<path d="M206.559 188.731H170.376L168.202 163.934C167.993 161.562 166.904 159.354 165.149 157.744C163.394 156.135 161.101 155.24 158.72 155.237H126.941C126.386 155.236 125.836 155.352 125.328 155.575C124.819 155.799 124.363 156.126 123.987 156.535C123.612 156.945 123.326 157.428 123.147 157.955C122.969 158.481 122.902 159.038 122.95 159.592L123.452 165.314C123.529 166.225 123.917 167.082 124.549 167.742C125.182 168.401 126.022 168.824 126.929 168.938L128.06 169.084C128.736 169.171 129.362 169.486 129.834 169.977C130.305 170.469 130.595 171.108 130.653 171.787L133.392 203.106C133.495 204.206 134.003 205.228 134.817 205.974C135.631 206.72 136.693 207.137 137.797 207.143H206.559V188.731Z" fill="#263238"/>
<path opacity="0.6" d="M206.559 188.731H170.376L168.202 163.934C167.993 161.562 166.904 159.354 165.149 157.744C163.394 156.135 161.101 155.24 158.72 155.237H126.941C126.386 155.236 125.836 155.352 125.328 155.575C124.819 155.799 124.363 156.126 123.987 156.535C123.612 156.945 123.326 157.428 123.147 157.955C122.969 158.481 122.902 159.038 122.95 159.592L123.452 165.314C123.529 166.225 123.917 167.082 124.549 167.742C125.182 168.401 126.022 168.824 126.929 168.938L128.06 169.084C128.736 169.171 129.362 169.486 129.834 169.977C130.305 170.469 130.595 171.108 130.653 171.787L133.392 203.106C133.495 204.206 134.003 205.228 134.817 205.974C135.631 206.72 136.693 207.137 137.797 207.143H206.559V188.731Z" fill="white"/>
<path opacity="0.2" d="M146.18 163.903C145.97 161.53 144.881 159.322 143.126 157.712C141.371 156.103 139.078 155.208 136.697 155.205H158.694C161.075 155.208 163.368 156.103 165.123 157.712C166.878 159.322 167.967 161.53 168.177 163.903L170.35 188.699H148.379L146.18 163.903Z" fill="black"/>
<path opacity="0.1" d="M206.559 188.731H148.379L146.206 163.934C145.996 161.562 144.907 159.354 143.152 157.744C141.397 156.135 139.104 155.24 136.723 155.237H126.954C126.399 155.236 125.849 155.352 125.341 155.575C124.832 155.799 124.376 156.126 124 156.535C123.625 156.945 123.339 157.428 123.16 157.955C122.982 158.481 122.914 159.038 122.963 159.592L123.465 165.314C123.542 166.225 123.93 167.082 124.562 167.742C125.195 168.401 126.035 168.824 126.942 168.938L128.073 169.084C128.749 169.171 129.375 169.486 129.846 169.977C130.318 170.469 130.608 171.108 130.666 171.787L133.405 203.106C133.508 204.206 134.015 205.228 134.829 205.974C135.643 206.72 136.706 207.137 137.81 207.143H206.559V188.731Z" fill="white"/>
<path d="M147.318 192.425H214.866C216.628 192.425 218.056 190.996 218.056 189.233V178.838C218.056 177.075 216.628 175.646 214.866 175.646H147.318C145.556 175.646 144.127 177.075 144.127 178.838V189.233C144.127 190.996 145.556 192.425 147.318 192.425Z" fill="#263238"/>
<path opacity="0.5" d="M144.127 178.838V189.239C144.127 190.082 144.462 190.891 145.058 191.487C145.654 192.083 146.462 192.418 147.305 192.418H214.865C215.708 192.418 216.517 192.083 217.113 191.487C217.708 190.891 218.043 190.082 218.043 189.239V178.838C218.043 177.994 217.708 177.186 217.113 176.59C216.517 175.994 215.708 175.659 214.865 175.659H147.318C146.899 175.657 146.485 175.738 146.098 175.897C145.711 176.056 145.359 176.29 145.062 176.585C144.766 176.881 144.531 177.232 144.37 177.618C144.21 178.005 144.127 178.419 144.127 178.838Z" fill="white"/>
<path opacity="0.1" d="M144.127 178.838V189.239C144.127 189.712 144.231 190.178 144.434 190.605C144.636 191.031 144.931 191.408 145.297 191.706H195.684C196.527 191.706 197.335 191.371 197.931 190.775C198.527 190.179 198.862 189.37 198.862 188.527V178.119C198.862 177.645 198.756 177.176 198.551 176.748C198.347 176.321 198.049 175.944 197.68 175.646H147.318C146.898 175.644 146.483 175.726 146.095 175.885C145.707 176.045 145.354 176.28 145.058 176.577C144.761 176.874 144.526 177.226 144.367 177.614C144.207 178.002 144.125 178.418 144.127 178.838Z" fill="white"/>
<path d="M188.826 134.033C186.609 136.707 184.254 139.264 181.772 141.694C178.95 144.377 176.395 146.87 172.759 148.802C171.728 149.336 170.532 149.458 169.415 149.143C168.297 148.827 167.341 148.099 166.741 147.105C165.113 144.32 165.202 141.033 165.152 138.102C165.214 134.617 165.554 131.143 166.169 127.713L169.747 127.942C169.963 131.242 170.211 134.605 170.611 137.803C170.783 139.629 171.169 141.428 171.761 143.163C171.863 143.398 171.984 143.576 172.003 143.557C171.875 143.384 171.713 143.238 171.528 143.129C171.342 143.02 171.136 142.949 170.923 142.921C170.538 142.837 170.138 142.871 169.772 143.017C170.392 142.604 170.984 142.152 171.545 141.662C175.766 137.962 179.522 133.569 183.278 129.391L188.807 134.058L188.826 134.033Z" fill="#EBC0BB"/>
<path d="M177.571 134.039L182.331 137.523L185.884 140.13L186.399 139.494L187.708 137.873L190.25 134.77L185.274 123.962C183.551 125.106 179.827 130.612 178.283 132.958C177.831 133.626 177.571 134.039 177.571 134.039Z" fill="#407BFF"/>
<path opacity="0.3" d="M177.571 134.039L182.331 137.523L185.884 140.13L186.399 139.494L178.257 132.977C177.831 133.626 177.571 134.039 177.571 134.039Z" fill="white"/>
<path opacity="0.2" d="M182.331 137.523L185.884 140.13L187.708 137.873C187.282 134.274 186.837 130.6 186.837 130.6C184.878 132.575 183.345 134.932 182.331 137.523Z" fill="black"/>
<path d="M184.498 154.658L210.264 158.784C210.264 158.784 210.677 154.823 211.077 149.387C211.332 145.916 211.586 141.847 211.713 137.816C211.916 131.712 211.853 125.704 211.135 122.054C206.036 121.136 200.837 120.909 195.678 121.38C192.079 121.68 188.553 122.56 185.235 123.987C185.235 123.987 186.399 136.551 184.498 154.658Z" fill="#407BFF"/>
<path d="M173.331 132.736H170.408C169.862 132.694 169.356 132.437 168.998 132.023C168.641 131.608 168.462 131.069 168.501 130.523V124.121C168.462 123.575 168.641 123.036 168.998 122.621C169.356 122.207 169.862 121.95 170.408 121.908H173.331V123.04H170.408C169.995 123.04 169.651 123.536 169.651 124.121V130.523C169.651 131.108 169.995 131.604 170.408 131.604H173.331V132.736Z" fill="#263238"/>
<path d="M170.598 123.549L168.933 123.498C168.626 123.489 168.323 123.575 168.065 123.743C167.807 123.911 167.607 124.154 167.49 124.439L166.181 127.3C165.924 127.936 165.798 128.618 165.811 129.304C165.824 129.99 165.976 130.667 166.257 131.293L166.613 132.138C169.41 132.45 172.232 130.307 172.232 130.307L173.109 129.817C173.891 129.385 174.119 128.266 173.63 127.274L172.499 124.941C172.336 124.559 172.074 124.229 171.74 123.984C171.405 123.739 171.011 123.588 170.598 123.549Z" fill="#EEC1BB"/>
<path d="M170.986 133.276H178.429C178.748 133.276 179.007 133.017 179.007 132.698V121.749C179.007 121.43 178.748 121.171 178.429 121.171H170.986C170.667 121.171 170.408 121.43 170.408 121.749V132.698C170.408 133.017 170.667 133.276 170.986 133.276Z" fill="#263238"/>
<path d="M175.054 115.474C175.816 115.862 175.689 116.968 175.498 117.636C175.308 118.303 174.926 118.85 175.054 119.6C173.782 118.532 175.46 116.777 175.054 115.474Z" fill="#263238"/>
<path d="M173.395 115.474C174.151 115.862 174.03 116.968 173.833 117.636C173.636 118.303 173.268 118.85 173.395 119.6C172.124 118.532 173.802 116.777 173.395 115.474Z" fill="#263238"/>
<path d="M176.719 115.474C177.475 115.862 177.355 116.968 177.158 117.636C176.961 118.303 176.592 118.85 176.719 119.6C175.448 118.532 177.119 116.777 176.719 115.474Z" fill="#263238"/>
<path opacity="0.7" d="M175.054 115.474C175.816 115.862 175.689 116.968 175.498 117.636C175.308 118.303 174.926 118.85 175.054 119.6C173.782 118.532 175.46 116.777 175.054 115.474Z" fill="white"/>
<path opacity="0.7" d="M173.395 115.474C174.151 115.862 174.03 116.968 173.833 117.636C173.636 118.303 173.268 118.85 173.395 119.6C172.124 118.532 173.802 116.777 173.395 115.474Z" fill="white"/>
<path opacity="0.7" d="M176.719 115.474C177.475 115.862 177.355 116.968 177.158 117.636C176.961 118.303 176.592 118.85 176.719 119.6C175.448 118.532 177.119 116.777 176.719 115.474Z" fill="white"/>
<path d="M166.918 137.511L168.736 136.601L175.092 138.744L183.99 136.97L185.585 143.722C185.585 143.722 185.585 151.136 185.159 151.193C184.733 151.25 175.136 151.193 175.136 151.193L170.446 147.811L166.918 137.511Z" fill="#E0E0E0"/>
<path d="M186.284 137.606L189.278 153.12L177.278 153.781L169.181 151.04L165.8 136.436L175.066 139.412L186.284 137.606Z" fill="#263238"/>
<path opacity="0.2" d="M175.066 139.412L177.278 153.781L189.278 153.126L186.284 137.606L175.066 139.412Z" fill="white"/>
<path opacity="0.1" d="M175.066 139.412L177.278 153.781L169.181 151.04L165.8 136.436L175.066 139.412Z" fill="white"/>
<path d="M183.125 148.141L178.263 146.526L179.013 152.973C179.013 152.973 183.462 153.425 183.939 151.066L183.125 148.141Z" fill="#EEC1BB"/>
<path d="M174.297 147.931L175.168 153.228L179.013 152.973L178.263 146.52L174.297 147.931Z" fill="#EEC1BB"/>
<path opacity="0.2" d="M211.078 149.413C211.332 145.941 211.586 141.872 211.713 137.841C209.419 133.607 207.213 130.046 207.213 130.046C207.213 130.046 196.466 138.814 211.078 149.413Z" fill="black"/>
<path d="M213.811 134.789C212.489 140.887 209.597 151.015 203.921 154.366C203.395 154.639 202.828 154.828 202.243 154.925C200.282 155.12 198.304 155.063 196.358 154.753C191.239 154.062 186.177 152.999 181.212 151.575L181.848 148.039L191.89 148.593C194.54 148.739 199.167 148.923 200.851 148.637L200.648 148.745C200.737 148.663 200.921 148.497 201.004 148.402C202.421 146.73 203.241 144.632 204.067 142.464C205.125 139.473 206.018 136.428 206.743 133.34L213.811 134.789Z" fill="#EBC0BB"/>
<path d="M203.908 138.293L214.217 140.709L214.503 139.475C216.302 131.21 215.603 122.944 211.141 122.048C211.141 122.048 208.027 123.612 206.635 126.333C205.548 128.431 204.506 134.465 204.093 137.066C203.978 137.822 203.908 138.293 203.908 138.293Z" fill="#407BFF"/>
<path opacity="0.2" d="M193.828 144.18C196.485 144.18 198.64 141.467 198.64 138.121C198.64 134.775 196.485 132.062 193.828 132.062C191.171 132.062 189.017 134.775 189.017 138.121C189.017 141.467 191.171 144.18 193.828 144.18Z" fill="white"/>
<path d="M199.942 139.234L188.839 134.3L188.159 136.862L199.517 141.866L199.942 139.234Z" fill="#407BFF"/>
<path opacity="0.3" d="M199.942 139.234L188.839 134.3L188.159 136.862L199.517 141.866L199.942 139.234Z" fill="white"/>
<path opacity="0.2" d="M194.051 140.836L191.858 139.78V140.658L193.828 141.516L194.051 140.836Z" fill="white"/>
<path opacity="0.3" d="M199.256 135.495C199.256 135.495 197.756 132.265 195.563 131.502C193.371 130.739 190.905 132.412 190.905 132.412L190.606 131.699C190.606 131.699 193.237 130.173 195.627 130.867C198.017 131.56 199.657 135.228 199.657 135.228L199.256 135.495Z" fill="white"/>
<path opacity="0.3" d="M192.068 144.326C190.574 143.786 189.322 141.503 189.322 141.503L188.807 141.84C189.45 143.185 190.524 144.275 191.858 144.937C194.063 145.999 196.625 144.301 196.625 144.301L196.282 143.856C195.662 144.251 194.96 144.498 194.229 144.58C193.499 144.661 192.76 144.575 192.068 144.326Z" fill="white"/>
<path opacity="0.3" d="M203.908 138.293L214.217 140.709L214.503 139.475L204.086 137.066C203.978 137.822 203.908 138.293 203.908 138.293Z" fill="white"/>
<path opacity="0.3" d="M194.724 127.529C199.955 127.936 205.211 122.01 205.211 122.01C204.972 121.726 204.703 121.469 204.41 121.241C201.503 121.048 198.584 121.092 195.684 121.374C194.506 121.877 193.373 122.479 192.297 123.173C192.297 123.173 190.58 127.217 194.724 127.529Z" fill="white"/>
<path d="M200.667 109.186C200.667 109.866 200.667 110.648 200.667 111.487C200.813 115.251 201.557 120.064 203.991 121.711C203.065 123.068 201.857 124.208 200.45 125.055C199.042 125.901 197.469 126.432 195.837 126.613C192.659 127.064 192.144 124.896 192.659 123.568C193.834 123.173 194.805 122.33 195.36 121.221C195.995 119.708 195.481 117.909 194.724 116.218L200.667 109.186Z" fill="#EEC1BB"/>
<path d="M190.994 103.896C193.148 104.812 192.716 107.17 189.087 111.449C186.888 109.542 185.731 105.174 186.901 103.82C188.07 102.465 189.112 103.108 190.994 103.896Z" fill="#263238"/>
<path d="M199.873 105.829C200.4 109.281 200.89 111.659 200.387 113.821C200.198 114.633 199.871 115.407 199.421 116.11C196.669 120.446 190.523 119.549 188.394 115.169C188.331 115.029 188.267 114.883 188.21 114.736C186.456 110.731 185.808 104.106 189.799 101.385C190.708 100.757 191.763 100.374 192.862 100.27C193.962 100.167 195.069 100.347 196.079 100.793C197.09 101.239 197.969 101.937 198.633 102.82C199.297 103.702 199.724 104.741 199.873 105.835V105.829Z" fill="#EEC1BB"/>
<path d="M193.212 108.582C193.289 108.963 193.155 109.313 192.907 109.364C192.659 109.415 192.405 109.154 192.322 108.779C192.239 108.404 192.373 108.054 192.615 107.997C192.856 107.94 193.13 108.219 193.212 108.582Z" fill="#263238"/>
<path d="M188.954 109.51C189.037 109.892 188.897 110.241 188.655 110.292C188.413 110.343 188.14 110.082 188.057 109.701C187.975 109.319 188.108 108.976 188.356 108.925C188.604 108.874 188.871 109.135 188.954 109.51Z" fill="#263238"/>
<path d="M190.39 109.389C190.186 110.638 189.812 111.853 189.278 113.001C189.58 113.133 189.907 113.197 190.237 113.189C190.566 113.18 190.89 113.098 191.184 112.95L190.39 109.389Z" fill="#ED847E"/>
<path d="M194.114 106.98C194.164 106.978 194.212 106.958 194.248 106.922C194.269 106.901 194.286 106.876 194.298 106.848C194.309 106.82 194.315 106.79 194.315 106.76C194.315 106.73 194.309 106.7 194.298 106.672C194.286 106.645 194.269 106.619 194.248 106.598C193.982 106.357 193.662 106.183 193.314 106.091C192.967 105.999 192.603 105.992 192.252 106.07C192.224 106.077 192.197 106.089 192.174 106.106C192.151 106.124 192.131 106.145 192.116 106.17C192.101 106.195 192.092 106.223 192.088 106.251C192.084 106.28 192.086 106.309 192.093 106.337C192.11 106.395 192.148 106.445 192.2 106.474C192.253 106.504 192.315 106.512 192.373 106.496C192.651 106.438 192.939 106.446 193.213 106.522C193.487 106.597 193.74 106.736 193.949 106.929C193.996 106.966 194.055 106.984 194.114 106.98Z" fill="#263238"/>
<path d="M186.691 108.486C186.732 108.476 186.77 108.456 186.801 108.427C186.833 108.398 186.856 108.362 186.869 108.321C186.928 108.043 187.052 107.783 187.231 107.561C187.41 107.34 187.639 107.165 187.898 107.05C187.955 107.028 188 106.985 188.025 106.931C188.05 106.876 188.053 106.814 188.032 106.757C188.013 106.702 187.973 106.656 187.921 106.63C187.868 106.603 187.808 106.599 187.752 106.617C187.42 106.757 187.126 106.975 186.895 107.253C186.665 107.531 186.506 107.86 186.43 108.213C186.423 108.241 186.421 108.27 186.425 108.299C186.429 108.328 186.438 108.355 186.453 108.38C186.468 108.405 186.488 108.427 186.511 108.444C186.534 108.461 186.561 108.473 186.589 108.48H186.691V108.486Z" fill="#263238"/>
<path d="M197.152 102.116C195.144 103.324 195.913 105.606 200.108 109.319C202.014 107.1 202.542 102.631 201.182 101.435C199.822 100.24 198.932 101.092 197.152 102.116Z" fill="#263238"/>
<path d="M192.023 115.258C191.984 115.257 191.946 115.243 191.916 115.217C191.886 115.192 191.865 115.157 191.858 115.118C191.852 115.073 191.863 115.028 191.889 114.992C191.915 114.955 191.954 114.93 191.998 114.921C192.572 114.867 193.121 114.659 193.585 114.317C194.05 113.975 194.413 113.514 194.635 112.982C194.641 112.96 194.651 112.94 194.665 112.923C194.679 112.905 194.697 112.891 194.716 112.881C194.736 112.871 194.758 112.865 194.78 112.863C194.802 112.862 194.824 112.866 194.845 112.873C194.887 112.885 194.923 112.913 194.944 112.952C194.966 112.99 194.971 113.035 194.96 113.077C194.723 113.673 194.326 114.193 193.812 114.576C193.298 114.96 192.688 115.194 192.049 115.251L192.023 115.258Z" fill="#263238"/>
<path d="M197.47 103.686C197.47 103.686 197.241 101.105 193.93 101.257C190.619 101.41 189.519 105.072 189.519 105.072C189.328 104.72 189.213 104.33 189.184 103.93C189.154 103.53 189.21 103.128 189.348 102.752C188.609 103.567 188.178 104.615 188.127 105.714C188.127 105.714 187.492 105.193 187.307 103.394L186.583 105.543C186.583 105.543 184.892 102.688 188.623 99.4199C192.354 96.1519 202.663 97.1374 200.584 101.747L197.47 103.686Z" fill="#263238"/>
<path d="M191.585 110.858C191.498 110.858 191.414 110.831 191.343 110.782C191.293 110.75 191.249 110.708 191.215 110.659C191.181 110.61 191.158 110.554 191.146 110.496L190.822 108.887C190.8 108.77 190.825 108.649 190.891 108.55C190.958 108.451 191.061 108.382 191.178 108.359L194.108 107.768C194.166 107.756 194.225 107.755 194.283 107.767C194.341 107.778 194.396 107.8 194.445 107.833C194.494 107.865 194.536 107.907 194.569 107.956C194.601 108.005 194.624 108.06 194.636 108.118L194.96 109.733C194.984 109.849 194.961 109.97 194.896 110.07C194.827 110.166 194.725 110.233 194.61 110.26L191.674 110.852H191.585V110.858ZM194.184 108.08L191.248 108.671C191.215 108.678 191.186 108.698 191.167 108.727C191.148 108.755 191.141 108.79 191.146 108.823L191.477 110.438C191.485 110.47 191.503 110.499 191.528 110.521C191.56 110.534 191.597 110.534 191.629 110.521L194.559 109.93C194.576 109.926 194.592 109.919 194.606 109.91C194.621 109.9 194.633 109.887 194.642 109.872C194.654 109.842 194.654 109.808 194.642 109.777L194.318 108.162C194.308 108.139 194.291 108.119 194.269 108.105C194.248 108.092 194.222 108.085 194.197 108.086L194.184 108.08Z" fill="#263238"/>
<path d="M186.793 111.824C186.689 111.825 186.588 111.789 186.508 111.722C186.428 111.656 186.373 111.564 186.354 111.462L186.03 109.853C186.018 109.796 186.017 109.736 186.028 109.678C186.04 109.621 186.062 109.566 186.095 109.517C186.127 109.467 186.169 109.425 186.218 109.393C186.267 109.36 186.322 109.337 186.379 109.326L189.309 108.734C189.367 108.722 189.426 108.722 189.484 108.733C189.542 108.744 189.597 108.767 189.646 108.799C189.695 108.832 189.737 108.874 189.77 108.922C189.803 108.971 189.826 109.026 189.837 109.084L190.161 110.699C190.173 110.757 190.174 110.816 190.163 110.874C190.151 110.932 190.129 110.987 190.096 111.036C190.064 111.085 190.022 111.127 189.973 111.16C189.924 111.193 189.869 111.215 189.812 111.227L186.882 111.812L186.793 111.824ZM189.392 109.04L186.462 109.631C186.429 109.639 186.4 109.659 186.381 109.687C186.362 109.715 186.355 109.75 186.36 109.783L186.685 111.392C186.688 111.409 186.694 111.425 186.703 111.439C186.713 111.454 186.725 111.466 186.739 111.475C186.753 111.485 186.769 111.491 186.786 111.495C186.803 111.498 186.82 111.497 186.837 111.494L189.767 110.909C189.8 110.901 189.829 110.881 189.848 110.853C189.867 110.824 189.874 110.79 189.869 110.756L189.545 109.141C189.538 109.109 189.52 109.08 189.492 109.061C189.465 109.042 189.431 109.034 189.398 109.04H189.392Z" fill="#263238"/>
<path d="M189.767 109.688C189.747 109.688 189.727 109.685 189.708 109.677C189.69 109.669 189.673 109.658 189.659 109.644C189.63 109.614 189.614 109.574 189.614 109.532C189.614 109.491 189.63 109.451 189.659 109.421C189.85 109.234 190.09 109.106 190.351 109.052C190.613 108.998 190.884 109.02 191.133 109.116C191.153 109.124 191.171 109.135 191.187 109.15C191.202 109.165 191.214 109.182 191.222 109.202C191.231 109.222 191.235 109.243 191.235 109.264C191.235 109.285 191.231 109.306 191.222 109.326C191.215 109.345 191.205 109.363 191.19 109.378C191.176 109.394 191.159 109.406 191.14 109.414C191.121 109.422 191.1 109.427 191.08 109.427C191.059 109.427 191.038 109.423 191.019 109.415C190.83 109.341 190.623 109.323 190.424 109.362C190.225 109.401 190.041 109.497 189.894 109.637C189.878 109.655 189.858 109.668 189.836 109.677C189.814 109.686 189.791 109.69 189.767 109.688Z" fill="#263238"/>
<path d="M194.546 108.652C194.51 108.651 194.476 108.638 194.448 108.615C194.42 108.592 194.401 108.56 194.394 108.525C194.389 108.504 194.389 108.483 194.392 108.462C194.396 108.442 194.403 108.422 194.415 108.404C194.426 108.386 194.44 108.371 194.458 108.359C194.475 108.347 194.494 108.338 194.515 108.334L200.057 107.062C200.077 107.058 200.098 107.057 200.119 107.06C200.14 107.064 200.16 107.072 200.177 107.083C200.195 107.094 200.21 107.109 200.222 107.126C200.234 107.143 200.243 107.163 200.247 107.183C200.252 107.203 200.253 107.225 200.249 107.245C200.246 107.266 200.238 107.286 200.227 107.304C200.216 107.321 200.201 107.337 200.184 107.349C200.167 107.361 200.147 107.369 200.127 107.374L194.585 108.645L194.546 108.652Z" fill="#263238"/>
<path d="M202.879 109.059C202.797 110.251 202.246 111.362 201.347 112.149C200.152 113.179 198.887 112.263 198.659 110.782C198.455 109.446 198.837 107.304 200.311 106.846C201.786 106.388 202.974 107.596 202.879 109.059Z" fill="#EEC1BB"/>
<path d="M134.854 214.862C134.854 214.862 145.411 176.612 147.159 174.412C149.993 170.82 177.323 167.024 177.323 167.024L184.473 154.658L210.289 158.276C210.289 158.276 208.383 176.441 205.205 181.12C202.027 185.8 160.429 185.018 157.665 185.927C154.9 186.836 144.439 216.693 144.439 216.693L134.854 214.862Z" fill="#263238"/>
<path opacity="0.2" d="M177.348 167.024L186.672 165.975L178.346 165.301L177.348 167.024Z" fill="black"/>
<path opacity="0.2" d="M134.854 214.856L144.483 216.687C144.483 216.687 154.938 186.836 157.709 185.927C160.48 185.018 202.091 185.8 205.249 181.12C208.408 176.441 210.334 158.276 210.334 158.276L184.517 154.658L182.407 158.314L181.225 160.355L177.323 167.024C177.323 167.024 149.993 170.839 147.133 174.412C145.411 176.606 134.854 214.856 134.854 214.856Z" fill="white"/>
<path d="M196.714 165.308C196.714 165.308 166.74 153.819 158.58 157.004C150.419 160.19 124.615 188.991 124.615 188.991L130.45 196.379C130.45 196.379 156.584 171.539 159.641 170.121C162.698 168.703 193.39 184.108 193.39 184.108L196.714 165.308Z" fill="#263238"/>
<path opacity="0.2" d="M196.714 165.308C196.714 165.308 166.74 153.819 158.58 157.004C150.419 160.19 124.615 188.991 124.615 188.991L130.45 196.379C130.45 196.379 156.584 171.539 159.641 170.121C162.698 168.703 193.39 184.108 193.39 184.108L196.714 165.308Z" fill="white"/>
<path d="M120.319 200.531L117.713 196.157L125.613 188.775L128.213 193.143L120.319 200.531Z" fill="#EEC1BB"/>
<path opacity="0.2" d="M128.213 193.143L125.607 188.775L121.094 192.997L123.865 197.219L128.213 193.143Z" fill="black"/>
<path d="M117.256 195.616C117.256 195.616 117.224 195.54 117.256 195.534L117.217 195.451L117.262 195.527C117.319 195.483 118.482 194.631 118.533 193.925C118.535 193.837 118.517 193.75 118.481 193.669C118.444 193.589 118.391 193.518 118.323 193.461C118.253 193.39 118.161 193.344 118.062 193.331C117.963 193.318 117.862 193.34 117.777 193.391C117.45 193.685 117.241 194.087 117.186 194.523C117.122 194.033 116.886 193.582 116.518 193.251C116.452 193.215 116.378 193.196 116.302 193.196C116.227 193.196 116.152 193.215 116.086 193.251C115.975 193.297 115.879 193.373 115.809 193.471C115.739 193.569 115.699 193.684 115.692 193.804C115.729 194.143 115.889 194.455 116.143 194.682C116.454 195.011 116.802 195.303 117.179 195.553C117.176 195.559 117.175 195.565 117.175 195.572C117.175 195.578 117.176 195.585 117.179 195.591C117.179 195.591 117.179 195.591 117.217 195.591C117.228 195.603 117.241 195.611 117.256 195.616ZM117.84 193.62C117.897 193.582 117.993 193.556 118.12 193.671L118.164 193.709C118.227 193.781 118.259 193.874 118.253 193.97C118.253 194.389 117.669 194.961 117.3 195.279V195.159C117.296 194.599 117.487 194.055 117.84 193.62ZM115.883 193.855C115.892 193.78 115.92 193.709 115.965 193.647C116.009 193.586 116.068 193.537 116.137 193.505C116.17 193.488 116.207 193.479 116.245 193.479C116.283 193.479 116.32 193.488 116.353 193.505C116.671 193.671 116.919 194.58 117.039 195.273C116.309 194.707 115.87 194.192 115.883 193.855Z" fill="#407BFF"/>
<path d="M117.955 195.476L121.768 199.717C121.835 199.785 121.872 199.876 121.872 199.972C121.872 200.067 121.835 200.158 121.768 200.226L118.59 203.462C118.414 203.622 118.181 203.706 117.943 203.696C117.705 203.685 117.48 203.58 117.319 203.405C116.01 201.904 115.457 201.122 113.785 199.247C112.756 198.102 110.607 195.928 109.451 194.16C108.294 192.393 110.086 191.267 110.722 191.922C112.273 193.474 115.317 194.726 117.078 195.038C117.412 195.076 117.723 195.231 117.955 195.476Z" fill="#263238"/>
<path d="M129.509 198.719L121.978 190.441L125.124 186.715L133.208 195.953L129.509 198.719Z" fill="#407BFF"/>
<path opacity="0.2" d="M129.509 198.719L121.978 190.441L125.124 186.715L133.208 195.953L129.509 198.719Z" fill="white"/>
<path d="M133.049 223.401C133.049 223.401 132.986 223.35 132.986 223.344L132.916 223.286L132.992 223.337C132.992 223.261 133.627 221.951 133.303 221.328C133.263 221.248 133.205 221.179 133.133 221.126C133.062 221.073 132.978 221.038 132.89 221.023C132.795 220.994 132.693 220.998 132.6 221.035C132.508 221.072 132.431 221.14 132.382 221.226C132.241 221.641 132.255 222.092 132.42 222.498C132.045 222.104 131.581 221.709 131.219 221.729C131.144 221.732 131.071 221.755 131.007 221.795C130.944 221.835 130.892 221.891 130.856 221.957C130.781 222.051 130.734 222.164 130.721 222.283C130.707 222.403 130.728 222.523 130.78 222.631C130.979 222.909 131.273 223.103 131.606 223.178C132.039 223.31 132.484 223.396 132.935 223.433C132.941 223.436 132.947 223.438 132.954 223.438C132.96 223.438 132.967 223.436 132.973 223.433C132.973 223.433 132.973 223.433 133.005 223.433C133.023 223.428 133.039 223.416 133.049 223.401ZM132.592 221.373C132.592 221.309 132.687 221.245 132.858 221.284H132.909C132.955 221.299 132.997 221.323 133.033 221.354C133.069 221.386 133.098 221.425 133.119 221.468C133.225 222.009 133.158 222.569 132.928 223.07L132.852 222.975C132.58 222.488 132.487 221.921 132.592 221.373ZM130.99 222.53C130.963 222.459 130.954 222.382 130.964 222.306C130.974 222.231 131.002 222.159 131.047 222.097C131.065 222.065 131.091 222.038 131.122 222.018C131.153 221.998 131.188 221.986 131.225 221.983C131.581 221.983 132.248 222.619 132.687 223.191C131.772 223.07 131.142 222.835 130.99 222.53Z" fill="#407BFF"/>
<path d="M138.121 226.192L133.717 223.649L137.225 212.948L141.629 215.498L138.121 226.192Z" fill="#EEC1BB"/>
<path opacity="0.2" d="M141.629 215.498L137.225 212.955L135.217 219.071L139.704 221.392L141.629 215.498Z" fill="black"/>
<path d="M133.596 222.937L139.004 224.768C139.05 224.781 139.092 224.803 139.128 224.832C139.165 224.862 139.196 224.898 139.218 224.94C139.241 224.981 139.255 225.027 139.259 225.073C139.264 225.12 139.26 225.168 139.246 225.213L138.064 229.587C137.987 229.811 137.825 229.996 137.614 230.101C137.402 230.207 137.158 230.226 136.932 230.153C135.058 229.485 134.193 229.072 131.848 228.245C130.386 227.743 127.456 226.904 125.569 225.906C123.681 224.908 124.711 223.07 125.6 223.324C127.704 223.922 130.977 223.534 132.693 222.924C132.988 222.832 133.304 222.836 133.596 222.937Z" fill="#263238"/>
<path d="M144.07 220.12L133.462 216.579L134.384 211.791L145.951 215.905L144.07 220.12Z" fill="#407BFF"/>
<path opacity="0.2" d="M144.07 220.12L133.462 216.579L134.384 211.791L145.951 215.905L144.07 220.12Z" fill="white"/>
<path opacity="0.2" d="M190.454 182.678C190.454 182.678 163.76 169.231 158.898 167.419C154.036 165.607 143.644 171.38 141.833 185.66L143.975 183.32C143.975 183.32 146.466 175.519 147.152 174.419C147.839 173.319 160.652 171.418 160.652 171.418C160.652 171.418 180.443 181.343 190.454 182.678Z" fill="black"/>
<path opacity="0.2" d="M181.206 160.349L193.377 164.074C193.377 164.074 186.278 160.082 182.407 158.314L181.206 160.349Z" fill="black"/>
<path opacity="0.4" d="M202.237 157.882L210.315 158.893L210.004 161.34L201.392 160.323L202.237 157.882Z" fill="black"/>
<path opacity="0.4" d="M201.004 157.659L200.152 160.126L183.52 157.487L184.556 155.269L201.004 157.659Z" fill="black"/>
<path d="M192.246 157.042L191.68 158.67C191.605 158.869 191.465 159.035 191.282 159.143C191.1 159.251 190.886 159.292 190.676 159.261L187.822 158.765C187.728 158.752 187.639 158.717 187.56 158.664C187.482 158.611 187.416 158.541 187.368 158.459C187.32 158.378 187.29 158.286 187.282 158.192C187.274 158.097 187.287 158.002 187.32 157.913L187.886 156.279C187.959 156.082 188.099 155.916 188.281 155.809C188.462 155.703 188.675 155.662 188.884 155.694L191.737 156.19C191.832 156.203 191.922 156.238 192.001 156.29C192.081 156.343 192.147 156.413 192.196 156.494C192.245 156.576 192.275 156.668 192.283 156.763C192.292 156.858 192.279 156.953 192.246 157.042Z" fill="white"/>
<path d="M200.896 187.325L202.942 163.903C203.152 161.53 204.241 159.322 205.996 157.712C207.751 156.103 210.044 155.208 212.425 155.205H247.464C248.019 155.205 248.569 155.32 249.077 155.543C249.586 155.767 250.042 156.094 250.418 156.504C250.793 156.913 251.079 157.397 251.258 157.923C251.436 158.449 251.504 159.007 251.455 159.56L250.953 165.282C250.874 166.194 250.486 167.051 249.852 167.71C249.218 168.37 248.377 168.792 247.47 168.906L246.345 169.053C245.669 169.139 245.043 169.454 244.572 169.946C244.1 170.437 243.81 171.076 243.752 171.755L241.013 203.074C240.91 204.174 240.403 205.196 239.589 205.942C238.775 206.689 237.712 207.105 236.608 207.112H200.896V187.325Z" fill="#263238"/>
<path opacity="0.6" d="M200.896 187.325L202.942 163.903C203.152 161.53 204.241 159.322 205.996 157.712C207.751 156.103 210.044 155.208 212.425 155.205H247.464C248.019 155.205 248.569 155.32 249.077 155.543C249.586 155.767 250.042 156.094 250.418 156.504C250.793 156.913 251.079 157.397 251.258 157.923C251.436 158.449 251.504 159.007 251.455 159.56L250.953 165.282C250.874 166.194 250.486 167.051 249.852 167.71C249.218 168.37 248.377 168.792 247.47 168.906L246.345 169.053C245.669 169.139 245.043 169.454 244.572 169.946C244.1 170.437 243.81 171.076 243.752 171.755L241.013 203.074C240.91 204.174 240.403 205.196 239.589 205.942C238.775 206.689 237.712 207.105 236.608 207.112H200.896V187.325Z" fill="white"/>
<g opacity="0.2">
<path opacity="0.2" d="M215.743 203.062L218.482 171.742C218.54 171.063 218.83 170.424 219.301 169.933C219.773 169.441 220.399 169.126 221.075 169.04L222.206 168.894C223.113 168.78 223.954 168.358 224.587 167.698C225.22 167.038 225.607 166.181 225.683 165.27L226.185 159.547C226.233 158.994 226.166 158.436 225.988 157.91C225.809 157.384 225.523 156.901 225.148 156.491C224.772 156.081 224.316 155.754 223.807 155.531C223.299 155.307 222.749 155.192 222.194 155.192H247.464C248.019 155.192 248.569 155.307 249.077 155.531C249.586 155.754 250.042 156.081 250.418 156.491C250.793 156.901 251.079 157.384 251.258 157.91C251.436 158.436 251.504 158.994 251.455 159.547L250.953 165.27C250.874 166.181 250.486 167.038 249.852 167.698C249.218 168.357 248.377 168.779 247.47 168.894L246.345 169.04C245.669 169.126 245.043 169.441 244.571 169.933C244.1 170.424 243.81 171.063 243.752 171.742L241.013 203.062C240.91 204.161 240.403 205.184 239.589 205.93C238.775 206.676 237.712 207.093 236.608 207.099H211.338C212.442 207.093 213.504 206.676 214.318 205.93C215.133 205.184 215.64 204.161 215.743 203.062Z" fill="black"/>
</g>
<path opacity="0.1" d="M200.896 187.325L202.942 163.903C203.152 161.53 204.241 159.322 205.996 157.712C207.751 156.103 210.044 155.208 212.425 155.205H222.194C222.749 155.205 223.299 155.32 223.807 155.543C224.316 155.767 224.772 156.094 225.148 156.504C225.523 156.913 225.809 157.397 225.988 157.923C226.166 158.449 226.234 159.007 226.185 159.56L225.683 165.282C225.607 166.194 225.22 167.051 224.587 167.711C223.954 168.371 223.113 168.793 222.206 168.906L221.075 169.053C220.399 169.139 219.773 169.454 219.301 169.946C218.83 170.437 218.54 171.076 218.482 171.755L215.743 203.074C215.64 204.174 215.133 205.196 214.319 205.942C213.505 206.689 212.442 207.105 211.338 207.112H200.896V187.325Z" fill="white"/>
</svg>
