<svg width="318" height="237" viewBox="0 0 318 237" fill="none" xmlns="http://www.w3.org/2000/svg">
<path d="M317.783 208.161H0V208.32H317.783V208.161Z" fill="#E6E6E6"/>
<path d="M79.3313 217.78H58.2813V217.939H79.3313V217.78Z" fill="#E6E6E6"/>
<path d="M51.6206 217.78H39.4241V217.939H51.6206V217.78Z" fill="#E6E6E6"/>
<path d="M133.818 220.12H121.622V220.279H133.818V220.12Z" fill="#E6E6E6"/>
<path d="M197.413 223.668H169.963V223.827H197.413V223.668Z" fill="#E6E6E6"/>
<path d="M164.306 223.668H160.283V223.827H164.306V223.668Z" fill="#E6E6E6"/>
<path d="M288.133 220.12H228.594V220.279H288.133V220.12Z" fill="#E6E6E6"/>
<path d="M150.629 179.804H27.9077C26.9463 179.802 26.0249 179.419 25.3457 178.738C24.6664 178.058 24.285 177.135 24.285 176.174V3.59865C24.2933 2.64243 24.6785 1.72812 25.3568 1.05432C26.0351 0.38053 26.9518 0.00166858 27.9077 3.05176e-05H150.629C151.591 3.05176e-05 152.515 0.382519 153.195 1.06335C153.876 1.74419 154.258 2.6676 154.258 3.63044V176.174C154.258 177.136 153.876 178.06 153.195 178.741C152.515 179.422 151.591 179.804 150.629 179.804ZM27.9077 0.127191C26.9884 0.128875 26.1074 0.495359 25.458 1.1462C24.8086 1.79705 24.4439 2.67906 24.4439 3.59865V176.174C24.4439 177.093 24.8086 177.975 25.458 178.626C26.1074 179.277 26.9884 179.643 27.9077 179.645H150.629C151.549 179.643 152.43 179.277 153.081 178.626C153.731 177.976 154.098 177.094 154.099 176.174V3.59865C154.098 2.67848 153.731 1.79648 153.081 1.14581C152.43 0.495153 151.549 0.128871 150.629 0.127191H27.9077Z" fill="#E6E6E6"/>
<path d="M288.108 179.804H165.38C164.418 179.802 163.496 179.419 162.816 178.739C162.136 178.058 161.753 177.136 161.751 176.174V3.59865C161.761 2.64185 162.148 1.72755 162.827 1.05393C163.507 0.380307 164.424 0.00165072 165.38 3.05176e-05H288.108C289.063 0.00333953 289.978 0.38294 290.655 1.05656C291.332 1.73017 291.716 2.64353 291.724 3.59865V176.174C291.724 177.134 291.344 178.056 290.666 178.736C289.988 179.417 289.068 179.801 288.108 179.804ZM165.38 0.127191C164.461 0.128871 163.579 0.495153 162.929 1.14581C162.278 1.79648 161.912 2.67848 161.91 3.59865V176.174C161.912 177.094 162.278 177.976 162.929 178.626C163.579 179.277 164.461 179.643 165.38 179.645H288.108C289.028 179.643 289.91 179.277 290.56 178.626C291.21 177.976 291.577 177.094 291.578 176.174V3.59865C291.577 2.67848 291.21 1.79648 290.56 1.14581C289.91 0.495153 289.028 0.128871 288.108 0.127191H165.38Z" fill="#E6E6E6"/>
<path d="M169.95 153.851H155.974V209.311H169.95V153.851Z" fill="#E0E0E0"/>
<path d="M167.293 209.311H169.95V201.758H164.51L167.293 209.311Z" fill="#FAFAFA"/>
<path d="M108.707 153.851H94.731V209.311H108.707V153.851Z" fill="#E0E0E0"/>
<path d="M169.95 153.851H106.394V204.676H169.95V153.851Z" fill="#FAFAFA"/>
<path d="M167.643 156.349V169.796H108.682V156.349H167.624H167.643ZM167.872 156.101H108.453V170.038H167.891V156.101H167.872Z" fill="#E0E0E0"/>
<path d="M109.044 209.311H106.394V201.758H111.828L109.044 209.311Z" fill="#FAFAFA"/>
<path d="M136.767 163.07C136.767 163.348 136.85 163.619 137.004 163.85C137.158 164.081 137.378 164.262 137.634 164.368C137.891 164.474 138.173 164.502 138.446 164.448C138.718 164.394 138.969 164.26 139.165 164.063C139.362 163.867 139.495 163.616 139.549 163.344C139.604 163.071 139.576 162.789 139.47 162.532C139.363 162.275 139.183 162.056 138.952 161.901C138.721 161.747 138.45 161.665 138.172 161.665C137.799 161.665 137.442 161.813 137.179 162.076C136.915 162.34 136.767 162.697 136.767 163.07Z" fill="#E6E6E6"/>
<path d="M167.643 172.537V185.984H108.682V172.537H167.624H167.643ZM167.872 172.295H108.453V186.232H167.891V172.302L167.872 172.295Z" fill="#E0E0E0"/>
<path d="M136.767 179.295C136.767 179.573 136.85 179.845 137.004 180.076C137.158 180.307 137.378 180.487 137.634 180.593C137.891 180.7 138.173 180.728 138.446 180.673C138.718 180.619 138.969 180.485 139.165 180.289C139.362 180.092 139.495 179.842 139.549 179.569C139.604 179.297 139.576 179.014 139.47 178.758C139.363 178.501 139.183 178.281 138.952 178.127C138.721 177.973 138.45 177.89 138.172 177.89C137.799 177.89 137.442 178.038 137.179 178.302C136.915 178.565 136.767 178.923 136.767 179.295Z" fill="#E6E6E6"/>
<path d="M167.643 188.731V202.184H108.682V188.731H167.624H167.643ZM167.872 188.483H108.453V202.426H167.891V188.483H167.872Z" fill="#E0E0E0"/>
<path d="M136.767 195.457C136.769 195.735 136.852 196.006 137.007 196.236C137.162 196.466 137.382 196.646 137.639 196.751C137.896 196.856 138.178 196.883 138.45 196.828C138.722 196.773 138.972 196.639 139.167 196.442C139.363 196.246 139.496 195.995 139.55 195.723C139.604 195.45 139.575 195.168 139.469 194.912C139.362 194.655 139.182 194.436 138.952 194.282C138.721 194.128 138.449 194.046 138.172 194.046C137.987 194.046 137.804 194.082 137.633 194.153C137.462 194.224 137.307 194.328 137.176 194.46C137.046 194.591 136.943 194.746 136.872 194.918C136.802 195.089 136.766 195.272 136.767 195.457Z" fill="#E6E6E6"/>
<path d="M100.171 121.641H86.1953V209.318H100.171V121.641Z" fill="#E0E0E0"/>
<path d="M97.5148 209.311H100.171V201.758H94.7374L97.5148 209.311Z" fill="#FAFAFA"/>
<path d="M47.9407 121.641H33.9646V209.318H47.9407V121.641Z" fill="#E0E0E0"/>
<path d="M100.171 121.641H45.6209V204.683H100.171V121.641Z" fill="#FAFAFA"/>
<path d="M97.8199 123.981V142.781H47.9725V123.981H97.8199ZM98.1122 123.695H47.6674V143.055H98.0995V123.701L98.1122 123.695Z" fill="#E0E0E0"/>
<path d="M97.8199 145.077V194.942H74.0751V145.077H97.8199ZM98.1122 144.784H73.7891V195.235H98.1122V144.784Z" fill="#E0E0E0"/>
<path d="M71.7172 145.077V194.942H47.9725V145.077H71.7172ZM72.0032 144.784H47.6674V195.235H71.9905V144.784H72.0032Z" fill="#E0E0E0"/>
<path d="M48.2775 209.311H45.6209V201.758H51.0613L48.2775 209.311Z" fill="#FAFAFA"/>
<path d="M71.4884 133.391C71.4871 133.67 71.5688 133.944 71.7231 134.177C71.8773 134.409 72.0973 134.591 72.355 134.699C72.6127 134.807 72.8966 134.836 73.1707 134.782C73.4448 134.728 73.6968 134.594 73.8948 134.397C74.0927 134.2 74.2277 133.949 74.2827 133.675C74.3377 133.401 74.3101 133.117 74.2035 132.858C74.0969 132.6 73.916 132.379 73.6839 132.224C73.4517 132.068 73.1787 131.986 72.8993 131.986C72.5262 131.986 72.1683 132.133 71.9039 132.397C71.6395 132.66 71.4901 133.017 71.4884 133.391Z" fill="#E6E6E6"/>
<path d="M76.522 168.824C76.5221 169.103 76.605 169.376 76.7603 169.609C76.9156 169.841 77.1363 170.022 77.3945 170.128C77.6527 170.235 77.9367 170.263 78.2106 170.208C78.4845 170.153 78.7359 170.018 78.9329 169.819C79.13 169.621 79.2639 169.369 79.3176 169.095C79.3713 168.821 79.3425 168.537 79.2347 168.279C79.127 168.021 78.9451 167.801 78.7123 167.647C78.4794 167.493 78.206 167.411 77.9266 167.412C77.7417 167.412 77.5585 167.449 77.3877 167.52C77.2168 167.591 77.0617 167.695 76.9312 167.826C76.8007 167.957 76.6973 168.113 76.6271 168.284C76.5569 168.455 76.5212 168.639 76.522 168.824Z" fill="#E6E6E6"/>
<path d="M66.461 168.824C66.4623 169.101 66.5457 169.372 66.7008 169.603C66.8559 169.833 67.0757 170.012 67.3325 170.117C67.5893 170.223 67.8715 170.25 68.1435 170.195C68.4156 170.14 68.6652 170.005 68.861 169.809C69.0568 169.612 69.19 169.362 69.2437 169.089C69.2974 168.817 69.2692 168.535 69.1627 168.278C69.0562 168.022 68.8761 167.803 68.6453 167.649C68.4145 167.494 68.1431 167.412 67.8656 167.412C67.6806 167.412 67.4975 167.449 67.3266 167.52C67.1558 167.591 67.0007 167.695 66.8702 167.826C66.7396 167.957 66.6363 168.113 66.5661 168.284C66.4959 168.455 66.4602 168.639 66.461 168.824Z" fill="#E6E6E6"/>
<path d="M64.8721 97.1946H58.9804C59.5234 100.054 59.8653 102.947 60.0037 105.854C60.0037 109.033 55.5166 121.641 61.9104 121.641C68.3042 121.641 63.8171 109.065 63.8171 105.854C63.966 102.947 64.3185 100.053 64.8721 97.1946Z" fill="#E0E0E0"/>
<path d="M42.4557 110.089V113.903C42.4625 115.948 43.2775 117.908 44.723 119.354C46.1686 120.8 48.1272 121.615 50.1715 121.622H53.9849C56.0292 121.615 57.9878 120.8 59.4334 119.354C60.8789 117.908 61.694 115.948 61.7007 113.903V110.089H42.4557Z" fill="#F5F5F5"/>
<path d="M124.361 145.763C124.361 150.214 129.338 153.851 135.42 153.851H140.911C146.994 153.851 151.97 150.214 151.97 145.763H124.361Z" fill="#E0E0E0"/>
<path d="M269.867 139.24C266.537 141.961 261.935 146.94 257.728 153.946C254.919 158.613 253.228 163.483 252.485 169.955C252.485 162.644 252.529 154.792 252.555 147.378C253.4 145.471 255.332 141.071 256.717 137.6C261.338 126.009 263.073 123.154 267.223 113.16C272.772 99.8077 278.454 84.0018 276.827 85.267C273.509 87.842 260.798 111.653 259.425 115.061C255.683 124.155 253.37 133.774 252.567 143.576C252.567 136.582 252.618 130.224 252.643 125.291C252.732 109.198 253.006 104.004 253.139 102.402C253.654 101.588 254.258 100.641 254.614 100.132C257.601 95.8086 258.751 92.1336 261.56 85.6866C265.552 76.5629 268.984 60.3564 267.98 61.1702C263.798 64.5781 260.505 71.8898 256.171 81.217C251.836 90.5441 253.076 95.9039 252.218 103.864C252.04 105.428 251.9 111.328 251.798 119.498C250.68 110.788 248.57 105.053 244.724 99.8395C239.996 93.4243 235.42 89.0945 232.064 86.8311C228.708 84.5676 237.86 100.323 242.233 107.177C246.129 113.306 249.72 118.704 251.766 124.025C251.658 135.107 251.608 149.133 251.608 162.173C250.603 156.235 248.964 149.832 246.777 144.88C244.146 138.928 240.104 129.798 236.881 126.702C236.112 125.958 240.25 143.716 242.907 148.434C245.563 153.151 247.514 157.608 249.186 160.285C249.574 160.921 250.87 163.318 251.608 164.704C251.608 180.643 251.696 194.707 251.836 199.495H252.523C252.478 198.261 252.466 190.148 252.485 179.416C254.143 173.592 257.931 166.942 261.058 160.876C264.465 154.308 273.198 136.538 269.867 139.24Z" fill="#E0E0E0"/>
<path d="M262.133 209.311H242.214L240.708 189.78H263.639L262.133 209.311Z" fill="#F0F0F0"/>
<path d="M265.12 192.056H239.22L238.483 185.463H265.863L265.12 192.056Z" fill="#F5F5F5"/>
<path d="M78.9753 13.0339H43.3519V52.1673H78.9753V13.0339Z" fill="#E0E0E0"/>
<path d="M82.8332 13.0339H46.034V52.1673H82.8332V13.0339Z" fill="#F5F5F5"/>
<path d="M79.7507 49.0837V16.1175L49.1165 16.1175V49.0837H79.7507Z" fill="white"/>
<path d="M72.321 41.0853V24.1031H56.5399V41.0853H72.321Z" fill="#F5F5F5"/>
<path d="M260.614 17.5925H227.52V53.9475H260.614V17.5925Z" fill="#E0E0E0"/>
<path d="M264.198 17.5925H230.017V53.9475H264.198V17.5925Z" fill="#F5F5F5"/>
<path d="M261.338 51.0801V20.46H232.884V51.0801H261.338Z" fill="white"/>
<path d="M247.108 44.6522C252.011 44.6522 255.987 40.6755 255.987 35.7701C255.987 30.8646 252.011 26.888 247.108 26.888C242.204 26.888 238.229 30.8646 238.229 35.7701C238.229 40.6755 242.204 44.6522 247.108 44.6522Z" fill="#F5F5F5"/>
<path d="M115.984 36.3677H89.5575V65.3983H115.984V36.3677Z" fill="#E0E0E0"/>
<path d="M118.844 36.3677H91.5468V65.3983H118.844V36.3677Z" fill="#F5F5F5"/>
<path d="M116.556 63.1094V38.6566H93.8349V63.1094H116.556Z" fill="white"/>
<path d="M105.199 44.6967L98.9829 55.4671H111.415L105.199 44.6967Z" fill="#F5F5F5"/>
<path d="M158.891 236.873C226.949 236.873 282.121 233.651 282.121 229.676C282.121 225.701 226.949 222.479 158.891 222.479C90.8334 222.479 35.6616 225.701 35.6616 229.676C35.6616 233.651 90.8334 236.873 158.891 236.873Z" fill="#F5F5F5"/>
<path d="M221.971 68.9396L215.666 66.3965C215.666 66.3965 207.347 81.573 204.963 82.3423C201.722 83.385 195.01 86.2842 191.032 86.7929C190.492 87.4287 189.608 89.406 189.691 90.1245C195.036 91.9111 206.781 89.5395 209.298 87.6703C215.024 83.4295 221.971 68.9396 221.971 68.9396Z" fill="#E58A7B"/>
<path d="M223.91 65.4872C225.085 69.8297 218.717 78.5656 218.717 78.5656L210.372 73.8861C210.372 73.8861 211.936 70.2939 213.842 66.638C216.899 60.7315 222.569 60.5344 223.91 65.4872Z" fill="#407BFF"/>
<path opacity="0.2" d="M223.91 65.4872C225.085 69.8297 218.717 78.5656 218.717 78.5656L210.372 73.8861C210.372 73.8861 211.936 70.2939 213.842 66.638C216.899 60.7315 222.569 60.5344 223.91 65.4872Z" fill="black"/>
<path opacity="0.2" d="M213.683 75.7554L216.969 77.5992L217.548 67.509C215.635 68.9777 214.287 73.4029 213.683 75.7554Z" fill="black"/>
<path d="M218.418 62.2192C218.418 62.2192 211.923 76.6773 215.711 103.597H241.305C241.712 99.6678 240.364 80.4921 245.239 61.9776C242.431 61.4287 239.591 61.0655 236.735 60.8904C233.114 60.6805 229.483 60.6805 225.861 60.8904C223.35 61.1454 220.862 61.5896 218.418 62.2192Z" fill="#407BFF"/>
<path opacity="0.2" d="M218.418 62.2192C218.418 62.2192 211.923 76.6773 215.711 103.597H241.305C241.712 99.6678 240.364 80.4921 245.239 61.9776C242.431 61.4287 239.591 61.0655 236.735 60.8904C233.114 60.6805 229.483 60.6805 225.861 60.8904C223.35 61.1454 220.862 61.5896 218.418 62.2192Z" fill="black"/>
<g style="mix-blend-mode:multiply">
<path d="M212.482 230.248C212.444 230.935 222.149 231.488 234.155 231.488C246.161 231.488 255.936 230.935 255.974 230.248C256.012 229.562 246.313 229.015 234.301 229.015C222.289 229.015 212.527 229.568 212.482 230.248Z" fill="#E8ECF1"/>
</g>
<path d="M229.567 212.206L225.027 213.964L228.937 224.069L233.477 222.311L229.567 212.206Z" fill="#E58A7B"/>
<path d="M249.809 225.359H245.023L243.269 214.277H248.055L249.809 225.359Z" fill="#E58A7B"/>
<path d="M244.693 224.806H250.07C250.163 224.806 250.253 224.839 250.324 224.9C250.395 224.96 250.442 225.044 250.457 225.136L251.15 229.39C251.165 229.497 251.156 229.605 251.125 229.708C251.094 229.811 251.041 229.907 250.97 229.987C250.899 230.068 250.811 230.133 250.713 230.177C250.614 230.221 250.508 230.243 250.4 230.242C248.525 230.21 247.623 230.096 245.258 230.096C243.803 230.096 240.809 230.248 238.788 230.248C236.767 230.248 236.634 228.264 237.466 228.08C241.203 227.273 242.652 226.173 243.898 225.105C244.118 224.912 244.4 224.805 244.693 224.806Z" fill="#263238"/>
<path d="M228.803 223.165L233.888 221.678C233.979 221.652 234.075 221.658 234.162 221.695C234.249 221.732 234.32 221.798 234.365 221.881L236.271 225.696C236.316 225.793 236.338 225.898 236.338 226.004C236.337 226.111 236.313 226.216 236.268 226.312C236.222 226.408 236.157 226.494 236.075 226.562C235.993 226.63 235.898 226.679 235.795 226.707C233.945 227.215 232.706 227.527 230.392 228.201C228.797 228.665 227.17 229.422 225.594 229.924C224.501 230.274 221.933 230.286 220.605 230.286C218.641 230.286 218.202 228.214 219.048 228.118C221.177 227.883 221.463 227.991 222.638 227.4C224.562 226.558 226.306 225.354 227.774 223.852C228.051 223.536 228.406 223.3 228.803 223.165Z" fill="#263238"/>
<path d="M191.833 86.7674L186.57 84.5612L184.403 90.3978C186.56 90.7265 188.754 90.7265 190.911 90.3978L191.833 86.7674Z" fill="#E58A7B"/>
<path d="M182.655 84.4086L182.515 88.287L184.403 90.3851L186.57 84.5485L182.655 84.4086Z" fill="#E58A7B"/>
<path d="M230.189 213.064L225.636 214.823L227.652 220.048L232.206 218.29L230.189 213.064Z" fill="#CF6F64"/>
<path d="M248.055 214.277H243.269L244.178 219.993H248.964L248.055 214.277Z" fill="#CF6F64"/>
<path opacity="0.2" d="M214.897 96.3171C214.993 97.4679 215.101 98.6441 215.24 99.8522L234.269 93.6722C237.241 92.7911 239.824 90.923 241.591 88.376C241.667 86.6784 241.763 84.8918 241.909 83.0289C241.972 82.1261 242.049 81.1978 242.131 80.2568C242.214 79.3158 242.328 78.2731 242.449 77.2686L214.897 96.3171Z" fill="black"/>
<path d="M221.113 75.4629L220.478 75.3866C220.853 72.2076 223.223 69.7026 225.721 69.7661V70.4019C223.535 70.3574 221.45 72.6145 221.113 75.4629Z" fill="white"/>
<path d="M224.501 81.3314H224.393V80.6956C226.579 80.7782 228.632 78.4957 228.969 75.6537L229.604 75.73C229.267 78.839 226.973 81.3314 224.501 81.3314Z" fill="white"/>
<path d="M236.379 48.6385C235.483 52.1418 234.428 58.557 236.735 60.8904C236.735 60.8904 235.121 64.4445 228.619 64.4445C222.677 64.4445 225.861 60.8904 225.861 60.8904C229.814 59.9621 229.884 57.0756 229.363 54.3417L236.379 48.6385Z" fill="#E58A7B"/>
<path d="M233.519 50.9656L229.369 54.3417C229.498 54.9699 229.572 55.6081 229.592 56.2491C230.806 57.4571 233.24 54.3989 233.488 52.8348C233.614 52.2191 233.624 51.5853 233.519 50.9656Z" fill="#CF6F64"/>
<path d="M222.232 48.594C222.521 49.0948 222.909 49.5305 223.374 49.874C223.839 50.2175 224.37 50.4614 224.933 50.5905C226.458 50.9274 227.221 49.5223 226.801 48.1108C226.426 46.8392 225.174 45.1289 223.624 45.4214C223.291 45.4899 222.98 45.6369 222.717 45.8503C222.453 46.0637 222.244 46.3372 222.108 46.6479C221.972 46.9586 221.912 47.2974 221.933 47.636C221.955 47.9746 222.057 48.3031 222.232 48.594Z" fill="#CF6F64"/>
<path d="M224.755 37.3849C222.378 38.4721 221.539 47.9201 224.526 49.3189C227.513 50.7176 229.255 35.3186 224.755 37.3849Z" fill="#263238"/>
<path d="M237.104 43.3678C236.532 48.1109 236.468 50.902 233.926 53.3308C233.138 54.1367 232.143 54.7093 231.051 54.9851C229.958 55.261 228.811 55.2294 227.735 54.8939C226.659 54.5584 225.697 53.9321 224.955 53.084C224.212 52.236 223.719 51.1992 223.528 50.0882C222.759 45.8283 223.821 38.7901 228.575 36.9017C229.574 36.461 230.672 36.2955 231.756 36.4225C232.841 36.5495 233.871 36.9643 234.741 37.6239C235.612 38.2835 236.289 39.164 236.705 40.1739C237.12 41.1839 237.258 42.2866 237.104 43.3678Z" fill="#E58A7B"/>
<path d="M229.293 39.8391C232.814 38.9426 235.401 38.3322 234.473 41.2633C233.246 45.1798 231.772 48.9692 233.748 49.1408C234.956 49.2489 240.295 46.9855 239.614 44.6902C239.023 42.6938 241.521 42.147 241.966 41.1361C243.612 37.4739 238.903 37.9571 239.742 35.7318C240.58 33.5065 235.928 29.9206 233.386 31.7072C229.248 34.5937 222.149 34.5492 225.88 29.7998C228.556 26.411 223.783 27.104 223.783 27.104C223.783 27.104 226.668 28.8143 221.812 31.4593C216.677 34.2822 221.386 41.8673 229.293 39.8391Z" fill="#263238"/>
<path d="M238.973 48.594C238.277 49.6002 237.233 50.3118 236.043 50.5905C234.473 50.9274 233.869 49.5223 234.46 48.1108C234.988 46.8392 236.437 45.1289 237.937 45.4214C239.436 45.7139 239.78 47.3479 238.973 48.594Z" fill="#E58A7B"/>
<path d="M215.711 103.597C215.711 103.597 211.414 142.063 211.078 156.661C210.734 171.844 225.638 219.217 225.638 219.217L233.265 216.038C233.265 216.038 224.367 172.753 225.638 157.843C226.986 141.586 232.553 103.622 232.553 103.622L215.711 103.597Z" fill="#407BFF"/>
<path opacity="0.2" d="M226.388 114.158C222.963 121.266 225.27 135.323 227.126 143.652C227.831 137.771 228.67 131.388 229.464 125.481C229.388 116.402 228.683 109.389 226.388 114.158Z" fill="black"/>
<path d="M232.928 213.52C232.966 213.52 233.831 215.949 233.831 215.949L225.035 219.649L223.649 217.068L232.928 213.52Z" fill="#407BFF"/>
<path d="M224.793 103.597C224.793 103.597 228.079 140.181 230.253 153.882C232.642 168.894 242.011 218.886 242.011 218.886H250.775C250.775 218.886 245.525 170.108 244.534 155.243C243.453 139.119 241.305 103.597 241.305 103.597H224.793Z" fill="#407BFF"/>
<path d="M250.908 216.604C250.947 216.604 251.201 219.052 251.201 219.052H241.566L240.879 216.242L250.908 216.604Z" fill="#407BFF"/>
<path opacity="0.2" d="M247.553 213.705C247.533 213.705 247.513 213.698 247.498 213.685C247.483 213.672 247.473 213.654 247.47 213.635C247.419 213.19 242.684 169.129 241.794 155.777C240.828 141.294 238.884 109.167 238.864 108.842C238.864 108.832 238.865 108.821 238.868 108.811C238.872 108.801 238.877 108.792 238.884 108.784C238.892 108.776 238.9 108.77 238.91 108.766C238.92 108.762 238.93 108.76 238.941 108.76C238.962 108.76 238.982 108.767 238.997 108.782C239.012 108.796 239.022 108.815 239.023 108.836C239.023 109.16 240.987 141.262 241.953 155.771C242.843 169.122 247.578 213.152 247.623 213.628C247.624 213.639 247.624 213.65 247.621 213.66C247.619 213.67 247.614 213.68 247.607 213.688C247.601 213.697 247.593 213.704 247.583 213.709C247.574 213.714 247.563 213.717 247.553 213.717V213.705Z" fill="black"/>
<path d="M229.833 44.6903C229.833 45.0781 229.592 45.3896 229.338 45.3896C229.083 45.3896 228.899 45.0781 228.924 44.6903C228.95 44.3024 229.166 43.9909 229.42 43.9909C229.675 43.9909 229.859 44.3088 229.833 44.6903Z" fill="#263238"/>
<path d="M225.473 44.6903C225.473 45.0781 225.225 45.3896 224.978 45.3896C224.73 45.3896 224.539 45.0781 224.558 44.6903C224.577 44.3024 224.806 43.9909 225.06 43.9909C225.314 43.9909 225.499 44.3088 225.473 44.6903Z" fill="#263238"/>
<path d="M226.846 44.8873C226.315 46.0716 225.632 47.181 224.812 48.1871C225.448 48.8229 226.636 48.5304 226.636 48.5304L226.846 44.8873Z" fill="#DF5753"/>
<path d="M226.96 50.1518C226.946 50.1518 226.931 50.1488 226.917 50.143C226.904 50.1371 226.892 50.1286 226.882 50.1179C226.871 50.1072 226.864 50.0945 226.859 50.0806C226.854 50.0668 226.851 50.052 226.852 50.0373C226.854 50.0064 226.867 49.9773 226.89 49.956C226.912 49.9347 226.942 49.9228 226.973 49.9229C227.459 49.9262 227.94 49.8206 228.38 49.6138C228.82 49.4069 229.208 49.1041 229.515 48.7276C229.537 48.7083 229.566 48.6977 229.595 48.6977C229.624 48.6977 229.652 48.7083 229.674 48.7276C229.695 48.7489 229.706 48.7774 229.706 48.807C229.706 48.8367 229.695 48.8652 229.674 48.8865C229.345 49.2867 228.93 49.6081 228.461 49.827C227.991 50.0459 227.478 50.1569 226.96 50.1518Z" fill="#263238"/>
<path d="M230.608 43.5204C230.578 43.536 230.544 43.5441 230.51 43.5441C230.476 43.5441 230.442 43.536 230.411 43.5204C230.174 43.3666 229.903 43.271 229.622 43.2411C229.34 43.2113 229.055 43.2482 228.791 43.3487C228.765 43.3616 228.737 43.3692 228.708 43.3711C228.679 43.3729 228.65 43.369 228.623 43.3595C228.596 43.35 228.571 43.3352 228.549 43.3159C228.528 43.2965 228.511 43.2731 228.498 43.247C228.475 43.1904 228.474 43.1268 228.497 43.0698C228.519 43.0128 228.563 42.9669 228.619 42.9418C228.951 42.806 229.312 42.7525 229.669 42.7857C230.026 42.8189 230.37 42.9379 230.672 43.1325C230.696 43.1491 230.717 43.1703 230.733 43.195C230.749 43.2197 230.76 43.2474 230.766 43.2763C230.771 43.3053 230.771 43.3351 230.764 43.3639C230.758 43.3927 230.746 43.4199 230.729 43.4441C230.697 43.4805 230.655 43.507 230.608 43.5204Z" fill="#263238"/>
<path d="M223.789 42.2488C223.755 42.2406 223.724 42.2229 223.7 42.1979C223.679 42.1772 223.662 42.1524 223.651 42.1251C223.639 42.0979 223.633 42.0685 223.633 42.0389C223.633 42.0093 223.639 41.98 223.651 41.9527C223.662 41.9254 223.679 41.9007 223.7 41.88C223.944 41.6067 224.247 41.3933 224.586 41.2566C224.926 41.1198 225.293 41.0634 225.657 41.0916C225.687 41.0961 225.715 41.1066 225.74 41.1224C225.765 41.1381 225.786 41.1589 225.803 41.1833C225.82 41.2078 225.831 41.2354 225.837 41.2644C225.842 41.2935 225.842 41.3234 225.835 41.3523C225.822 41.4111 225.787 41.463 225.738 41.4981C225.689 41.5333 225.629 41.5492 225.569 41.543C225.28 41.5248 224.991 41.5726 224.723 41.6828C224.455 41.7929 224.216 41.9626 224.024 42.1788C223.995 42.211 223.958 42.2346 223.916 42.2469C223.875 42.2592 223.831 42.2599 223.789 42.2488Z" fill="#263238"/>
<path d="M247.699 68.2339L241.089 66.4727C241.089 66.4727 234.606 82.4376 232.312 83.474C229.198 84.8982 221.31 89.832 217.954 92.1654C217.77 92.9601 217.916 95.0646 218.336 95.6432C224.056 94.6005 235.007 90.3851 237.295 88.2425C242.513 83.3532 247.699 68.2339 247.699 68.2339Z" fill="#E58A7B"/>
<path d="M243.085 225.645C242.762 225.671 242.441 225.583 242.176 225.397C242.094 225.323 242.033 225.229 241.998 225.124C241.964 225.02 241.957 224.908 241.979 224.799C241.983 224.732 242.005 224.667 242.043 224.611C242.081 224.555 242.134 224.51 242.195 224.481C242.729 224.208 244.222 225.155 244.394 225.264C244.413 225.275 244.427 225.293 244.435 225.313C244.443 225.334 244.444 225.357 244.438 225.378C244.433 225.4 244.422 225.421 244.406 225.437C244.391 225.454 244.371 225.466 244.349 225.473C243.935 225.575 243.511 225.633 243.085 225.645ZM242.449 224.653C242.401 224.642 242.351 224.642 242.303 224.653C242.279 224.666 242.258 224.685 242.245 224.708C242.231 224.732 242.225 224.759 242.227 224.787C242.21 224.861 242.213 224.938 242.235 225.01C242.257 225.083 242.298 225.148 242.354 225.2C242.602 225.422 243.224 225.448 244.044 225.289C243.556 224.967 243.006 224.751 242.43 224.653H242.449Z" fill="#407BFF"/>
<path d="M244.318 225.473C244.301 225.479 244.283 225.479 244.267 225.473C243.79 225.206 242.894 224.157 243.027 223.623C243.047 223.538 243.095 223.463 243.163 223.409C243.231 223.355 243.315 223.325 243.402 223.324C243.488 223.313 243.574 223.32 243.657 223.345C243.739 223.371 243.815 223.413 243.879 223.471C244.407 223.922 244.438 225.308 244.438 225.378C244.441 225.399 244.438 225.42 244.427 225.439C244.417 225.457 244.401 225.471 244.381 225.48C244.36 225.484 244.338 225.482 244.318 225.473ZM243.466 223.534H243.421C243.275 223.534 243.256 223.617 243.25 223.649C243.174 223.96 243.739 224.755 244.21 225.13C244.207 224.593 244.041 224.069 243.733 223.63C243.659 223.565 243.564 223.531 243.466 223.534Z" fill="#407BFF"/>
<path d="M226.21 224.85C225.821 224.986 225.398 224.986 225.009 224.85C224.921 224.802 224.846 224.733 224.792 224.649C224.737 224.564 224.705 224.467 224.698 224.367C224.69 224.304 224.698 224.24 224.721 224.181C224.744 224.122 224.782 224.07 224.831 224.03C225.34 223.572 227.418 224.03 227.653 224.119C227.675 224.125 227.695 224.138 227.709 224.157C227.723 224.175 227.73 224.198 227.729 224.221C227.73 224.245 227.724 224.268 227.712 224.289C227.699 224.309 227.681 224.325 227.659 224.335C227.191 224.547 226.707 224.719 226.21 224.85ZM225.174 224.094C225.102 224.108 225.034 224.141 224.977 224.189C224.957 224.204 224.942 224.225 224.933 224.248C224.924 224.272 224.921 224.298 224.927 224.323C224.931 224.389 224.951 224.454 224.987 224.511C225.023 224.567 225.072 224.614 225.13 224.647C225.467 224.825 226.248 224.685 227.259 224.259C226.578 224.087 225.874 224.031 225.174 224.094Z" fill="#407BFF"/>
<path d="M227.64 224.335H227.59C226.954 224.221 225.683 223.49 225.645 222.943C225.645 222.816 225.702 222.638 226.007 222.536C226.11 222.499 226.219 222.484 226.329 222.49C226.438 222.497 226.545 222.525 226.643 222.574C227.329 222.911 227.691 224.132 227.71 224.189C227.715 224.208 227.714 224.228 227.709 224.247C227.703 224.266 227.693 224.283 227.679 224.297C227.669 224.313 227.656 224.326 227.64 224.335ZM226.134 222.727H226.071C225.874 222.797 225.874 222.879 225.874 222.905C225.874 223.235 226.795 223.839 227.437 224.043C227.289 223.532 226.976 223.085 226.547 222.771C226.42 222.706 226.273 222.69 226.134 222.727Z" fill="#407BFF"/>
<path d="M218.495 91.7902L211.866 94.8421L211.097 96.7495L213.544 98.3962C213.544 98.3962 218.12 97.9003 219.423 94.9565L218.495 91.7902Z" fill="#E58A7B"/>
<path d="M218.774 95.7513C218.626 94.4771 218.206 93.2498 217.541 92.1527L218.59 91.3643C219.379 92.6284 219.882 94.0497 220.064 95.5287L218.774 95.7513Z" fill="#263238"/>
<path d="M219.906 92.693C220.046 92.9135 220.115 93.1719 220.103 93.4329C220.091 93.6939 219.999 93.945 219.839 94.1519C219.68 94.3588 219.461 94.5115 219.211 94.5893C218.962 94.6671 218.695 94.6661 218.446 94.5865C218.197 94.507 217.979 94.3527 217.821 94.1446C217.663 93.9366 217.573 93.6849 217.563 93.4238C217.553 93.1627 217.623 92.9048 217.765 92.6854C217.907 92.4659 218.113 92.2954 218.355 92.1971C218.626 92.0586 218.942 92.0331 219.232 92.1259C219.523 92.2188 219.765 92.4226 219.906 92.693Z" fill="#263238"/>
<path d="M207.385 97.309L208.268 98.1991L214.217 95.6559L211.866 94.8421L207.385 97.309Z" fill="#E58A7B"/>
<path opacity="0.2" d="M232.928 213.52C232.966 213.52 233.831 215.949 233.831 215.949L225.035 219.649L223.649 217.068L232.928 213.52Z" fill="black"/>
<path opacity="0.2" d="M250.908 216.604C250.947 216.604 251.201 219.052 251.201 219.052H241.566L240.879 216.242L250.908 216.604Z" fill="black"/>
<path d="M249.421 66.4028C251.169 72.0423 244.337 79.7546 244.337 79.7546L234.899 75.9016C236.017 72.642 237.307 69.4437 238.763 66.3201C241.661 60.0702 247.654 60.7124 249.421 66.4028Z" fill="#407BFF"/>
<path opacity="0.2" d="M249.421 66.4028C251.169 72.0423 244.337 79.7546 244.337 79.7546L234.899 75.9016C236.017 72.642 237.307 69.4437 238.763 66.3201C241.661 60.0702 247.654 60.7124 249.421 66.4028Z" fill="black"/>
<path d="M155.637 9.89948H151.576V10.5543H155.637V9.89948Z" fill="#407BFF"/>
<path d="M208.21 35.8188L207.718 46.7307L208.373 46.7602L208.864 35.8483L208.21 35.8188Z" fill="#407BFF"/>
<path d="M206.946 12.8369H131.95L124.971 169.065H199.968L206.946 12.8369Z" fill="#407BFF"/>
<path opacity="0.56" d="M204.709 14.9859H129.712L122.734 171.214H197.731L204.709 14.9859Z" fill="#FAFAFA"/>
<path opacity="0.07" d="M202.472 17.1285H127.475L120.49 173.357H195.487L202.472 17.1285Z" fill="#407BFF"/>
<path d="M193.936 85.2671H129.922L129.388 97.2201H193.402L193.936 85.2671Z" fill="white"/>
<path d="M165.126 76.5439H130.31L130.075 81.891H164.891L165.126 76.5439Z" fill="#407BFF"/>
<path d="M192.494 117.528H128.48L127.946 129.481H191.96L192.494 117.528Z" fill="white"/>
<path opacity="0.47" d="M180.755 145.623H137.708L137.066 159.948H180.113L180.755 145.623Z" fill="#407BFF"/>
<path d="M177.876 162.173H134.829C134.81 162.178 134.79 162.178 134.772 162.173C134.765 162.155 134.765 162.135 134.772 162.116L135.407 147.785C135.407 147.775 135.409 147.766 135.413 147.757C135.417 147.748 135.423 147.74 135.43 147.733C135.437 147.727 135.446 147.722 135.455 147.719C135.464 147.715 135.474 147.714 135.483 147.715H178.53C178.538 147.711 178.547 147.709 178.556 147.709C178.565 147.709 178.573 147.711 178.581 147.715C178.586 147.723 178.588 147.732 178.588 147.741C178.588 147.75 178.586 147.758 178.581 147.766L177.958 162.129C177.951 162.144 177.939 162.156 177.924 162.164C177.909 162.172 177.892 162.175 177.876 162.173ZM134.905 162.021H177.799L178.435 147.842H135.541L134.905 162.021Z" fill="white"/>
<path d="M157.607 108.804H128.867L128.632 114.158H157.366L157.607 108.804Z" fill="#407BFF"/>
<path d="M179.935 46.655C179.771 50.1337 178.534 53.4762 176.395 56.2238C174.811 58.2991 172.773 59.9839 170.438 61.1489C168.102 62.3138 165.531 62.928 162.921 62.9441C160.812 62.9602 158.722 62.5442 156.78 61.7217C154.837 60.8992 153.084 59.6876 151.628 58.1615C150.171 56.6355 149.043 54.8274 148.311 52.8484C147.58 50.8695 147.261 48.7618 147.375 46.655C147.598 42.2832 149.483 38.162 152.643 35.1342C155.803 32.1064 160 30.4006 164.376 30.3658C166.487 30.3461 168.579 30.7596 170.524 31.5807C172.468 32.4018 174.224 33.6131 175.682 35.1397C177.14 36.6663 178.27 38.4758 179.001 40.4564C179.733 42.4371 180.05 44.5467 179.935 46.655Z" fill="white"/>
<path d="M181.467 33.7737C181.425 34.6987 181.096 35.5877 180.526 36.3169C180.104 36.8681 179.562 37.3156 178.94 37.6253C178.319 37.9349 177.635 38.0985 176.941 38.1035C176.269 38.1076 175.606 37.9469 175.01 37.6355C174.414 37.3241 173.903 36.8714 173.522 36.3169C173.018 35.5677 172.768 34.676 172.81 33.7737C172.872 32.613 173.373 31.5195 174.213 30.7161C175.053 29.9127 176.167 29.46 177.329 29.4503C177.89 29.4452 178.445 29.5549 178.962 29.7728C179.478 29.9907 179.945 30.312 180.332 30.7171C180.72 31.1221 181.021 31.6023 181.216 32.128C181.411 32.6537 181.496 33.2138 181.467 33.7737Z" fill="#407BFF"/>
<path d="M136.818 91.2436C136.788 91.7559 136.564 92.2376 136.193 92.5916C135.821 92.9456 135.329 93.1454 134.816 93.151C134.568 93.1539 134.323 93.106 134.094 93.0102C133.866 92.9144 133.659 92.7727 133.488 92.594C133.316 92.4152 133.183 92.2031 133.097 91.9708C133.01 91.7386 132.973 91.4911 132.986 91.2436C133.013 90.7302 133.236 90.2467 133.608 89.8922C133.98 89.5376 134.474 89.3387 134.988 89.3362C135.235 89.3342 135.48 89.3827 135.708 89.4788C135.936 89.575 136.143 89.7166 136.314 89.8952C136.485 90.0738 136.618 90.2855 136.705 90.5174C136.792 90.7492 136.83 90.9963 136.818 91.2436Z" fill="#263238"/>
<path d="M145.386 91.2436C145.356 91.7564 145.133 92.239 144.762 92.5933C144.39 92.9475 143.897 93.1469 143.384 93.151C143.136 93.153 142.891 93.1045 142.664 93.0083C142.436 92.9121 142.23 92.7703 142.059 92.5916C141.889 92.4129 141.756 92.2012 141.67 91.9693C141.584 91.7375 141.546 91.4905 141.559 91.2436C141.587 90.7312 141.809 90.2487 142.179 89.8943C142.55 89.5399 143.042 89.3403 143.555 89.3362C143.803 89.3332 144.048 89.3811 144.277 89.4769C144.505 89.5727 144.712 89.7144 144.883 89.8932C145.055 90.0719 145.188 90.284 145.274 90.5163C145.361 90.7486 145.399 90.9961 145.386 91.2436Z" fill="#263238"/>
<path d="M153.959 91.2436C153.93 91.7564 153.707 92.239 153.335 92.5933C152.963 92.9475 152.471 93.1469 151.957 93.151C151.71 93.153 151.465 93.1044 151.237 93.0083C151.008 92.9122 150.802 92.7705 150.631 92.5919C150.46 92.4133 150.327 92.2016 150.24 91.9698C150.153 91.7379 150.115 91.4908 150.127 91.2436C150.156 90.7307 150.379 90.2481 150.751 89.8938C151.123 89.5396 151.615 89.3402 152.129 89.3362C152.377 89.3332 152.622 89.3811 152.851 89.4769C153.079 89.5727 153.286 89.7144 153.457 89.8932C153.629 90.0719 153.762 90.284 153.848 90.5163C153.935 90.7486 153.972 90.9961 153.959 91.2436Z" fill="#263238"/>
<path d="M135.375 123.504C135.345 124.016 135.121 124.498 134.75 124.852C134.378 125.206 133.886 125.406 133.373 125.411C133.126 125.413 132.881 125.365 132.653 125.269C132.425 125.173 132.219 125.031 132.047 124.852C131.876 124.674 131.743 124.462 131.656 124.23C131.569 123.998 131.531 123.751 131.543 123.504C131.572 122.991 131.795 122.509 132.167 122.154C132.539 121.8 133.031 121.601 133.545 121.597C133.792 121.595 134.038 121.643 134.266 121.739C134.494 121.835 134.7 121.977 134.871 122.156C135.042 122.334 135.176 122.546 135.262 122.778C135.349 123.01 135.388 123.257 135.375 123.504Z" fill="#263238"/>
<path d="M143.943 123.504C143.914 124.016 143.692 124.497 143.321 124.852C142.951 125.206 142.46 125.406 141.947 125.411C141.699 125.414 141.454 125.366 141.225 125.271C140.997 125.175 140.79 125.033 140.619 124.854C140.447 124.676 140.314 124.464 140.228 124.231C140.141 123.999 140.104 123.752 140.117 123.504C140.146 122.991 140.369 122.509 140.741 122.154C141.113 121.8 141.605 121.601 142.119 121.597C142.366 121.595 142.611 121.643 142.839 121.739C143.066 121.836 143.272 121.977 143.443 122.156C143.614 122.335 143.746 122.546 143.832 122.778C143.918 123.01 143.956 123.257 143.943 123.504Z" fill="#263238"/>
<path d="M152.536 123.504C152.507 124.017 152.283 124.5 151.912 124.854C151.54 125.208 151.047 125.407 150.534 125.411C150.286 125.413 150.042 125.363 149.814 125.267C149.586 125.171 149.381 125.029 149.21 124.85C149.038 124.672 148.905 124.461 148.818 124.229C148.731 123.998 148.692 123.751 148.703 123.504C148.734 122.992 148.957 122.51 149.329 122.156C149.7 121.802 150.192 121.602 150.705 121.597C150.953 121.594 151.199 121.642 151.427 121.737C151.656 121.833 151.862 121.975 152.033 122.154C152.205 122.332 152.338 122.545 152.424 122.777C152.511 123.009 152.549 123.257 152.536 123.504Z" fill="#263238"/>
<path d="M161.09 123.504C161.06 124.016 160.836 124.498 160.465 124.852C160.093 125.206 159.601 125.406 159.088 125.411C158.841 125.413 158.596 125.363 158.369 125.267C158.141 125.171 157.935 125.029 157.764 124.85C157.593 124.672 157.46 124.461 157.373 124.229C157.286 123.998 157.247 123.751 157.258 123.504C157.288 122.992 157.512 122.51 157.884 122.156C158.255 121.802 158.747 121.602 159.26 121.597C159.507 121.595 159.753 121.643 159.981 121.739C160.209 121.835 160.415 121.977 160.586 122.156C160.757 122.334 160.891 122.546 160.977 122.778C161.064 123.01 161.103 123.257 161.09 123.504Z" fill="#263238"/>
<path d="M169.696 123.504C169.665 124.016 169.442 124.498 169.07 124.852C168.699 125.206 168.207 125.406 167.694 125.411C167.446 125.414 167.201 125.366 166.972 125.271C166.744 125.175 166.537 125.033 166.366 124.854C166.194 124.676 166.061 124.464 165.975 124.231C165.888 123.999 165.85 123.752 165.863 123.504C165.893 122.991 166.116 122.509 166.487 122.154C166.859 121.8 167.352 121.601 167.866 121.597C168.113 121.595 168.358 121.643 168.586 121.739C168.814 121.835 169.02 121.977 169.192 122.156C169.363 122.334 169.496 122.546 169.583 122.778C169.67 123.01 169.708 123.257 169.696 123.504Z" fill="#263238"/>
<path d="M168.395 45.8066C171.055 43.2043 171.196 39.033 168.71 36.4898C166.224 33.9467 162.053 33.9946 159.392 36.597C156.732 39.1994 156.591 43.3706 159.077 45.9138C161.563 48.457 165.735 48.409 168.395 45.8066Z" fill="#407BFF"/>
<path d="M176.395 56.2238C174.811 58.2991 172.773 59.9839 170.438 61.1489C168.102 62.3138 165.531 62.928 162.921 62.9441C160.39 62.9656 157.893 62.3638 155.649 61.1918C153.406 60.0199 151.485 58.3137 150.057 56.2238C153.146 53.1465 158.033 51.1374 163.448 51.1374C168.863 51.1374 173.579 53.1465 176.395 56.2238Z" fill="#407BFF"/>
<path opacity="0.1" d="M168.395 45.8066C171.055 43.2043 171.196 39.033 168.71 36.4898C166.224 33.9467 162.053 33.9946 159.392 36.597C156.732 39.1994 156.591 43.3706 159.077 45.9138C161.563 48.457 165.735 48.409 168.395 45.8066Z" fill="white"/>
<path opacity="0.1" d="M176.395 56.2238C174.811 58.2991 172.773 59.9839 170.438 61.1489C168.102 62.3138 165.531 62.928 162.921 62.9441C160.39 62.9656 157.893 62.3638 155.649 61.1918C153.406 60.0199 151.485 58.3137 150.057 56.2238C153.146 53.1465 158.033 51.1374 163.448 51.1374C168.863 51.1374 173.579 53.1465 176.395 56.2238Z" fill="white"/>
<path d="M82.8841 100.1C82.2803 101.423 81.6447 102.879 81.0918 104.29C80.5388 105.702 79.9732 107.158 79.4838 108.607C78.4846 111.464 77.7236 114.399 77.2085 117.381L77.0687 118.316C77.0553 118.476 77.0704 118.638 77.1132 118.793C77.2631 119.32 77.4994 119.818 77.8123 120.268C78.6285 121.432 79.5753 122.498 80.6342 123.447C81.7506 124.486 82.9217 125.464 84.1425 126.378C85.3628 127.319 86.6466 128.234 87.9114 129.099L86.7229 131.331C83.7028 130.014 80.8362 128.37 78.1745 126.429C76.7545 125.393 75.473 124.179 74.3612 122.817C73.7021 122.007 73.1882 121.088 72.8422 120.102C72.6409 119.487 72.538 118.843 72.5371 118.195C72.5371 118.042 72.5371 117.82 72.5371 117.712V117.4L72.6006 116.764C72.965 113.452 73.6613 110.185 74.6789 107.011C75.1747 105.447 75.7022 103.89 76.306 102.37C76.9098 100.85 77.5326 99.3627 78.3017 97.8177L82.8841 100.1Z" fill="#E58A7B"/>
<path d="M87.0153 128.705L91.5087 126.429L90.3456 131.362C90.3456 131.362 87.2631 132.227 85.8331 130.727L87.0153 128.705Z" fill="#E58A7B"/>
<path d="M95.6208 127.236L94.4259 131.318L90.3456 131.362L91.5087 126.429L95.6208 127.236Z" fill="#E58A7B"/>
<path d="M101.964 76.2959C102.204 77.177 102.539 78.0297 102.962 78.8391C102.838 78.9793 102.679 79.0834 102.501 79.1405C102.323 79.1976 102.133 79.2055 101.951 79.1634L101.964 76.2959Z" fill="#DF5753"/>
<path d="M101.83 76.334C102.094 76.334 102.307 76.0067 102.307 75.6029C102.307 75.1991 102.094 74.8717 101.83 74.8717C101.567 74.8717 101.354 75.1991 101.354 75.6029C101.354 76.0067 101.567 76.334 101.83 76.334Z" fill="#263238"/>
<path d="M101.69 74.8971L102.657 74.6237C102.657 74.6237 102.186 75.374 101.69 74.8971Z" fill="#263238"/>
<path d="M89.5512 80.9627C90.1295 83.9191 90.7079 89.3425 88.636 91.3198C88.636 91.3198 89.4495 94.3208 94.9471 94.3208C100.991 94.3208 97.8326 91.3198 97.8326 91.3198C94.534 90.5314 94.6166 88.0836 95.195 85.782L89.5512 80.9627Z" fill="#E58A7B"/>
<path d="M87.9432 74.2232C88.2482 79.1633 88.2737 81.2615 90.7651 83.7983C94.5213 87.6131 100.521 86.1635 101.697 81.2551C102.758 76.8045 102.085 69.4801 97.2479 67.5155C96.1862 67.078 95.0305 66.9186 93.8901 67.0525C92.7497 67.1864 91.6623 67.6091 90.7307 68.2807C89.7992 68.9522 89.0543 69.8504 88.5665 70.8903C88.0787 71.9301 87.8642 73.0773 87.9432 74.2232Z" fill="#E58A7B"/>
<path d="M88.4326 68.6663C85.9539 69.5691 82.6489 68.8952 83.9455 76.5438C85.3183 84.6439 83.2082 87.3079 83.2082 87.3079C83.2082 87.3079 92.6082 89.3107 102.205 87.1871C102.205 87.1871 99.2753 82.0626 100.095 78.2859C101.144 73.5174 100.318 71.7563 100.318 71.7563C100.318 71.7563 91.9155 67.3947 88.4326 68.6663Z" fill="#263238"/>
<path d="M98.9194 76.7982C98.922 77.7375 99.1908 78.6569 99.6948 79.4495C100.368 80.4795 101.163 80.0853 101.36 78.9917C101.538 78.0316 101.404 76.334 100.546 75.6728C99.6884 75.0116 98.9321 75.6601 98.9194 76.7982Z" fill="#E58A7B"/>
<path d="M86.278 69.4992C85.5661 67.4964 88.9601 64.4128 96.142 65.6844C103.324 66.956 103.635 72.9389 103.635 72.9389L102.186 71.2095L102.25 73.0279L94.8708 74.4457L86.278 69.4992Z" fill="#263238"/>
<path d="M86.8881 91.6568C86.8457 91.3665 86.9183 91.0711 87.0905 90.8336C87.2626 90.5961 87.5207 90.4352 87.8097 90.3852C90.0469 90.0164 95.1314 89.2662 97.6863 89.6223C99.593 89.8893 100.089 90.9956 100.171 91.9048C100.184 92.064 100.163 92.2241 100.109 92.3744C100.055 92.5247 99.9693 92.6616 99.8579 92.7761C99.7465 92.8905 99.612 92.9798 99.4632 93.0378C99.3145 93.0959 99.155 93.1215 98.9956 93.1128L87.9495 92.6169C87.6891 92.6037 87.4412 92.501 87.2478 92.326C87.0544 92.1511 86.9273 91.9147 86.8881 91.6568Z" fill="#407BFF"/>
<path opacity="0.6" d="M86.8881 91.6568C86.8457 91.3665 86.9183 91.0711 87.0905 90.8336C87.2626 90.5961 87.5207 90.4352 87.8097 90.3852C90.0469 90.0164 95.1314 89.2662 97.6863 89.6223C99.593 89.8893 100.089 90.9956 100.171 91.9048C100.184 92.064 100.163 92.2241 100.109 92.3744C100.055 92.5247 99.9693 92.6616 99.8579 92.7761C99.7465 92.8905 99.612 92.9798 99.4632 93.0378C99.3145 93.0959 99.155 93.1215 98.9956 93.1128L87.9495 92.6169C87.6891 92.6037 87.4412 92.501 87.2478 92.326C87.0544 92.1511 86.9273 91.9147 86.8881 91.6568Z" fill="black"/>
<path d="M93.2756 202.731L97.375 205.579L104.233 196.277L100.133 193.435L93.2756 202.731Z" fill="#E58A7B"/>
<path d="M83.7166 202.546L88.0448 205.013L94.1145 195.178L89.7863 192.711L83.7166 202.546Z" fill="#E58A7B"/>
<path d="M104.226 196.277L100.693 201.071L96.5932 198.229L100.127 193.435L104.226 196.277Z" fill="#CF6F64"/>
<path d="M89.78 192.711L94.1145 195.184L90.9875 200.251L86.653 197.778L89.78 192.711Z" fill="#CF6F64"/>
<path d="M96.7331 122.709C96.7331 122.709 112.737 142.883 109.73 162.18C107.309 177.763 93.2629 198.865 93.2629 198.865L86.6593 195.584C91.3139 186.254 95.286 176.599 98.5444 166.694C99.5492 163.619 99.8425 160.355 99.4021 157.15C98.9617 153.945 97.7991 150.882 96.0022 148.192C87.8923 136.347 74.9014 143.398 83.6404 122.709H96.7331Z" fill="#407BFF"/>
<path opacity="0.6" d="M96.7331 122.709C96.7331 122.709 112.737 142.883 109.73 162.18C107.309 177.763 93.2629 198.865 93.2629 198.865L86.6593 195.584C91.3139 186.254 95.286 176.599 98.5444 166.694C99.5492 163.619 99.8425 160.355 99.4021 157.15C98.9617 153.945 97.7991 150.882 96.0022 148.192C87.8923 136.347 74.9014 143.398 83.6404 122.709H96.7331Z" fill="black"/>
<path opacity="0.4" d="M104.582 135.667L102.256 133.352C102.256 133.537 106.762 161.366 108.027 169.186C108.773 166.902 109.345 164.564 109.737 162.192C111.224 152.725 108.116 143.055 104.582 135.667Z" fill="black"/>
<path d="M103.877 122.709C103.877 122.709 123.147 148.065 123.694 163.267C124.145 175.983 102.72 200.62 102.72 200.62L96.4915 196.589C96.4915 196.589 109.031 179.092 112.19 164.799C110.97 150.634 85.1658 122.709 85.1658 122.709H103.877Z" fill="#407BFF"/>
<path opacity="0.6" d="M103.877 122.709C103.877 122.709 123.147 148.065 123.694 163.267C124.145 175.983 102.72 200.62 102.72 200.62L96.4915 196.589C96.4915 196.589 109.031 179.092 112.19 164.799C110.97 150.634 85.1658 122.709 85.1658 122.709H103.877Z" fill="black"/>
<path d="M80.0367 92.4515C77.9775 92.9411 76.0009 100.431 76.0009 100.431L84.0535 105.81C84.0535 105.81 86.7356 99.884 85.7949 97.29C84.8225 94.5878 82.6235 91.8348 80.0367 92.4515Z" fill="#407BFF"/>
<path opacity="0.2" d="M81.613 97.2773L81.0536 103.807L84.0472 105.816C84.8737 103.955 85.4857 102.005 85.8712 100.005L81.613 97.2773Z" fill="black"/>
<path d="M106.26 92.5978C106.26 92.5978 108.637 93.4307 103.877 122.703H83.6277C83.9709 114.437 83.9772 109.351 80.0367 92.4515C82.8721 91.867 85.746 91.4888 88.6359 91.3198C91.6976 91.1002 94.771 91.1002 97.8326 91.3198C101.786 91.6822 106.26 92.5978 106.26 92.5978Z" fill="#407BFF"/>
<path d="M108.319 97.2773C108.777 98.5489 109.26 99.9158 109.768 101.232C110.277 102.548 110.76 103.902 111.275 105.237L112.832 109.23L113.226 110.228L113.429 110.724L113.525 110.972C113.525 111.017 113.525 111.017 113.525 111.011C113.409 110.847 113.256 110.712 113.08 110.616C112.828 110.468 112.545 110.383 112.254 110.368C112.011 110.361 111.771 110.406 111.548 110.502C111.256 110.635 111.256 110.693 111.262 110.686C111.315 110.644 111.362 110.595 111.402 110.54C111.754 110.078 112.058 109.582 112.311 109.059C112.609 108.474 112.895 107.851 113.181 107.221C113.741 105.95 114.256 104.633 114.77 103.305C115.285 101.976 115.775 100.634 116.251 99.28L117.7 95.2236L120.147 95.8594C119.664 98.7587 119.041 101.582 118.291 104.455C117.929 105.886 117.503 107.304 117.02 108.734C116.779 109.453 116.512 110.165 116.207 110.896C115.889 111.69 115.497 112.452 115.037 113.172C114.868 113.415 114.681 113.644 114.478 113.859C114.153 114.21 113.76 114.489 113.321 114.679C112.932 114.846 112.511 114.924 112.088 114.908C111.615 114.89 111.153 114.752 110.747 114.507C110.268 114.208 109.871 113.796 109.591 113.306C109.495 113.14 109.413 112.975 109.355 112.854L109.235 112.613L108.993 112.117L108.51 111.131C107.874 109.809 107.239 108.474 106.686 107.132C106.133 105.791 105.548 104.43 105.002 103.063C104.455 101.696 103.966 100.329 103.502 98.854L108.319 97.2773Z" fill="#E58A7B"/>
<path d="M106.26 92.5978C108.694 93.1763 111.434 100.374 111.434 100.374L104.195 106.534C104.195 106.534 99.5104 98.6887 100.457 96.101C101.443 93.4052 103.082 91.8412 106.26 92.5978Z" fill="#407BFF"/>
<path d="M118.851 92.9474L121.393 90.8239L123.16 93.5769L121.857 95.8721C121.857 95.8721 119.785 97.7795 117.955 96.8067C117.664 96.1535 117.594 95.4233 117.756 94.7269C117.918 94.0304 118.302 93.4057 118.851 92.9474Z" fill="#E58A7B"/>
<path d="M125.982 90.8302L125.791 91.5233L121.768 92.1972L121.374 90.8239L125.982 90.8302Z" fill="#E58A7B"/>
<path d="M103.216 200.944L95.9576 196.252L97.2606 193.989L105.415 199.005L103.216 200.944Z" fill="#407BFF"/>
<path d="M90.8859 204.683C90.249 204.605 89.6371 204.388 89.0936 204.047C89.0711 204.039 89.0517 204.025 89.0379 204.005C89.0242 203.986 89.0168 203.963 89.0168 203.939C89.0168 203.915 89.0242 203.892 89.0379 203.873C89.0517 203.853 89.0711 203.839 89.0936 203.831C89.2906 203.767 91.0003 203.239 91.496 203.646C91.5517 203.693 91.5941 203.753 91.6186 203.821C91.6432 203.889 91.6491 203.963 91.6358 204.034C91.627 204.149 91.5891 204.259 91.5257 204.355C91.4623 204.45 91.3755 204.528 91.2735 204.581C91.1545 204.646 91.0214 204.681 90.8859 204.683ZM89.4558 203.983C90.2503 204.39 90.8858 204.537 91.1909 204.384C91.2573 204.347 91.3133 204.294 91.3533 204.229C91.3934 204.165 91.4162 204.091 91.4197 204.015C91.4197 203.913 91.4197 203.869 91.3625 203.843C91.0956 203.627 90.1422 203.793 89.4431 203.983H89.4558Z" fill="#263238"/>
<path d="M89.1381 204.091C89.1045 204.091 89.0725 204.077 89.0491 204.053C89.0396 204.036 89.0347 204.016 89.0347 203.996C89.0347 203.976 89.0396 203.956 89.0491 203.939C89.0491 203.882 89.4622 202.502 90.1105 202.19C90.1933 202.153 90.2832 202.133 90.3742 202.133C90.4652 202.133 90.5552 202.153 90.638 202.19C90.7272 202.219 90.8045 202.276 90.8575 202.353C90.9105 202.43 90.9361 202.523 90.9304 202.616C90.8859 203.189 89.7228 203.977 89.1889 204.111L89.1381 204.091ZM90.3711 202.356C90.3092 202.358 90.2486 202.373 90.1931 202.4C89.799 202.591 89.4749 203.335 89.316 203.786C89.8753 203.551 90.6443 202.928 90.6698 202.578C90.6698 202.521 90.6698 202.451 90.5236 202.388C90.476 202.362 90.4244 202.345 90.3711 202.337V202.356Z" fill="#263238"/>
<path d="M99.9554 207.429C99.2372 207.429 98.2393 206.508 97.6927 205.942C97.6788 205.922 97.6713 205.899 97.6713 205.875C97.6713 205.851 97.6788 205.828 97.6927 205.808C97.7053 205.788 97.7231 205.771 97.7444 205.76C97.7656 205.749 97.7895 205.743 97.8135 205.745C98.0677 205.745 100.273 206.075 100.585 206.698C100.618 206.754 100.635 206.818 100.635 206.883C100.635 206.948 100.618 207.011 100.585 207.067C100.538 207.164 100.467 207.248 100.379 207.31C100.292 207.372 100.189 207.411 100.082 207.423L99.9554 207.429ZM98.1122 206.031C98.913 206.806 99.6185 207.239 100.019 207.188C100.089 207.179 100.156 207.152 100.213 207.111C100.271 207.07 100.318 207.016 100.349 206.953C100.364 206.931 100.371 206.905 100.371 206.88C100.371 206.854 100.364 206.828 100.349 206.806C100.184 206.463 99.0084 206.171 98.1122 206.031Z" fill="#263238"/>
<path d="M98.1821 205.999C98.0395 206.003 97.8968 205.992 97.7563 205.967C97.7367 205.964 97.7181 205.956 97.7025 205.944C97.6869 205.932 97.6748 205.916 97.6673 205.897C97.6578 205.878 97.6529 205.858 97.6529 205.837C97.6529 205.816 97.6578 205.795 97.6673 205.776C97.7054 205.732 98.5635 204.695 99.377 204.626C99.6073 204.608 99.8354 204.681 100.013 204.829C100.26 205.045 100.248 205.236 100.184 205.357C100.025 205.789 98.9257 205.999 98.1821 205.999ZM98.0169 205.764C98.7287 205.802 99.8664 205.567 100.013 205.255C100.013 205.255 100.063 205.153 99.8981 205.013C99.8324 204.956 99.7556 204.913 99.6725 204.887C99.5894 204.861 99.5018 204.852 99.4151 204.861C98.8671 205.014 98.3791 205.331 98.0169 205.77V205.764Z" fill="#263238"/>
<path d="M89.3096 203.405L83.92 201.879C83.8271 201.851 83.7271 201.858 83.6391 201.899C83.5512 201.94 83.4815 202.012 83.4434 202.101L81.6256 206.19C81.5829 206.294 81.5629 206.407 81.5668 206.52C81.5707 206.633 81.5985 206.744 81.6484 206.845C81.6982 206.947 81.7689 207.037 81.8559 207.109C81.9429 207.181 82.0442 207.234 82.1532 207.264C84.0599 207.76 84.9751 207.9 87.3457 208.58C88.8075 208.987 90.8922 209.744 92.9069 210.316C94.9217 210.888 95.5954 208.924 94.8136 208.504C91.2799 206.635 91.0002 205.325 90.0342 203.926C89.8611 203.673 89.6047 203.488 89.3096 203.405Z" fill="#407BFF"/>
<path d="M97.8389 205.198L93.2374 202.019C93.1594 201.962 93.0633 201.936 92.9672 201.945C92.8711 201.954 92.7818 201.999 92.7163 202.07L89.6656 205.35C89.5912 205.435 89.5358 205.535 89.5029 205.643C89.47 205.751 89.4605 205.864 89.4749 205.976C89.4893 206.088 89.5274 206.195 89.5866 206.291C89.6457 206.387 89.7247 206.47 89.8181 206.533C91.4388 207.62 92.2777 208.059 94.3052 209.464C95.5763 210.329 98.0359 212.249 99.752 213.444C101.468 214.639 102.745 212.999 102.135 212.35C99.4024 209.432 98.805 207.601 98.3537 205.942C98.2754 205.641 98.093 205.377 97.8389 205.198Z" fill="#407BFF"/>
<path d="M94.1082 199.285L85.814 195.158L86.672 192.908L95.5318 197.257L94.1082 199.285Z" fill="#407BFF"/>
<path d="M83.3226 121.514L82.6235 123.345C82.5536 123.485 82.7188 123.631 82.954 123.631H103.978C104.163 123.631 104.315 123.542 104.328 123.428L104.506 121.609C104.506 121.488 104.36 121.38 104.163 121.38H83.6531C83.5913 121.375 83.5291 121.384 83.4716 121.407C83.4141 121.43 83.363 121.467 83.3226 121.514Z" fill="#407BFF"/>
<path opacity="0.4" d="M83.3226 121.514L82.6235 123.345C82.5536 123.485 82.7188 123.631 82.954 123.631H103.978C104.163 123.631 104.315 123.542 104.328 123.428L104.506 121.609C104.506 121.488 104.36 121.38 104.163 121.38H83.6531C83.5913 121.375 83.5291 121.384 83.4716 121.407C83.4141 121.43 83.363 121.467 83.3226 121.514Z" fill="white"/>
<path d="M86.6339 123.809H86.081C85.9729 123.809 85.8903 123.752 85.8966 123.682L86.1572 121.323C86.1572 121.26 86.2589 121.202 86.367 121.202H86.9199C87.028 121.202 87.1106 121.26 87.1042 121.323L86.8436 123.682C86.8373 123.752 86.7419 123.809 86.6339 123.809Z" fill="#407BFF"/>
<path d="M99.5994 123.809H99.0529C98.9448 123.809 98.8622 123.752 98.8685 123.682L99.1228 121.323C99.1228 121.26 99.2308 121.202 99.3389 121.202H99.8854C99.9935 121.202 100.082 121.26 100.07 121.323L99.8155 123.682C99.7838 123.752 99.7138 123.809 99.5994 123.809Z" fill="#407BFF"/>
<g style="mix-blend-mode:multiply">
<path d="M86.1508 231.482C95.5545 231.482 103.178 230.929 103.178 230.248C103.178 229.567 95.5545 229.015 86.1508 229.015C76.7472 229.015 69.1241 229.567 69.1241 230.248C69.1241 230.929 76.7472 231.482 86.1508 231.482Z" fill="#F5F5F5"/>
</g>
<path d="M96.5233 228.506C93.5107 227.629 90.1676 226.503 88.1465 225.327C88.0893 225.289 88.0258 225.27 87.9686 225.238V211.594H94.0636C94.5263 211.567 94.9611 211.363 95.279 211.026C95.5969 210.689 95.7739 210.242 95.7739 209.779C95.7739 209.315 95.5969 208.869 95.279 208.531C94.9611 208.194 94.5263 207.991 94.0636 207.964H88.0004V145.77H84.3395V207.964H78.2826C78.0352 207.949 77.7875 207.985 77.5547 208.07C77.3218 208.154 77.1087 208.285 76.9284 208.455C76.7481 208.625 76.6044 208.831 76.5062 209.058C76.4081 209.286 76.3574 209.531 76.3574 209.779C76.3574 210.027 76.4081 210.272 76.5062 210.499C76.6044 210.727 76.7481 210.932 76.9284 211.102C77.1087 211.272 77.3218 211.403 77.5547 211.488C77.7875 211.572 78.0352 211.609 78.2826 211.594H84.3395V225.219C84.2823 225.219 84.2251 225.27 84.1679 225.308C82.115 226.503 78.7974 227.629 75.7848 228.487C75.5813 228.549 75.4065 228.681 75.2922 228.86C75.1778 229.04 75.1314 229.254 75.1614 229.465C75.1914 229.675 75.2957 229.868 75.4555 230.008C75.6153 230.148 75.8201 230.227 76.0327 230.229H96.2754C96.4786 230.215 96.6708 230.132 96.8201 229.994C96.9694 229.855 97.0666 229.67 97.0956 229.468C97.1246 229.266 97.0836 229.061 96.9795 228.886C96.8753 228.711 96.7143 228.577 96.5233 228.506Z" fill="#E0E0E0"/>
<path d="M97.4576 139.437H74.8569C73.0386 139.437 71.5647 140.912 71.5647 142.731V149.451C71.5647 151.27 73.0386 152.744 74.8569 152.744H97.4576C99.2758 152.744 100.75 151.27 100.75 149.451V142.731C100.75 140.912 99.2758 139.437 97.4576 139.437Z" fill="#407BFF"/>
<path d="M74.6472 152.751V153.908C74.6472 154.862 75.6831 155.637 76.9543 155.637H95.3857C96.6568 155.637 97.6928 154.862 97.6928 153.908V152.751H74.6472Z" fill="#407BFF"/>
<path opacity="0.3" d="M74.6472 152.751V153.908C74.6472 154.862 75.6831 155.637 76.9543 155.637H95.3857C96.6568 155.637 97.6928 154.862 97.6928 153.908V152.751H74.6472Z" fill="white"/>
</svg>
